<?xml version="1.0" encoding="utf-8"?>
<!-- Generator: Adobe Illustrator 19.0.0, SVG Export Plug-In . SVG Version: 6.00 Build 0)  -->
<svg version="1.1" id="Calque_1" xmlns="http://www.w3.org/2000/svg" xmlns:xlink="http://www.w3.org/1999/xlink" x="0px" y="0px"
	 viewBox="0 0 120 144" style="enable-background:new 0 0 120 144;" xml:space="preserve">
<style type="text/css">
	.st0{fill:none;}
	.st1{fill:#797979;}
	.st2{fill:url(#SVGID_1_);}
	.st3{stroke:#0D0D0D;stroke-width:0.5;stroke-miterlimit:10;}
	.st4{fill:#090909;stroke:#0D0D0D;stroke-width:0.5;stroke-miterlimit:10;}
	.st5{opacity:0.75;}
	.st6{clip-path:url(#SVGID_3_);fill:#736131;fill-opacity:0.75;}
	.st7{opacity:0.75;fill:#736131;fill-opacity:0.75;}
	.st8{fill:#736131;fill-opacity:0.75;}
	.st9{clip-path:url(#SVGID_9_);fill:#736131;fill-opacity:0.75;}
	.st10{clip-path:url(#SVGID_9_);}
	.st11{opacity:0.75;fill:none;stroke:#736131;stroke-miterlimit:10;stroke-opacity:0.75;}
	.st12{fill:#736131;fill-opacity:0.5;}
	.st13{clip-path:url(#SVGID_11_);fill:#736131;fill-opacity:0.5;}
	.st14{fill-rule:evenodd;clip-rule:evenodd;fill:none;stroke:#C1C1C1;stroke-width:0.75;stroke-miterlimit:10;}
</style>
<pattern  x="-385" y="468" width="55.1" height="55.1" patternUnits="userSpaceOnUse" id="New_Pattern_Swatch_21" viewBox="0 -55.1 55.1 55.1" style="overflow:visible;">
	<g>
		<polygon class="st0" points="0,0 55.1,0 55.1,-55.1 0,-55.1 		"/>
		<g>
			<g>
				<g>
				</g>
				<g>
				</g>
				<g>
				</g>
				<g>
				</g>
				<g>
				</g>
				<g>
				</g>
				<g>
				</g>
				<g>
				</g>
				<g>
				</g>
				<g>
				</g>
				<g>
				</g>
				<g>
				</g>
				<g>
				</g>
				<g>
				</g>
				<g>
				</g>
				<g>
				</g>
			</g>
			<g>
				<g>
				</g>
				<g>
				</g>
				<g>
				</g>
				<g>
				</g>
				<g>
				</g>
				<g>
				</g>
				<g>
				</g>
				<g>
				</g>
				<g>
				</g>
				<g>
				</g>
				<g>
				</g>
				<g>
				</g>
				<g>
				</g>
				<g>
				</g>
				<g>
				</g>
				<g>
				</g>
			</g>
			<g>
				<g>
				</g>
				<g>
				</g>
				<g>
				</g>
				<g>
				</g>
				<g>
				</g>
				<g>
				</g>
				<g>
				</g>
				<g>
				</g>
				<g>
				</g>
				<g>
				</g>
				<g>
				</g>
				<g>
				</g>
				<g>
				</g>
				<g>
				</g>
				<g>
				</g>
				<g>
				</g>
			</g>
			<g>
				<g>
				</g>
				<g>
				</g>
				<g>
				</g>
				<g>
				</g>
				<g>
				</g>
				<g>
				</g>
				<g>
				</g>
				<g>
				</g>
				<g>
				</g>
				<g>
				</g>
				<g>
				</g>
				<g>
				</g>
				<g>
				</g>
				<g>
				</g>
				<g>
				</g>
				<g>
				</g>
			</g>
			<g>
				<g>
				</g>
				<g>
				</g>
				<g>
				</g>
				<g>
				</g>
				<g>
				</g>
				<g>
				</g>
				<g>
				</g>
				<g>
				</g>
				<g>
				</g>
				<g>
				</g>
				<g>
				</g>
				<g>
				</g>
				<g>
				</g>
				<g>
				</g>
				<g>
				</g>
				<g>
				</g>
			</g>
			<g>
				<g>
				</g>
				<g>
				</g>
				<g>
				</g>
				<g>
				</g>
				<g>
				</g>
				<g>
				</g>
				<g>
				</g>
				<g>
				</g>
				<g>
				</g>
				<g>
				</g>
				<g>
				</g>
				<g>
				</g>
				<g>
				</g>
				<g>
				</g>
				<g>
				</g>
				<g>
				</g>
			</g>
			<g>
				<g>
				</g>
				<g>
				</g>
				<g>
				</g>
				<g>
				</g>
				<g>
				</g>
				<g>
				</g>
				<g>
				</g>
				<g>
				</g>
				<g>
				</g>
				<g>
				</g>
				<g>
				</g>
				<g>
				</g>
				<g>
				</g>
				<g>
				</g>
				<g>
				</g>
				<g>
				</g>
			</g>
			<g>
				<g>
				</g>
				<g>
				</g>
				<g>
				</g>
				<g>
				</g>
				<g>
				</g>
				<g>
				</g>
				<g>
				</g>
				<g>
				</g>
				<g>
				</g>
				<g>
				</g>
				<g>
				</g>
				<g>
				</g>
				<g>
				</g>
				<g>
				</g>
				<g>
				</g>
				<g>
				</g>
			</g>
			<g>
				<g>
				</g>
				<g>
				</g>
				<g>
				</g>
				<g>
				</g>
				<g>
				</g>
				<g>
				</g>
				<g>
				</g>
				<g>
				</g>
				<g>
				</g>
				<g>
				</g>
				<g>
				</g>
				<g>
				</g>
				<g>
				</g>
				<g>
				</g>
				<g>
				</g>
				<g>
				</g>
			</g>
		</g>
		<g>
			<path class="st0" d="M1.5-16.1c-0.1,0-0.2-0.1-0.3-0.1c-0.4-0.1-0.8-0.3-1.1-0.4v1c0.1,0,0.2-0.1,0.3-0.1
				C0.7-15.9,1.1-16,1.5-16.1z"/>
			<path class="st0" d="M46.7-10.8c1.6-2.1,4.8-3.6,7.3-4.5c0.3-0.1,0.7-0.2,1.1-0.4c-0.1,0-0.2-0.1-0.2-0.1
				c-0.4-0.1-0.9-0.2-1.3-0.3c-2.4,0.9-5.2,2.3-6.8,4.2C46.8-11.5,46.8-11.1,46.7-10.8z"/>
			<path class="st0" d="M1.5-39c-0.4-0.1-0.8-0.2-1.2-0.4c-0.1,0-0.2-0.1-0.3-0.1v1c0.4-0.1,0.8-0.3,1.1-0.4C1.2-38.9,1.4-39,1.5-39
				z"/>
			<path class="st0" d="M53.7-16.1c0.4,0.1,0.8,0.2,1.2,0.4c0.1,0,0.2,0.1,0.3,0.1v-1c-0.4,0.1-0.8,0.3-1.1,0.4
				C53.9-16.2,53.8-16.1,53.7-16.1z"/>
			<path class="st0" d="M39-53.7c0.1-0.4,0.2-0.8,0.4-1.2c0-0.1,0.1-0.2,0.1-0.3h-1c0.1,0.4,0.3,0.8,0.4,1.1
				C38.9-53.9,39-53.8,39-53.7z"/>
			<path class="st0" d="M8.3-43.2c0-0.4,0-0.8,0.1-1.1c-1.6,2.1-4.8,3.6-7.3,4.5c-0.3,0.1-0.7,0.2-1.1,0.4c0.1,0,0.2,0.1,0.2,0.1
				c0.4,0.1,0.9,0.2,1.3,0.3C4-40,6.7-41.4,8.3-43.2z"/>
			<path class="st0" d="M44.3-46.7c-2.1-1.6-3.6-4.8-4.5-7.3c-0.1-0.3-0.2-0.7-0.4-1.1c0,0.1-0.1,0.2-0.1,0.2
				c-0.1,0.4-0.2,0.9-0.3,1.3c0.9,2.4,2.3,5.2,4.2,6.8C43.6-46.8,44-46.8,44.3-46.7z"/>
			<path class="st0" d="M8.3-11.9c-1.6-1.9-4.4-3.3-6.8-4.2c-0.4,0.1-0.9,0.2-1.3,0.3c-0.1,0-0.2,0.1-0.2,0.1
				c0.4,0.1,0.7,0.2,1.1,0.4c2.6,1,5.7,2.5,7.3,4.5C8.4-11.1,8.3-11.5,8.3-11.9z"/>
			<path class="st0" d="M11.9-46.8c1.9-1.6,3.3-4.4,4.2-6.8c-0.1-0.4-0.2-0.9-0.3-1.3c0-0.1-0.1-0.2-0.1-0.2
				c-0.1,0.4-0.2,0.7-0.4,1.1c-1,2.6-2.5,5.7-4.5,7.3C11.1-46.8,11.5-46.8,11.9-46.8z"/>
			<path class="st0" d="M39-1.5c0,0.1-0.1,0.2-0.1,0.3c-0.1,0.4-0.3,0.8-0.4,1.1h1c0-0.1-0.1-0.2-0.1-0.3C39.3-0.7,39.1-1.1,39-1.5z
				"/>
			<path class="st0" d="M11.9-8.3c-0.4,0-0.8,0-1.1-0.1c2.1,1.6,3.6,4.8,4.5,7.3c0.1,0.3,0.2,0.7,0.4,1.1c0-0.1,0.1-0.2,0.1-0.2
				c0.1-0.4,0.2-0.9,0.3-1.3C15.1-4,13.8-6.7,11.9-8.3z"/>
			<path class="st0" d="M43.2-8.3C41.4-6.7,40-4,39.1-1.6c0.1,0.4,0.2,0.9,0.3,1.3c0,0.1,0.1,0.2,0.1,0.2c0.1-0.4,0.2-0.7,0.4-1.1
				c1-2.6,2.5-5.7,4.5-7.3C44-8.4,43.6-8.3,43.2-8.3z"/>
			<path class="st0" d="M16.1-53.7c0-0.1,0.1-0.2,0.1-0.3c0.1-0.4,0.3-0.8,0.4-1.1h-1c0,0.1,0.1,0.2,0.1,0.3
				C15.9-54.5,16-54.1,16.1-53.7z"/>
			<path class="st0" d="M46.8-43.2c1.6,1.9,4.4,3.3,6.8,4.2c0.4-0.1,0.9-0.2,1.3-0.3c0.1,0,0.2-0.1,0.2-0.1
				c-0.4-0.1-0.7-0.2-1.1-0.4c-2.6-1-5.7-2.5-7.3-4.5C46.8-44,46.8-43.6,46.8-43.2z"/>
			<path class="st0" d="M53.7-39c0.1,0,0.2,0.1,0.3,0.1c0.4,0.1,0.8,0.3,1.1,0.4v-1c-0.1,0-0.2,0.1-0.3,0.1
				C54.5-39.3,54.1-39.1,53.7-39z"/>
			<path class="st0" d="M38.5,0H16.6c0-0.1,0-0.1,0.1-0.2c1-2.9,1.5-5.6,1.4-6.2c0-0.1,0-0.1,0-0.1c0,0,0,0,0,0l0,0
				c-0.2-0.2-0.5,3.2-1.4,6.3c0,0.1,0,0.1-0.1,0.2c-0.1-0.4-0.2-0.8-0.4-1.2c0-0.1-0.1-0.2-0.1-0.3c0.7-2.4,1.1-4.4,1-5
				c0-0.1,0-0.1,0-0.1c0,0,0,0,0,0l0,0c-0.2-0.2-0.4,2.3-1,4.9c-0.9-2.4-2.3-5.1-4.1-6.7c2.6-0.1,5.6-1.5,7.9-2.8
				c0.4-0.2,0.8-0.5,1.1-0.7c2.6-1.7,4.7-3.4,5.1-3.9c0-0.1,0-0.1,0-0.1c0,0.1,0,0,0,0l0,0c0-0.3-2.4,2.2-5.1,4
				c-0.4,0.2-0.8,0.5-1.1,0.7c-2.3,1.3-5.3,2.7-7.9,2.8C11.6-8.6,11.3-8.8,11-9c2.6,0,5.8-1.4,8.1-2.8c0.4-0.2,0.8-0.5,1.1-0.7
				c2.6-1.6,4.7-3.4,5.1-3.9c0-0.1,0-0.1,0-0.1c0,0.1,0,0,0,0l0,0c0-0.3-2.4,2.2-5.1,4c-0.4,0.2-0.8,0.5-1.1,0.7
				C16.8-10.5,13.6-9,10.9-9c-0.2-0.1-0.3-0.2-0.5-0.3l0,0c0.2,0.1,0.3,0.1,0.4,0.2c-0.5,0-0.9-0.1-1.4-0.2l0,0
				c0.5,0.1,1,0.2,1.5,0.2c0.3,0.2,0.6,0.4,0.9,0.7c-0.4,0-0.8,0-1.1-0.1C10.3-8.8,9.9-9,9.5-9.2l0,0c0.4,0.2,0.8,0.4,1.2,0.7
				c-0.2,0-0.3-0.1-0.5-0.1l0,0c0.2,0.1,0.4,0.1,0.6,0.1c2.1,1.6,3.6,4.8,4.6,7.4c0.1,0.4,0.3,0.7,0.4,1H0v-15.6
				c0.3,0.1,0.7,0.2,1,0.4c2.6,1,5.7,2.5,7.4,4.6c0,0.2,0.1,0.4,0.1,0.6l0,0c0-0.2-0.1-0.3-0.1-0.5C8.8-10.3,9-9.9,9.2-9.4l0,0
				C9-9.9,8.8-10.3,8.5-10.7c-0.1-0.4-0.1-0.7-0.1-1.1c0.3,0.3,0.5,0.6,0.7,0.9c0,0.5,0.1,1,0.2,1.5l0,0c-0.1-0.4-0.2-0.9-0.2-1.4
				c0.1,0.1,0.2,0.3,0.2,0.4l0,0c-0.1-0.2-0.2-0.3-0.3-0.5c-0.1-2.6,1.4-5.8,2.8-8.2c0.2-0.4,0.5-0.8,0.7-1.1c1.8-2.7,4.3-5.1,4-5.1
				l0,0c0,0-0.1,0,0,0c0,0,0,0-0.1,0c-0.5,0.4-2.3,2.4-3.9,5.1c-0.3,0.4-0.5,0.8-0.7,1.1C10.4-16.8,9-13.6,9-11
				c-0.2-0.3-0.4-0.6-0.6-0.9c0-2.6,1.5-5.6,2.8-7.9c0.2-0.4,0.5-0.8,0.7-1.1c1.8-2.7,4.3-5.1,4-5.1l0,0c0,0-0.1,0,0,0
				c0,0,0,0-0.1,0c-0.5,0.4-2.3,2.4-3.9,5.1c-0.3,0.4-0.5,0.8-0.7,1.1c-1.3,2.3-2.7,5.3-2.8,7.9c-1.6-1.8-4.3-3.2-6.7-4.1
				c2.7-0.6,5.1-0.9,4.9-1l0,0c0,0-0.1,0,0,0c0,0,0,0-0.1,0c-0.5,0-2.6,0.3-5,1c-0.1,0-0.2-0.1-0.3-0.1c-0.4-0.1-0.8-0.3-1.2-0.4
				c0.1,0,0.1,0,0.2-0.1c3.1-0.9,6.5-1.2,6.3-1.4l0,0c0,0-0.1,0,0,0c0,0,0,0-0.1,0c-0.6-0.1-3.3,0.4-6.2,1.4c-0.1,0-0.1,0-0.2,0.1
				v-21.9c0.1,0,0.1,0,0.2,0.1c2.9,1,5.6,1.5,6.2,1.4c0.1,0,0.1,0,0.1,0c0,0,0,0,0,0l0,0c0.2-0.2-3.2-0.5-6.3-1.4
				c-0.1,0-0.1,0-0.2-0.1c0.4-0.1,0.8-0.2,1.2-0.4c0.1,0,0.2-0.1,0.3-0.1c2.4,0.7,4.4,1.1,5,1c0.1,0,0.1,0,0.1,0c0,0,0,0,0,0l0,0
				c0.2-0.2-2.3-0.4-4.9-1C4-40,6.7-41.3,8.3-43.2c0.1,2.6,1.5,5.6,2.8,7.9c0.2,0.4,0.5,0.8,0.7,1.1c1.7,2.6,3.4,4.7,3.9,5.1
				c0.1,0,0.1,0,0.1,0c-0.1,0,0,0,0,0l0,0c0.3,0-2.2-2.4-4-5.1c-0.2-0.4-0.5-0.8-0.7-1.1c-1.3-2.3-2.7-5.3-2.8-7.9
				c0.2-0.3,0.5-0.6,0.6-0.9c0,2.6,1.4,5.8,2.8,8.1c0.2,0.4,0.5,0.8,0.7,1.1c1.6,2.6,3.4,4.7,3.9,5.1c0.1,0,0.1,0,0.1,0
				c-0.1,0,0,0,0,0l0,0c0.3,0-2.2-2.4-4-5.1c-0.2-0.4-0.5-0.8-0.7-1.1C10.5-38.4,9-41.5,9-44.2c0.1-0.2,0.2-0.3,0.3-0.5l0,0
				c-0.1,0.2-0.1,0.3-0.2,0.4c0-0.5,0.1-0.9,0.2-1.4l0,0c-0.1,0.5-0.2,1-0.2,1.5c-0.2,0.3-0.4,0.6-0.7,0.9c0-0.4,0-0.8,0.1-1.1
				c0.3-0.4,0.6-0.8,0.8-1.3l0,0c-0.2,0.4-0.4,0.8-0.7,1.2c0-0.2,0.1-0.3,0.1-0.5l0,0c-0.1,0.2-0.1,0.4-0.1,0.6
				c-1.6,2.1-4.8,3.6-7.4,4.6c-0.4,0.1-0.7,0.3-1,0.4v-15.6h15.6c-0.1,0.3-0.2,0.7-0.4,1c-1,2.6-2.5,5.7-4.6,7.4
				c-0.2,0-0.4,0.1-0.6,0.1l0,0c0.2,0,0.3-0.1,0.5-0.1c-0.4,0.3-0.8,0.5-1.2,0.7l0,0c0.4-0.2,0.9-0.5,1.3-0.8
				c0.4-0.1,0.7-0.1,1.1-0.1c-0.3,0.3-0.6,0.5-0.9,0.7c-0.5,0-1,0.1-1.5,0.2l0,0c0.4-0.1,0.9-0.2,1.4-0.2c-0.1,0.1-0.3,0.2-0.4,0.2
				l0,0c0.2-0.1,0.3-0.2,0.5-0.3c2.6-0.1,5.8,1.4,8.2,2.8c0.4,0.2,0.8,0.5,1.1,0.7c2.7,1.8,5.1,4.3,5.1,4l0,0c0,0,0-0.1,0,0
				c0,0,0,0,0-0.1c-0.4-0.5-2.4-2.3-5.1-3.9c-0.4-0.3-0.8-0.5-1.1-0.7c-2.4-1.4-5.5-2.8-8.1-2.8c0.3-0.2,0.6-0.4,0.9-0.6
				c2.6,0,5.6,1.5,7.9,2.8c0.4,0.2,0.8,0.5,1.1,0.7c2.7,1.8,5.1,4.3,5.1,4l0,0c0,0,0-0.1,0,0c0,0,0,0,0-0.1
				c-0.4-0.5-2.4-2.3-5.1-3.9c-0.4-0.3-0.8-0.5-1.1-0.7c-2.3-1.3-5.3-2.7-7.9-2.8c1.8-1.6,3.2-4.3,4.1-6.7c0.6,2.7,0.9,5.1,1,4.9
				l0,0c0,0,0-0.1,0,0c0,0,0,0,0-0.1c0-0.5-0.3-2.6-1-5c0-0.1,0.1-0.2,0.1-0.3c0.1-0.4,0.3-0.8,0.4-1.2c0,0.1,0,0.1,0.1,0.2
				c0.9,3.1,1.2,6.5,1.4,6.3l0,0c0,0,0-0.1,0,0c0,0,0,0,0-0.1c0.1-0.6-0.4-3.3-1.4-6.2c0-0.1,0-0.1-0.1-0.2h21.9
				c0,0.1,0,0.1-0.1,0.2c-1,2.9-1.5,5.6-1.4,6.2c0,0.1,0,0.1,0,0.1c0,0,0,0,0,0l0,0c0.2,0.2,0.5-3.2,1.4-6.3c0-0.1,0-0.1,0.1-0.2
				c0.1,0.4,0.2,0.8,0.4,1.2c0,0.1,0.1,0.2,0.1,0.3c-0.7,2.4-1.1,4.4-1,5c0,0.1,0,0.1,0,0.1c0,0,0,0,0,0l0,0c0.2,0.2,0.4-2.3,1-4.9
				c0.9,2.4,2.3,5.1,4.1,6.7c-2.6,0.1-5.6,1.5-7.9,2.8c-0.4,0.2-0.8,0.5-1.1,0.7c-2.6,1.7-4.7,3.4-5.1,3.9c0,0.1,0,0.1,0,0.1
				c0-0.1,0,0,0,0l0,0c0,0.3,2.4-2.2,5.1-4c0.4-0.2,0.8-0.5,1.1-0.7c2.3-1.3,5.3-2.7,7.9-2.8c0.3,0.2,0.6,0.5,0.9,0.6
				c-2.6,0-5.8,1.4-8.1,2.8c-0.4,0.2-0.8,0.5-1.1,0.7c-2.6,1.6-4.7,3.4-5.1,3.9c0,0.1,0,0.1,0,0.1c0-0.1,0,0,0,0l0,0
				c0,0.3,2.4-2.2,5.1-4c0.4-0.2,0.8-0.5,1.1-0.7c2.4-1.4,5.6-2.9,8.2-2.8c0.2,0.1,0.3,0.2,0.5,0.3l0,0c-0.2-0.1-0.3-0.1-0.4-0.2
				c0.5,0,0.9,0.1,1.4,0.2l0,0c-0.5-0.1-1-0.2-1.5-0.2c-0.3-0.2-0.6-0.4-0.9-0.7c0.4,0,0.8,0,1.1,0.1c0.4,0.3,0.8,0.6,1.3,0.8l0,0
				c-0.4-0.2-0.8-0.4-1.2-0.7c0.2,0,0.3,0.1,0.5,0.1l0,0c-0.2-0.1-0.4-0.1-0.6-0.1c-2.1-1.6-3.6-4.8-4.6-7.4c-0.1-0.4-0.3-0.7-0.4-1
				h15.6v15.6c-0.3-0.1-0.7-0.2-1-0.4c-2.6-1-5.7-2.5-7.4-4.6c0-0.2-0.1-0.4-0.1-0.6l0,0c0,0.2,0.1,0.3,0.1,0.5
				c-0.3-0.4-0.5-0.8-0.7-1.2l0,0c0.2,0.4,0.5,0.9,0.8,1.3c0.1,0.4,0.1,0.7,0.1,1.1c-0.3-0.3-0.5-0.6-0.7-0.9c0-0.5-0.1-1-0.2-1.5
				l0,0c0.1,0.4,0.2,0.9,0.2,1.4c-0.1-0.1-0.2-0.3-0.2-0.4l0,0c0.1,0.2,0.2,0.3,0.3,0.5c0.1,2.6-1.4,5.8-2.8,8.2
				c-0.2,0.4-0.5,0.8-0.7,1.1c-1.8,2.7-4.3,5.1-4,5.1l0,0c0,0,0.1,0,0,0c0,0,0,0,0.1,0c0.5-0.4,2.3-2.4,3.9-5.1
				c0.3-0.4,0.5-0.8,0.7-1.1c1.4-2.4,2.8-5.5,2.8-8.1c0.2,0.3,0.4,0.6,0.6,0.9c0,2.6-1.5,5.6-2.8,7.9c-0.2,0.4-0.5,0.8-0.7,1.1
				c-1.8,2.7-4.3,5.1-4,5.1l0,0c0,0,0.1,0,0,0c0,0,0,0,0.1,0c0.5-0.4,2.3-2.4,3.9-5.1c0.3-0.4,0.5-0.8,0.7-1.1
				c1.3-2.3,2.7-5.3,2.8-7.9c1.6,1.8,4.3,3.2,6.7,4.1c-2.7,0.6-5.1,0.9-4.9,1l0,0c0,0,0.1,0,0,0c0,0,0,0,0.1,0c0.5,0,2.6-0.3,5-1
				c0.1,0,0.2,0.1,0.3,0.1c0.4,0.1,0.8,0.3,1.2,0.4c-0.1,0-0.1,0-0.2,0.1c-3.1,0.9-6.5,1.2-6.3,1.4l0,0c0,0,0.1,0,0,0c0,0,0,0,0.1,0
				c0.6,0.1,3.3-0.4,6.2-1.4c0.1,0,0.1,0,0.2-0.1v21.9c-0.1,0-0.1,0-0.2-0.1c-2.9-1-5.6-1.5-6.2-1.4c-0.1,0-0.1,0-0.1,0c0,0,0,0,0,0
				l0,0c-0.2,0.2,3.2,0.5,6.3,1.4c0.1,0,0.1,0,0.2,0.1c-0.4,0.1-0.8,0.2-1.2,0.4c-0.1,0-0.2,0.1-0.3,0.1c-2.4-0.7-4.4-1.1-5-1
				c-0.1,0-0.1,0-0.1,0c0,0,0,0,0,0l0,0c-0.2,0.2,2.3,0.4,4.9,1c-2.4,0.9-5.1,2.3-6.7,4.1c-0.1-2.6-1.5-5.6-2.8-7.9
				c-0.2-0.4-0.5-0.8-0.7-1.1c-1.7-2.6-3.4-4.7-3.9-5.1c-0.1,0-0.1,0-0.1,0c0.1,0,0,0,0,0l0,0c-0.3,0,2.2,2.4,4,5.1
				c0.2,0.4,0.5,0.8,0.7,1.1c1.3,2.3,2.7,5.3,2.8,7.9c-0.2,0.3-0.5,0.6-0.6,0.9c0-2.6-1.4-5.8-2.8-8.1c-0.2-0.4-0.5-0.8-0.7-1.1
				c-1.6-2.6-3.4-4.7-3.9-5.1c-0.1,0-0.1,0-0.1,0c0.1,0,0,0,0,0l0,0c-0.3,0,2.2,2.4,4,5.1c0.2,0.4,0.5,0.8,0.7,1.1
				c1.4,2.4,2.9,5.6,2.8,8.2c-0.1,0.2-0.2,0.3-0.3,0.5l0,0c0.1-0.2,0.1-0.3,0.2-0.4c0,0.5-0.1,0.9-0.2,1.4l0,0
				c0.1-0.5,0.2-1,0.2-1.5c0.2-0.3,0.4-0.6,0.7-0.9c0,0.4,0,0.8-0.1,1.1c-0.3,0.4-0.6,0.8-0.8,1.3l0,0c0.2-0.4,0.4-0.8,0.7-1.2
				c0,0.2-0.1,0.3-0.1,0.5l0,0c0.1-0.2,0.1-0.4,0.1-0.6c1.6-2.1,4.8-3.6,7.4-4.6c0.4-0.1,0.7-0.3,1-0.4V0H39.5
				c0.1-0.3,0.2-0.7,0.4-1c1-2.6,2.5-5.7,4.6-7.4c0.2,0,0.4-0.1,0.6-0.1l0,0c-0.2,0-0.3,0.1-0.5,0.1c0.4-0.3,0.8-0.5,1.2-0.7l0,0
				c-0.4,0.2-0.9,0.5-1.3,0.8c-0.4,0.1-0.7,0.1-1.1,0.1c0.3-0.3,0.6-0.5,0.9-0.7c0.5,0,1-0.1,1.5-0.2l0,0c-0.4,0.1-0.9,0.2-1.4,0.2
				c0.1-0.1,0.3-0.2,0.4-0.2l0,0c-0.2,0.1-0.3,0.2-0.5,0.3c-2.6,0.1-5.8-1.4-8.2-2.8c-0.4-0.2-0.8-0.5-1.1-0.7
				c-2.7-1.8-5.1-4.3-5.1-4l0,0c0,0,0,0.1,0,0c0,0,0,0,0,0.1c0.4,0.5,2.4,2.3,5.1,3.9c0.4,0.3,0.8,0.5,1.1,0.7
				c2.4,1.4,5.5,2.8,8.1,2.8c-0.3,0.2-0.6,0.4-0.9,0.6c-2.6,0-5.6-1.5-7.9-2.8c-0.4-0.2-0.8-0.5-1.1-0.7c-2.7-1.8-5.1-4.3-5.1-4l0,0
				c0,0,0,0.1,0,0c0,0,0,0,0,0.1c0.4,0.5,2.4,2.3,5.1,3.9c0.4,0.3,0.8,0.5,1.1,0.7c2.3,1.3,5.3,2.7,7.9,2.8C41.3-6.7,40-4,39-1.6
				c-0.6-2.7-0.9-5.1-1-4.9l0,0c0,0,0,0.1,0,0c0,0,0,0,0,0.1c0,0.5,0.3,2.6,1,5c0,0.1-0.1,0.2-0.1,0.3C38.7-0.8,38.6-0.4,38.5,0
				c0-0.1,0-0.1-0.1-0.2c-0.9-3.1-1.2-6.5-1.4-6.3l0,0c0,0,0,0.1,0,0c0,0,0,0,0,0.1c-0.1,0.6,0.4,3.3,1.4,6.2
				C38.5-0.1,38.5-0.1,38.5,0z M41.4-27.6c-0.8,0.9-1.2,1.4-1.1,1.4l0,0c0,0,0.1,0,0,0c0,0,0,0,0.1,0c0.2-0.1,0.6-0.6,1.2-1.2
				c0.8,0.9,1.8,2.2,2.7,3.5c0.2,0.4,0.5,0.8,0.7,1.2c1.6,2.8,3.4,6.8,2.6,9.7l0,0c0.9-2.9-0.9-6.8-2.6-9.7
				c-0.2-0.4-0.5-0.8-0.7-1.2c-0.9-1.5-1.9-2.7-2.6-3.7c0.7-0.9,1.7-2.2,2.6-3.7c0.3-0.4,0.5-0.8,0.7-1.2c1.6-2.8,3.4-6.8,2.6-9.7
				l0,0c0.9,2.9-0.9,6.8-2.6,9.7c-0.2,0.4-0.5,0.8-0.7,1.2c-0.9,1.3-1.9,2.6-2.7,3.5c-0.5-0.6-1-1.1-1.2-1.2c-0.1,0-0.1,0-0.1,0
				c0.1,0,0,0,0,0l0,0C40.2-29,40.7-28.4,41.4-27.6z M13.7-27.6c0.8-0.9,1.2-1.4,1.1-1.4l0,0c0,0-0.1,0,0,0c0,0,0,0-0.1,0
				c-0.2,0.1-0.6,0.6-1.2,1.2c-0.8-0.9-1.8-2.2-2.7-3.5c-0.2-0.4-0.5-0.8-0.7-1.2c-1.6-2.8-3.4-6.8-2.6-9.7l0,0
				c-0.9,2.9,0.9,6.8,2.6,9.7c0.2,0.4,0.5,0.8,0.7,1.2c0.9,1.5,1.9,2.7,2.6,3.6c-0.7,0.9-1.7,2.2-2.6,3.6c-0.3,0.4-0.5,0.8-0.7,1.2
				c-1.6,2.8-3.4,6.8-2.6,9.7l0,0c-0.9-2.9,0.9-6.8,2.6-9.7c0.2-0.4,0.5-0.8,0.7-1.2c0.9-1.3,1.9-2.6,2.7-3.5c0.5,0.6,1,1.1,1.2,1.2
				c0.1,0,0.1,0,0.1,0c-0.1,0,0,0,0,0l0,0C14.9-26.1,14.4-26.7,13.7-27.6z M27.4-41.6c-0.6,0.5-1.1,1-1.2,1.2c0,0.1,0,0.1,0,0.1
				c0-0.1,0,0,0,0l0,0c0,0.1,0.6-0.4,1.4-1.1c0.9,0.8,1.4,1.2,1.4,1.1l0,0c0,0,0-0.1,0,0c0,0,0,0,0-0.1c-0.1-0.2-0.6-0.6-1.2-1.2
				c0.9-0.8,2.2-1.8,3.5-2.7c0.4-0.2,0.8-0.5,1.2-0.7c2.8-1.6,6.8-3.4,9.7-2.6l0,0c-2.9-0.9-6.8,0.9-9.7,2.6
				c-0.4,0.2-0.8,0.5-1.2,0.7c-1.5,0.9-2.7,1.9-3.7,2.6c-0.9-0.7-2.2-1.7-3.7-2.6c-0.4-0.3-0.8-0.5-1.2-0.7
				c-2.8-1.6-6.8-3.4-9.7-2.6l0,0c2.9-0.9,6.8,0.9,9.7,2.6c0.4,0.2,0.8,0.5,1.2,0.7C25.2-43.4,26.5-42.4,27.4-41.6z M23.9-10.8
				c1.5-0.9,2.7-1.9,3.6-2.6c0.9,0.7,2.2,1.7,3.6,2.6c0.4,0.3,0.8,0.5,1.2,0.7c2.8,1.6,6.8,3.4,9.7,2.6l0,0
				c-2.9,0.9-6.8-0.9-9.7-2.6c-0.4-0.2-0.8-0.5-1.2-0.7c-1.3-0.9-2.6-1.9-3.5-2.7c0.6-0.5,1.1-1,1.2-1.2c0-0.1,0-0.1,0-0.1
				c0,0.1,0,0,0,0l0,0c0-0.1-0.6,0.4-1.4,1.1c-0.9-0.8-1.4-1.2-1.4-1.1l0,0c0,0,0,0.1,0,0c0,0,0,0,0,0.1c0.1,0.2,0.6,0.6,1.2,1.2
				C26.5-12.8,25.2-11.7,23.9-10.8c-0.4,0.2-0.8,0.5-1.2,0.7c-2.8,1.6-6.8,3.4-9.7,2.6l0,0c2.9,0.9,6.8-0.9,9.7-2.6
				C23.1-10.3,23.5-10.6,23.9-10.8z"/>
			<path class="st0" d="M16.1-1.5c-0.1,0.4-0.2,0.8-0.4,1.2c0,0.1-0.1,0.2-0.1,0.3h1c-0.1-0.4-0.3-0.8-0.4-1.1
				C16.2-1.2,16.1-1.4,16.1-1.5z"/>
			<path d="M18.1-48.7C18.1-48.7,18.1-48.7,18.1-48.7c0.1-0.7-0.4-3.4-1.4-6.3C17.6-51.8,17.9-48.4,18.1-48.7z"/>
			<path d="M16.7-55c0-0.1,0-0.1-0.1-0.2c0,0,0,0,0,0C16.6-55.1,16.7-55,16.7-55z"/>
			<path d="M18.1-48.7L18.1-48.7C18.1-48.7,18.1-48.7,18.1-48.7z"/>
			<path d="M16.1-53.7c-0.1-0.4-0.2-0.8-0.4-1.2C15.9-54.4,16-54,16.1-53.7C16.1-53.6,16.1-53.6,16.1-53.7z"/>
			<path d="M17.1-48.6L17.1-48.6C17.1-48.6,17.1-48.6,17.1-48.6z"/>
			<path d="M15.7-54.9c0-0.1-0.1-0.2-0.1-0.3c0,0,0,0,0,0C15.7-55,15.7-55,15.7-54.9z"/>
			<path d="M17.1-48.6C17.1-48.6,17.1-48.6,17.1-48.6c0.1-0.6-0.3-2.6-1-5c0,0,0,0.1,0,0.1C16.7-50.8,16.9-48.4,17.1-48.6z"/>
			<path d="M37.1-48.6L37.1-48.6C37-48.7,37-48.7,37.1-48.6z"/>
			<path d="M37-48.8C37-48.7,37.1-48.7,37-48.8c0.2,0.3,0.5-3.1,1.4-6.2C37.5-52,37-49.4,37-48.8z"/>
			<path d="M38.5-55.1C38.5-55.1,38.5-55.1,38.5-55.1c0,0.1,0,0.1-0.1,0.2C38.5-55,38.5-55.1,38.5-55.1z"/>
			<path d="M39-53.7C39-53.6,39-53.6,39-53.7c0.1-0.3,0.3-0.8,0.4-1.2C39.3-54.5,39.1-54.1,39-53.7z"/>
			<path d="M39.5-55.1C39.5-55.1,39.5-55.1,39.5-55.1c0,0.1-0.1,0.2-0.1,0.2C39.4-55,39.5-55,39.5-55.1z"/>
			<path d="M38-48.6L38-48.6C38-48.6,38-48.6,38-48.6z"/>
			<path d="M38-48.7C38-48.6,38-48.6,38-48.7c0.2,0.3,0.4-2.2,1.1-4.9c0,0,0-0.1,0-0.1C38.3-51.2,38-49.2,38-48.7z"/>
			<path d="M55-38.4c0.1,0,0.1,0,0.2-0.1c0,0,0,0,0,0C55.1-38.5,55-38.5,55-38.4z"/>
			<path d="M48.7-37.1L48.7-37.1C48.7-37,48.7-37,48.7-37.1z"/>
			<path d="M48.7-37.1C48.7-37.1,48.7-37,48.7-37.1c0.7,0.1,3.4-0.4,6.3-1.4C51.8-37.5,48.4-37.3,48.7-37.1z"/>
			<path d="M48.6-38L48.6-38C48.6-38,48.6-38,48.6-38z"/>
			<path d="M53.7-39c0.4-0.1,0.8-0.2,1.2-0.4C54.4-39.3,54-39.2,53.7-39C53.6-39,53.6-39,53.7-39z"/>
			<path d="M48.6-38C48.6-38,48.6-38,48.6-38c0.6,0.1,2.6-0.3,5-1c0,0-0.1,0-0.1,0C50.8-38.4,48.4-38.2,48.6-38z"/>
			<path d="M54.9-39.4c0.1,0,0.2-0.1,0.3-0.1c0,0,0,0,0,0C55-39.5,55-39.4,54.9-39.4z"/>
			<path d="M48.6-18.1L48.6-18.1C48.7-18.1,48.7-18.1,48.6-18.1z"/>
			<path d="M55.1-16.6C55.1-16.6,55.1-16.6,55.1-16.6c-0.1,0-0.1,0-0.2-0.1C55-16.7,55.1-16.6,55.1-16.6z"/>
			<path d="M48.8-18.1C48.7-18.1,48.7-18.1,48.8-18.1c-0.3,0.2,3.1,0.5,6.2,1.4C52-17.6,49.4-18.1,48.8-18.1z"/>
			<path d="M48.6-17.1L48.6-17.1C48.6-17.1,48.6-17.1,48.6-17.1z"/>
			<path d="M48.7-17.1C48.6-17.1,48.6-17.1,48.7-17.1c-0.3,0.2,2.2,0.4,4.9,1.1c0,0,0.1,0,0.1,0C51.2-16.8,49.2-17.2,48.7-17.1z"/>
			<path d="M53.7-16.1C53.6-16.1,53.6-16.1,53.7-16.1c0.3,0.1,0.8,0.3,1.2,0.4C54.5-15.9,54.1-16,53.7-16.1z"/>
			<path d="M55.1-15.6C55.1-15.6,55.1-15.6,55.1-15.6c-0.1,0-0.2-0.1-0.2-0.1C55-15.7,55-15.7,55.1-15.6z"/>
			<path d="M45.9-44.7L45.9-44.7c0,0.2,0.1,0.4,0.2,0.5c0,0,0-0.1,0-0.1C46-44.4,45.9-44.6,45.9-44.7z"/>
			<path d="M53.7-39C53.6-39,53.6-39,53.7-39c-2.5-1-5.3-2.4-6.9-4.2c0,0,0,0,0,0c1.6,1.8,4.3,3.2,6.7,4.1C53.6-39,53.6-39,53.7-39
				c0.1,0.1,0.2,0.1,0.3,0.1c0.4,0.1,0.8,0.3,1.2,0.4c0,0,0,0,0,0v0c-0.4-0.1-0.8-0.3-1.1-0.4C53.9-38.9,53.8-39,53.7-39z"/>
			<path d="M46.8-43.3c-0.3-0.3-0.5-0.6-0.7-0.9c0,0,0,0,0,0.1C46.3-43.8,46.5-43.5,46.8-43.3C46.8-43.2,46.8-43.3,46.8-43.3z"/>
			<path d="M45.9-45.7L45.9-45.7c0.2,0.5,0.4,0.9,0.7,1.3c0,0,0-0.1,0-0.1C46.4-44.9,46.1-45.3,45.9-45.7z"/>
			<path d="M46.7-44.4C46.7-44.4,46.7-44.4,46.7-44.4c1.7,2.1,4.8,3.6,7.3,4.6c0.3,0.1,0.7,0.2,1.1,0.4c0,0,0,0,0,0v0
				c-0.3-0.1-0.7-0.2-1-0.4C51.5-40.8,48.3-42.3,46.7-44.4z"/>
			<path d="M46.7-44.3C46.7-44.4,46.7-44.4,46.7-44.3c0-0.3-0.1-0.4-0.1-0.6l0,0c0,0.2,0.1,0.3,0.1,0.5
				C46.7-44.5,46.7-44.4,46.7-44.3c0,0.3,0,0.7,0,1.1c0,0,0,0,0,0c0,2.6-1.5,5.6-2.8,7.9c-0.2,0.4-0.5,0.8-0.7,1.1
				c0.3-0.4,0.5-0.8,0.7-1.1c1.3-2.3,2.7-5.3,2.8-7.9c0,0,0,0,0,0C46.8-43.6,46.8-44,46.7-44.3z"/>
			<path d="M39.3-29.1L39.3-29.1C39.3-29,39.3-29.1,39.3-29.1z"/>
			<path d="M39.3-29.1C39.3-29.1,39.3-29.1,39.3-29.1c0.6-0.4,2.3-2.5,4-5.1C41.4-31.5,39-29.1,39.3-29.1z"/>
			<path d="M45.9-45.7L45.9-45.7c0.1,0.4,0.2,0.9,0.2,1.4c0,0,0,0.1,0,0.1c0.1,2.6-1.4,5.8-2.8,8.2c-0.2,0.4-0.5,0.8-0.7,1.1
				c0.3-0.4,0.5-0.8,0.7-1.1c1.4-2.4,2.8-5.5,2.8-8.1c0,0,0,0,0-0.1C46.1-44.7,46-45.2,45.9-45.7z"/>
			<path d="M38.6-29.7L38.6-29.7C38.6-29.7,38.7-29.7,38.6-29.7z"/>
			<path d="M38.6-29.7C38.6-29.7,38.6-29.7,38.6-29.7c0.6-0.4,2.4-2.5,4-5.1C40.8-32.1,38.3-29.7,38.6-29.7z"/>
			<path d="M40.3-26.1C40.3-26.1,40.4-26.1,40.3-26.1c0.3-0.2,0.7-0.6,1.2-1.3c0-0.1-0.1-0.1-0.1-0.2C40.7-26.7,40.2-26.1,40.3-26.1
				z"/>
			<path d="M44.3-31.2c-0.9,1.3-1.9,2.6-2.7,3.5c0,0.1,0.1,0.1,0.1,0.2C42.5-28.5,43.4-29.8,44.3-31.2z"/>
			<path d="M47.6-42.1L47.6-42.1c0.8,2.9-1,6.8-2.6,9.7c-0.2,0.4-0.5,0.8-0.7,1.2c0.3-0.4,0.5-0.8,0.7-1.2
				C46.7-35.2,48.5-39.2,47.6-42.1z"/>
			<path d="M40.3-26.1L40.3-26.1C40.3-26.1,40.4-26.1,40.3-26.1z"/>
			<path d="M43.2-46.8c0.3,0.2,0.6,0.5,0.9,0.6c0,0,0,0,0.1,0C43.9-46.3,43.6-46.5,43.2-46.8C43.3-46.8,43.2-46.8,43.2-46.8z"/>
			<path d="M44.7-45.8L44.7-45.8c-0.1-0.1-0.3-0.2-0.4-0.3c0,0-0.1,0-0.1,0C44.4-46,44.5-45.9,44.7-45.8z"/>
			<path d="M38.9-54c0,0.1,0.1,0.2,0.1,0.3c0,0,0,0.1,0,0.1c0.9,2.4,2.3,5.1,4.1,6.7c0,0,0,0,0,0c-1.9-1.6-3.3-4.4-4.2-6.8
				c0,0,0-0.1,0-0.1C39-53.8,38.9-53.9,38.9-54c-0.1-0.4-0.3-0.8-0.4-1.2h0c0,0,0,0,0,0C38.6-54.7,38.7-54.3,38.9-54z"/>
			<path d="M39.8-54.1c1,2.6,2.5,5.7,4.5,7.3c0,0,0,0,0.1,0C42.3-48.3,40.8-51.5,39.8-54.1c-0.1-0.4-0.2-0.7-0.3-1.1h0c0,0,0,0,0,0
				C39.6-54.8,39.7-54.4,39.8-54.1z"/>
			<path d="M45.7-45.9L45.7-45.9c-0.4-0.2-0.8-0.5-1.2-0.8c0,0-0.1,0-0.1,0C44.8-46.4,45.2-46.1,45.7-45.9z"/>
			<path d="M29-39.3L29-39.3C29.1-39.3,29-39.3,29-39.3z"/>
			<path d="M43.2-46.8C43.2-46.8,43.2-46.8,43.2-46.8c-2.6,0.1-5.6,1.5-7.9,2.8c-0.4,0.2-0.8,0.5-1.1,0.7c0.4-0.2,0.8-0.5,1.1-0.7
				C37.6-45.3,40.6-46.7,43.2-46.8C43.2-46.8,43.3-46.8,43.2-46.8c0.4,0,0.8,0.1,1.2,0.1c0,0,0.1,0,0.1,0c0.2,0,0.3,0.1,0.5,0.1l0,0
				c-0.2-0.1-0.4-0.1-0.6-0.1c0,0,0,0-0.1,0C44-46.8,43.6-46.8,43.2-46.8z"/>
			<path d="M29.1-39.4C29.1-39.3,29.1-39.3,29.1-39.4c0,0.4,2.4-2.1,5.1-3.9C31.5-41.6,29.5-39.9,29.1-39.4z"/>
			<path d="M29.8-38.7C29.7-38.6,29.7-38.6,29.8-38.7c0,0.4,2.4-2.1,5.1-3.9C32.2-40.9,30.1-39.2,29.8-38.7z"/>
			<path d="M29.7-38.6L29.7-38.6C29.7-38.7,29.7-38.6,29.7-38.6z"/>
			<path d="M36-43.3c-0.4,0.2-0.8,0.5-1.1,0.7C35.2-42.8,35.6-43.1,36-43.3c2.4-1.4,5.6-2.8,8.2-2.8c0,0,0.1,0,0.1,0
				c0.5,0,0.9,0.1,1.4,0.2l0,0c-0.5-0.1-1-0.2-1.5-0.2c0,0,0,0-0.1,0C41.5-46.2,38.3-44.7,36-43.3z"/>
			<path d="M31.2-44.3c-1.5,0.9-2.7,1.9-3.7,2.6c0.1,0,0.1,0.1,0.2,0.1C28.7-42.4,29.9-43.4,31.2-44.3z"/>
			<path d="M26.1-40.3L26.1-40.3C26.1-40.4,26.1-40.3,26.1-40.3z"/>
			<path d="M26.2-40.4C26.1-40.4,26.1-40.3,26.2-40.4c0,0.2,0.5-0.3,1.4-1c-0.1,0-0.1-0.1-0.2-0.1C26.8-41,26.3-40.6,26.2-40.4z"/>
			<path d="M42-47.6L42-47.6c-2.8-0.9-6.8,0.9-9.7,2.5c-0.4,0.2-0.8,0.5-1.2,0.7c0.4-0.2,0.8-0.5,1.2-0.7
				C35.2-46.7,39.2-48.4,42-47.6z"/>
			<path d="M11.9-46.8c-0.3,0.3-0.6,0.5-0.9,0.7c0,0,0,0,0.1,0C11.3-46.3,11.6-46.5,11.9-46.8C11.9-46.8,11.9-46.8,11.9-46.8z"/>
			<path d="M10.4-45.9L10.4-45.9c0.2,0,0.4-0.1,0.5-0.2c0,0-0.1,0-0.1,0C10.7-46,10.6-45.9,10.4-45.9z"/>
			<path d="M16.1-53.7C16.1-53.6,16.1-53.6,16.1-53.7c-1,2.5-2.4,5.3-4.2,6.9c0,0,0,0,0,0c1.8-1.6,3.2-4.3,4.1-6.7
				C16.1-53.6,16.1-53.6,16.1-53.7c0.1-0.1,0.1-0.2,0.1-0.3c0.1-0.4,0.3-0.8,0.4-1.2c0,0,0,0,0,0h0c-0.1,0.4-0.3,0.8-0.4,1.1
				C16.2-53.9,16.1-53.8,16.1-53.7z"/>
			<path d="M10.7-46.7C10.7-46.7,10.8-46.7,10.7-46.7c2.1-1.7,3.6-4.8,4.6-7.3c0.1-0.3,0.2-0.7,0.4-1.1c0,0,0,0,0,0h0
				c-0.1,0.3-0.2,0.7-0.4,1C14.3-51.5,12.8-48.3,10.7-46.7z"/>
			<path d="M9.4-45.9L9.4-45.9c0.5-0.2,0.9-0.4,1.3-0.7c0,0-0.1,0-0.1,0C10.3-46.4,9.9-46.1,9.4-45.9z"/>
			<path d="M26.1-39.3C26.1-39.3,26.1-39.3,26.1-39.3c-0.4-0.6-2.5-2.3-5.1-4C23.7-41.4,26.1-39,26.1-39.3z"/>
			<path d="M26.1-39.3L26.1-39.3C26.1-39.3,26.1-39.3,26.1-39.3z"/>
			<path d="M10.8-46.7C10.8-46.7,10.7-46.7,10.8-46.7c-0.3,0-0.4,0.1-0.6,0.1l0,0c0.2,0,0.3-0.1,0.5-0.1
				C10.7-46.7,10.7-46.7,10.8-46.7c0.3,0,0.7,0,1.1,0c0,0,0,0,0,0c2.6,0,5.6,1.5,7.9,2.8c0.4,0.2,0.8,0.5,1.1,0.7
				c-0.4-0.3-0.8-0.5-1.1-0.7c-2.3-1.3-5.3-2.7-7.9-2.8c0,0,0,0,0,0C11.5-46.8,11.1-46.8,10.8-46.7z"/>
			<path d="M25.4-38.6L25.4-38.6C25.4-38.6,25.4-38.7,25.4-38.6z"/>
			<path d="M25.4-38.6C25.4-38.6,25.4-38.6,25.4-38.6c-0.4-0.6-2.5-2.4-5.1-4C23-40.8,25.4-38.3,25.4-38.6z"/>
			<path d="M9.5-45.9L9.5-45.9c0.4-0.1,0.9-0.2,1.4-0.2c0,0,0.1,0,0.1,0c2.6-0.1,5.8,1.4,8.2,2.8c0.4,0.2,0.8,0.5,1.1,0.7
				c-0.4-0.3-0.8-0.5-1.1-0.7c-2.4-1.4-5.5-2.8-8.1-2.8c0,0,0,0-0.1,0C10.4-46.1,9.9-46,9.5-45.9z"/>
			<path d="M29-40.3L29-40.3C29-40.3,29-40.4,29-40.3z"/>
			<path d="M13.1-47.6L13.1-47.6c2.9-0.8,6.8,1,9.7,2.6c0.4,0.2,0.8,0.5,1.2,0.7c-0.4-0.3-0.8-0.5-1.2-0.7
				C19.9-46.7,15.9-48.5,13.1-47.6z"/>
			<path d="M27.6-41.4c0.9,0.8,1.4,1.2,1.4,1.1c0,0,0,0,0-0.1c-0.1-0.2-0.6-0.6-1.2-1.2c-0.1,0-0.1-0.1-0.2-0.1
				c-0.9-0.7-2.2-1.7-3.7-2.6c1.3,0.9,2.6,1.9,3.5,2.7C27.5-41.5,27.5-41.5,27.6-41.4z"/>
			<path d="M1.6-39.1C1.6-39.1,1.6-39.1,1.6-39.1C4-40,6.7-41.3,8.3-43.2c0,0,0,0,0,0C6.7-41.4,4-40,1.6-39.1z"/>
			<path d="M1.2-38.9c0.1,0,0.2-0.1,0.3-0.1c0,0,0,0,0,0C1.4-39,1.2-38.9,1.2-38.9c-0.4,0.1-0.8,0.3-1.2,0.4c0,0,0,0,0,0
				C0.4-38.6,0.8-38.7,1.2-38.9z"/>
			<path d="M8.4-43.2c0.2-0.3,0.5-0.6,0.6-0.9c0,0,0,0,0-0.1C8.8-43.9,8.6-43.6,8.4-43.2C8.4-43.3,8.4-43.2,8.4-43.2z"/>
			<path d="M9.3-44.7L9.3-44.7c-0.1,0.1-0.2,0.3-0.3,0.4c0,0,0,0.1,0,0.1C9.1-44.4,9.2-44.5,9.3-44.7z"/>
			<path d="M9.2-45.7L9.2-45.7c-0.2,0.4-0.5,0.8-0.7,1.2c0,0,0,0.1,0,0.1C8.8-44.8,9-45.2,9.2-45.7z"/>
			<path d="M1.1-39.8c2.6-1,5.7-2.5,7.3-4.5c0,0,0,0,0-0.1C6.8-42.3,3.6-40.8,1.1-39.8c-0.4,0.1-0.7,0.2-1.1,0.3c0,0,0,0,0,0
				C0.4-39.6,0.7-39.7,1.1-39.8z"/>
			<path d="M8.3-43.2C8.3-43.2,8.3-43.2,8.3-43.2c0.1,2.6,1.5,5.6,2.8,7.9c0.2,0.4,0.5,0.8,0.7,1.1c-0.2-0.4-0.5-0.8-0.7-1.1
				C9.8-37.6,8.4-40.6,8.3-43.2C8.4-43.2,8.4-43.3,8.3-43.2c0-0.4,0.1-0.8,0.1-1.2c0,0,0-0.1,0-0.1c0-0.2,0.1-0.3,0.1-0.5l0,0
				c-0.1,0.2-0.1,0.4-0.1,0.6c0,0,0,0,0,0.1C8.4-44,8.3-43.6,8.3-43.2z"/>
			<path d="M15.9-29L15.9-29C15.8-29.1,15.8-29,15.9-29z"/>
			<path d="M15.8-29.1C15.8-29.1,15.8-29.1,15.8-29.1c0.4,0-2.1-2.4-3.9-5.1C13.5-31.5,15.3-29.5,15.8-29.1z"/>
			<path d="M16.4-29.8C16.5-29.7,16.5-29.7,16.4-29.8c0.4,0-2.1-2.4-3.9-5.1C14.2-32.2,15.9-30.1,16.4-29.8z"/>
			<path d="M16.5-29.7L16.5-29.7C16.5-29.7,16.5-29.7,16.5-29.7z"/>
			<path d="M11.8-36c0.2,0.4,0.5,0.8,0.7,1.1C12.3-35.2,12.1-35.6,11.8-36C10.5-38.4,9-41.5,9-44.2c0,0,0-0.1,0-0.1
				c0-0.5,0.1-0.9,0.2-1.4l0,0c-0.1,0.5-0.2,1-0.2,1.5c0,0,0,0,0,0.1C9-41.5,10.4-38.3,11.8-36z"/>
			<path d="M14.7-26.2C14.8-26.1,14.8-26.1,14.7-26.2c0.2,0-0.3-0.5-1-1.4c0,0.1-0.1,0.1-0.1,0.2C14.1-26.8,14.5-26.3,14.7-26.2z"/>
			<path d="M7.5-42L7.5-42c-0.9,2.8,0.9,6.8,2.5,9.7c0.2,0.4,0.5,0.8,0.7,1.2c-0.2-0.4-0.5-0.8-0.7-1.2C8.5-35.2,6.7-39.2,7.5-42z"
				/>
			<path d="M10.8-31.2c0.9,1.5,1.9,2.7,2.6,3.6c0-0.1,0.1-0.1,0.1-0.2C12.8-28.7,11.7-29.9,10.8-31.2z"/>
			<path d="M14.8-26.1L14.8-26.1C14.7-26.1,14.8-26.1,14.8-26.1z"/>
			<path d="M9.3-10.4L9.3-10.4c0-0.2-0.1-0.4-0.2-0.5c0,0,0,0.1,0,0.1C9.1-10.7,9.2-10.6,9.3-10.4z"/>
			<path d="M1.5-16.1C1.5-16.1,1.5-16.1,1.5-16.1c-0.1-0.1-0.2-0.1-0.3-0.1c-0.4-0.1-0.8-0.3-1.2-0.4c0,0,0,0,0,0
				c0.4,0.1,0.8,0.3,1.1,0.4C1.2-16.2,1.4-16.1,1.5-16.1z"/>
			<path d="M8.3-11.9C8.3-11.9,8.3-11.9,8.3-11.9c-1.6-1.9-4.3-3.3-6.7-4.2c0,0,0,0,0,0C4-15.1,6.7-13.8,8.3-11.9z"/>
			<path d="M8.4-11.9c0.3,0.3,0.5,0.6,0.7,0.9c0,0,0,0,0-0.1C8.8-11.3,8.6-11.6,8.4-11.9C8.4-11.9,8.4-11.9,8.4-11.9z"/>
			<path d="M9.2-9.4L9.2-9.4C9-9.9,8.8-10.3,8.5-10.7c0,0,0,0.1,0,0.1C8.8-10.3,9-9.9,9.2-9.4z"/>
			<path d="M8.4-10.7C8.4-10.7,8.4-10.8,8.4-10.7c-1.7-2.1-4.8-3.6-7.3-4.6c-0.3-0.1-0.7-0.2-1.1-0.4c0,0,0,0,0,0
				c0.3,0.1,0.7,0.2,1,0.4C3.6-14.3,6.8-12.8,8.4-10.7z"/>
			<path d="M15.9-26.1C15.8-26.1,15.8-26.1,15.9-26.1c-0.6,0.4-2.4,2.5-4,5.1C13.7-23.7,16.1-26.1,15.9-26.1z"/>
			<path d="M15.9-26.1L15.9-26.1C15.8-26.1,15.8-26.1,15.9-26.1z"/>
			<path d="M8.4-10.8C8.4-10.8,8.4-10.7,8.4-10.8c0,0.3,0.1,0.4,0.1,0.6l0,0c0-0.2-0.1-0.3-0.1-0.5C8.5-10.7,8.5-10.7,8.4-10.8
				c0-0.3,0-0.7,0-1.1c0,0,0,0,0,0c0-2.6,1.5-5.6,2.8-7.9c0.2-0.4,0.5-0.8,0.7-1.1c-0.3,0.4-0.5,0.8-0.7,1.1
				c-1.3,2.3-2.7,5.3-2.8,7.9c0,0,0,0,0,0C8.3-11.5,8.4-11.1,8.4-10.8z"/>
			<path d="M16.5-25.4L16.5-25.4C16.5-25.4,16.5-25.4,16.5-25.4z"/>
			<path d="M9.2-9.5L9.2-9.5c-0.1-0.4-0.2-0.9-0.2-1.4c0,0,0-0.1,0-0.1c-0.1-2.6,1.4-5.8,2.8-8.2c0.2-0.4,0.5-0.8,0.7-1.1
				c-0.3,0.4-0.5,0.8-0.7,1.1C10.4-16.8,9-13.6,9-11c0,0,0,0,0,0.1C9-10.4,9.1-9.9,9.2-9.5z"/>
			<path d="M16.5-25.4C16.5-25.4,16.5-25.4,16.5-25.4c-0.6,0.4-2.4,2.5-4,5.1C14.4-23,16.8-25.4,16.5-25.4z"/>
			<path d="M14.8-29L14.8-29C14.8-29,14.7-29,14.8-29z"/>
			<path d="M14.8-29C14.8-29,14.8-29,14.8-29c-0.3,0.2-0.7,0.6-1.2,1.3c0,0.1-0.1,0.1-0.1,0.2c-0.7,0.9-1.7,2.2-2.6,3.6
				c0.9-1.3,1.9-2.6,2.7-3.5c0-0.1,0.1-0.1,0.1-0.2C14.4-28.4,14.9-29,14.8-29z"/>
			<path d="M7.5-13.1L7.5-13.1c-0.8-2.9,1-6.8,2.6-9.7c0.2-0.4,0.5-0.8,0.7-1.2c-0.3,0.4-0.5,0.8-0.7,1.2
				C8.4-19.9,6.6-15.9,7.5-13.1z"/>
			<path d="M16.2-1.2c0-0.1-0.1-0.2-0.1-0.3c0,0,0,0,0,0C16.1-1.4,16.2-1.2,16.2-1.2c0.1,0.4,0.3,0.8,0.4,1.2c0,0,0,0,0,0
				C16.5-0.4,16.4-0.8,16.2-1.2z"/>
			<path d="M16.1-1.6C16.1-1.6,16.1-1.6,16.1-1.6c-0.9-2.4-2.3-5.2-4.1-6.8c0,0,0,0,0,0C13.8-6.7,15.1-4,16.1-1.6z"/>
			<path d="M10.4-9.3L10.4-9.3c0.1,0.1,0.3,0.2,0.4,0.3c0,0,0.1,0,0.1,0C10.8-9.1,10.6-9.2,10.4-9.3z"/>
			<path d="M11.9-8.4C11.6-8.6,11.3-8.8,11-9c0,0,0,0-0.1,0C11.2-8.8,11.6-8.6,11.9-8.4C11.9-8.4,11.9-8.4,11.9-8.4z"/>
			<path d="M15.3-1.1c-1-2.6-2.5-5.7-4.5-7.3c0,0,0,0-0.1,0C12.8-6.8,14.3-3.6,15.3-1.1c0.1,0.4,0.2,0.7,0.3,1.1c0,0,0,0,0,0
				C15.5-0.4,15.4-0.7,15.3-1.1z"/>
			<path d="M9.5-9.2L9.5-9.2c0.4,0.2,0.8,0.5,1.2,0.7c0,0,0.1,0,0.1,0C10.3-8.8,9.9-9,9.5-9.2z"/>
			<path d="M26-15.8C26.1-15.8,26.1-15.8,26-15.8c0-0.4-2.4,2.1-5.1,3.9C23.6-13.5,25.7-15.3,26-15.8z"/>
			<path d="M11.9-8.3C11.9-8.3,11.9-8.3,11.9-8.3c2.6-0.1,5.6-1.5,7.9-2.8c0.4-0.2,0.8-0.5,1.1-0.7c-0.4,0.2-0.8,0.5-1.1,0.7
				C17.5-9.8,14.5-8.4,11.9-8.3C11.9-8.4,11.9-8.4,11.9-8.3c-0.4,0-0.8-0.1-1.2-0.1c0,0-0.1,0-0.1,0c-0.2,0-0.3-0.1-0.5-0.1l0,0
				c0.2,0.1,0.4,0.1,0.6,0.1c0,0,0,0,0.1,0C11.1-8.4,11.5-8.3,11.9-8.3z"/>
			<path d="M26.1-15.9L26.1-15.9C26.1-15.8,26.1-15.8,26.1-15.9z"/>
			<path d="M19.1-11.8c0.4-0.2,0.8-0.5,1.1-0.7C19.9-12.3,19.5-12.1,19.1-11.8C16.8-10.5,13.6-9,10.9-9c0,0-0.1,0-0.1,0
				c-0.5,0-0.9-0.1-1.4-0.2l0,0c0.5,0.1,1,0.2,1.5,0.2c0,0,0,0,0.1,0C13.6-9,16.8-10.4,19.1-11.8z"/>
			<path d="M25.3-16.4C25.4-16.5,25.4-16.5,25.3-16.4c0-0.4-2.4,2.1-5.1,3.9C22.9-14.2,25-15.9,25.3-16.4z"/>
			<path d="M25.4-16.5L25.4-16.5C25.4-16.5,25.4-16.5,25.4-16.5z"/>
			<path d="M29-14.7C29-14.8,29-14.8,29-14.7c0-0.2-0.5,0.3-1.4,1c0.1,0,0.1,0.1,0.2,0.1C28.4-14.1,28.8-14.5,29-14.7z"/>
			<path d="M13.1-7.5L13.1-7.5c2.8,0.9,6.8-0.9,9.7-2.5c0.4-0.2,0.8-0.5,1.2-0.7c-0.4,0.2-0.8,0.5-1.2,0.7
				C19.9-8.5,15.9-6.7,13.1-7.5z"/>
			<path d="M27.4-13.6c-0.9,0.8-2.2,1.8-3.5,2.7c1.5-0.9,2.7-1.9,3.6-2.6C27.5-13.5,27.5-13.5,27.4-13.6z"/>
			<path d="M29-14.8L29-14.8C29-14.7,29-14.8,29-14.8z"/>
			<path d="M43.3-8.4c0.3-0.3,0.6-0.5,0.9-0.7c0,0,0,0-0.1,0C43.8-8.8,43.5-8.6,43.3-8.4C43.2-8.4,43.3-8.4,43.3-8.4z"/>
			<path d="M39-1.5C39-1.5,39-1.5,39-1.5c-0.1,0.1-0.1,0.2-0.1,0.3c-0.1,0.4-0.3,0.8-0.4,1.2c0,0,0,0,0,0c0.1-0.4,0.3-0.8,0.4-1.1
				C38.9-1.2,39-1.4,39-1.5z"/>
			<path d="M43.2-8.3C43.2-8.3,43.2-8.3,43.2-8.3C41.3-6.7,40-4,39-1.6c0,0,0,0,0,0C40-4,41.4-6.7,43.2-8.3z"/>
			<path d="M44.7-9.3L44.7-9.3c-0.2,0-0.4,0.1-0.5,0.2c0,0,0.1,0,0.1,0C44.4-9.1,44.6-9.2,44.7-9.3z"/>
			<path d="M44.4-8.4C44.4-8.4,44.4-8.4,44.4-8.4c-2.1,1.7-3.6,4.8-4.6,7.3c-0.1,0.3-0.2,0.7-0.4,1.1c0,0,0,0,0,0
				c0.1-0.3,0.2-0.7,0.4-1C40.8-3.6,42.3-6.8,44.4-8.4z"/>
			<path d="M45.7-9.2L45.7-9.2c-0.5,0.2-0.9,0.4-1.3,0.7c0,0,0.1,0,0.1,0C44.9-8.8,45.3-9,45.7-9.2z"/>
			<path d="M29.1-15.9C29.1-15.8,29.1-15.8,29.1-15.9c0.4,0.6,2.5,2.4,5.1,4C31.5-13.7,29.1-16.1,29.1-15.9z"/>
			<path d="M29.1-15.9L29.1-15.9C29-15.8,29.1-15.8,29.1-15.9z"/>
			<path d="M44.3-8.4C44.4-8.4,44.4-8.4,44.3-8.4c0.3,0,0.4-0.1,0.6-0.1l0,0c-0.2,0-0.3,0.1-0.5,0.1C44.5-8.5,44.4-8.5,44.3-8.4
				c-0.3,0-0.7,0.1-1.1,0c0,0,0,0,0,0c-2.6,0-5.6-1.5-7.9-2.8c-0.4-0.2-0.8-0.5-1.1-0.7c0.4,0.3,0.8,0.5,1.1,0.7
				c2.3,1.3,5.3,2.7,7.9,2.8c0,0,0,0,0,0C43.6-8.3,44-8.4,44.3-8.4z"/>
			<path d="M45.7-9.2L45.7-9.2c-0.4,0.1-0.9,0.2-1.4,0.2c0,0-0.1,0-0.1,0c-2.6,0.1-5.8-1.4-8.2-2.8c-0.4-0.2-0.8-0.5-1.1-0.7
				c0.4,0.3,0.8,0.5,1.1,0.7c2.4,1.4,5.5,2.8,8.1,2.8c0,0,0,0,0.1,0C44.7-9,45.2-9.1,45.7-9.2z"/>
			<path d="M29.7-16.5L29.7-16.5C29.7-16.5,29.7-16.5,29.7-16.5z"/>
			<path d="M29.7-16.5C29.7-16.5,29.7-16.5,29.7-16.5c0.4,0.6,2.5,2.4,5.1,4C32.1-14.4,29.7-16.8,29.7-16.5z"/>
			<path d="M26.1-14.8L26.1-14.8C26.1-14.8,26.1-14.7,26.1-14.8z"/>
			<path d="M42.1-7.5L42.1-7.5c-2.9,0.8-6.8-1-9.7-2.6c-0.4-0.2-0.8-0.5-1.2-0.7c0.4,0.3,0.8,0.5,1.2,0.7
				C35.2-8.4,39.2-6.6,42.1-7.5z"/>
			<path d="M31.2-10.8c-1.3-0.9-2.6-1.9-3.5-2.7c-0.1,0-0.1-0.1-0.2-0.1c-0.9-0.8-1.4-1.2-1.4-1.1c0,0,0,0,0,0.1
				c0.1,0.2,0.6,0.6,1.2,1.2c0.1,0,0.1,0.1,0.2,0.1C28.5-12.7,29.8-11.7,31.2-10.8z"/>
			<path d="M45.8-10.4L45.8-10.4c0.1-0.1,0.2-0.3,0.3-0.4c0,0,0-0.1,0-0.1C46-10.8,45.9-10.6,45.8-10.4z"/>
			<path d="M54-16.2c-0.1,0-0.2,0.1-0.3,0.1c0,0-0.1,0-0.1,0c-2.4,0.9-5.1,2.3-6.7,4.1c0,0,0,0,0,0c1.6-1.9,4.4-3.3,6.8-4.2
				c0,0,0.1,0,0.1,0C53.8-16.1,53.9-16.2,54-16.2c0.4-0.1,0.8-0.3,1.2-0.4v0c0,0,0,0,0,0C54.7-16.5,54.3-16.4,54-16.2z"/>
			<path d="M46.8-11.9c-0.2,0.3-0.5,0.6-0.6,0.9c0,0,0,0,0,0.1C46.3-11.2,46.5-11.6,46.8-11.9C46.8-11.9,46.8-11.9,46.8-11.9z"/>
			<path d="M54.1-15.3c-2.6,1-5.7,2.5-7.3,4.5c0,0,0,0,0,0.1C48.3-12.8,51.5-14.3,54.1-15.3c0.4-0.1,0.7-0.2,1.1-0.3v0c0,0,0,0,0,0
				C54.8-15.5,54.4-15.4,54.1-15.3z"/>
			<path d="M45.9-9.5L45.9-9.5c0.2-0.4,0.5-0.8,0.8-1.2c0,0,0-0.1,0-0.1C46.4-10.3,46.1-9.9,45.9-9.5z"/>
			<path d="M46.8-11.9C46.8-11.9,46.8-11.9,46.8-11.9c-0.1-2.6-1.5-5.6-2.8-7.9c-0.2-0.4-0.5-0.8-0.7-1.1c0.2,0.4,0.5,0.8,0.7,1.1
				C45.3-17.5,46.7-14.5,46.8-11.9C46.8-11.9,46.8-11.9,46.8-11.9c0,0.4-0.1,0.8-0.1,1.2c0,0,0,0.1,0,0.1c0,0.2-0.1,0.3-0.1,0.5l0,0
				c0.1-0.2,0.1-0.4,0.1-0.6c0,0,0,0,0-0.1C46.8-11.1,46.8-11.5,46.8-11.9z"/>
			<path d="M39.3-26.1L39.3-26.1C39.3-26.1,39.3-26.1,39.3-26.1z"/>
			<path d="M39.4-26C39.3-26.1,39.3-26.1,39.4-26c-0.4,0,2.1,2.4,3.9,5.1C41.6-23.6,39.9-25.7,39.4-26z"/>
			<path d="M38.6-25.4L38.6-25.4C38.7-25.4,38.6-25.4,38.6-25.4z"/>
			<path d="M43.3-19.1c-0.2-0.4-0.5-0.8-0.7-1.1C42.8-19.9,43.1-19.5,43.3-19.1c1.4,2.4,2.8,5.6,2.8,8.2c0,0,0,0.1,0,0.1
				c0,0.5-0.1,0.9-0.2,1.4l0,0c0.1-0.5,0.2-1,0.2-1.5c0,0,0,0,0-0.1C46.2-13.6,44.7-16.8,43.3-19.1z"/>
			<path d="M38.7-25.3C38.6-25.4,38.6-25.4,38.7-25.3c-0.4,0,2.1,2.4,3.9,5.1C40.9-22.9,39.2-25,38.7-25.3z"/>
			<path d="M40.3-29L40.3-29C40.4-29,40.3-29,40.3-29z"/>
			<path d="M47.6-13.1L47.6-13.1c0.9-2.8-0.9-6.8-2.5-9.7c-0.2-0.4-0.5-0.8-0.7-1.2c0.2,0.4,0.5,0.8,0.7,1.2
				C46.7-19.9,48.4-15.9,47.6-13.1z"/>
			<path d="M44.3-23.9c-0.9-1.5-1.9-2.7-2.6-3.7c0-0.1-0.1-0.1-0.1-0.2c-0.5-0.6-1-1.1-1.2-1.2c-0.1,0-0.1,0-0.1,0
				c-0.1,0,0.4,0.6,1.1,1.4c0,0.1,0.1,0.1,0.1,0.2C42.4-26.5,43.4-25.2,44.3-23.9z"/>
			<path d="M6.4-37C6.4-37,6.5-37.1,6.4-37c0.3-0.2-3.1-0.5-6.2-1.4C3.1-37.5,5.7-37,6.4-37z"/>
			<path d="M0-38.5C0-38.5,0-38.5,0-38.5L0-38.5c0,0,0.1,0,0.2,0.1C0.1-38.5,0.1-38.5,0-38.5z"/>
			<path d="M6.5-37.1L6.5-37.1C6.4-37,6.5-37,6.5-37.1z"/>
			<path d="M0.3-39.4c0.4,0.1,0.8,0.3,1.2,0.4c0,0,0,0,0,0c2.4,0.7,4.4,1.1,5,1c0.1,0,0.1,0,0.1,0c0.2-0.2-2.3-0.4-4.9-1
				c0,0,0,0,0,0C1.1-39.2,0.7-39.3,0.3-39.4z"/>
			<path d="M0-39.5C0-39.5,0-39.5,0-39.5L0-39.5c0.1,0,0.2,0.1,0.2,0.1C0.2-39.4,0.1-39.5,0-39.5z"/>
			<path d="M6.6-38L6.6-38C6.5-38,6.5-38,6.6-38z"/>
			<path d="M6.5-18.1C6.5-18.1,6.4-18.1,6.5-18.1c-0.7-0.1-3.4,0.4-6.3,1.4C3.3-17.6,6.7-17.9,6.5-18.1z"/>
			<path d="M6.5-18.1L6.5-18.1C6.5-18.1,6.4-18.1,6.5-18.1z"/>
			<path d="M0.2-16.7c-0.1,0-0.1,0-0.2,0.1v0c0,0,0,0,0,0C0.1-16.6,0.1-16.7,0.2-16.7z"/>
			<path d="M0.3-15.7c0.4-0.1,0.9-0.2,1.3-0.3c0,0,0,0,0,0c2.7-0.6,5.1-0.9,4.9-1c0,0,0,0-0.1,0c-0.5,0-2.6,0.3-5,1c0,0,0,0,0,0
				C1.1-16,0.7-15.9,0.3-15.7z"/>
			<path d="M6.6-17.1L6.6-17.1C6.5-17.1,6.5-17.1,6.6-17.1z"/>
			<path d="M0.3-15.7c-0.1,0-0.2,0.1-0.3,0.1v0c0,0,0,0,0,0C0.1-15.7,0.2-15.7,0.3-15.7z"/>
			<path d="M38.4-0.2c0,0.1,0,0.1,0.1,0.2h0c0,0,0,0,0,0C38.5-0.1,38.5-0.1,38.4-0.2z"/>
			<path d="M37.1-6.5C37.1-6.5,37-6.4,37.1-6.5c-0.1,0.7,0.4,3.4,1.4,6.3C37.5-3.3,37.3-6.7,37.1-6.5z"/>
			<path d="M37.1-6.5L37.1-6.5C37-6.5,37-6.4,37.1-6.5z"/>
			<path d="M38-6.6L38-6.6C38-6.5,38-6.5,38-6.6z"/>
			<path d="M39.4-0.3c-0.1-0.4-0.2-0.9-0.3-1.3c0,0,0,0,0,0c-0.6-2.7-0.9-5.1-1-4.9c0,0,0,0,0,0.1c0,0.5,0.3,2.6,1,5c0,0,0,0,0,0
				C39.1-1.1,39.3-0.7,39.4-0.3z"/>
			<path d="M39.4-0.3c0,0.1,0.1,0.2,0.1,0.3h0c0,0,0,0,0,0C39.5-0.1,39.4-0.2,39.4-0.3z"/>
			<path d="M18.1-6.4C18.1-6.4,18.1-6.5,18.1-6.4c-0.2-0.3-0.5,3.1-1.4,6.2C17.6-3.1,18.1-5.7,18.1-6.4z"/>
			<path d="M18.1-6.5L18.1-6.5C18.1-6.4,18.1-6.5,18.1-6.5z"/>
			<path d="M16.6,0C16.6,0,16.6,0,16.6,0L16.6,0c0,0,0-0.1,0.1-0.2C16.7-0.1,16.6-0.1,16.6,0z"/>
			<path d="M15.6,0C15.6,0,15.6,0,15.6,0L15.6,0c0-0.1,0.1-0.2,0.1-0.2C15.7-0.2,15.7-0.1,15.6,0z"/>
			<path d="M17.1-6.6L17.1-6.6C17.1-6.5,17.1-6.5,17.1-6.6z"/>
			<path d="M15.7-0.3c0.1-0.4,0.3-0.8,0.4-1.2c0,0,0,0,0,0c0.7-2.4,1.1-4.4,1-5c0-0.1,0-0.1,0-0.1c-0.2-0.2-0.4,2.3-1,4.9
				c0,0,0,0,0,0C16-1.1,15.9-0.7,15.7-0.3z"/>
		</g>
	</g>
</pattern>
<g id="XMLID_1_">
	<g>
		<rect class="st1" width="120" height="144"/>
	</g>
	<g>
	</g>
</g>
<pattern  id="SVGID_1_" xlink:href="#New_Pattern_Swatch_21" patternTransform="matrix(1 0 0 1 -1 -1)">
</pattern>
<rect class="st2" width="120" height="144"/>
<rect x="90.5" y="5.6" class="st3" width="23" height="23"/>
<rect x="90.5" y="42.5" class="st3" width="23" height="23"/>
<rect x="90.5" y="66.5" class="st3" width="23" height="23"/>
<rect x="61.5" y="89.5" class="st3" width="23" height="23"/>
<rect x="6" y="89.5" class="st3" width="23" height="23"/>
<rect x="33.3" y="5.6" class="st3" width="23" height="23"/>
<rect x="33.3" y="32.3" class="st3" width="23" height="47.5"/>
<rect x="61.5" y="55" class="st3" width="23" height="23"/>
<rect x="61.5" y="31" class="st4" width="23" height="23"/>
<rect x="33.3" y="113.6" class="st3" width="23" height="23"/>
<rect x="33.3" y="89.5" class="st3" width="23" height="23"/>
<g class="st5">
	<g>
		<defs>
			<rect id="SVGID_2_" x="66.8" y="34.8" width="12.8" height="15.4"/>
		</defs>
		<clipPath id="SVGID_3_">
			<use xlink:href="#SVGID_2_"  style="overflow:visible;"/>
		</clipPath>
		<path class="st6" d="M79.5,37.4c0-0.2-0.1-0.4-0.4-0.4c-0.9-0.1-1.9-0.4-2.8-0.7c-0.9-0.3-1.9-0.8-3-1.4c-0.1-0.1-0.3-0.1-0.4,0
			c-1.1,0.6-2.1,1.1-3,1.4c-0.9,0.3-1.8,0.6-2.8,0.7c-0.2,0-0.3,0.2-0.4,0.4c-0.1,3.8,0.8,7,2.5,9.4c1,1.3,2.2,2.4,3.6,3.2
			c0.1,0.1,0.3,0.1,0.4,0c1.4-0.8,2.6-1.9,3.6-3.2C78.8,44.4,79.6,41.2,79.5,37.4L79.5,37.4z M76.3,46.3c-0.8,1.2-1.9,2.1-3.2,2.9
			c-1.3-0.8-2.3-1.7-3.2-2.9c-1.6-2.2-2.4-5.1-2.4-8.6c0.9-0.1,1.8-0.4,2.6-0.7c0.9-0.3,1.8-0.8,2.9-1.3c1,0.6,2,1,2.9,1.3
			c0.9,0.3,1.8,0.6,2.6,0.7C78.7,41.2,77.9,44.1,76.3,46.3L76.3,46.3z M76.3,46.3"/>
	</g>
</g>
<rect x="6" y="5.6" class="st3" width="23" height="71.6"/>
<g>
	<defs>
		<rect id="SVGID_4_" x="36.1" y="116.1" width="17.5" height="18"/>
	</defs>
	<clipPath id="SVGID_5_">
		<use xlink:href="#SVGID_4_"  style="overflow:visible;"/>
	</clipPath>
</g>
<g>
	<g>
		<defs>
			<rect id="SVGID_6_" x="72.1" y="120.2" width="15" height="16"/>
		</defs>
		<clipPath id="SVGID_7_">
			<use xlink:href="#SVGID_6_"  style="overflow:visible;"/>
		</clipPath>
	</g>
</g>
<path class="st7" d="M51.2,130.7c0.2-1.1,0.7-3.6-0.2-6.1c-0.2-0.7-0.3-3.5-0.2-4.3c0-0.3-0.1-0.5-0.5-0.5c-0.1,0-0.7,0-1.3,0
	c0-0.5,0-0.9,0-1.2c0-0.1,0-0.4-0.2-0.6c-0.1-0.2-0.3-0.2-0.6-0.2c-0.2,0-0.6,0-1,0c-0.6,0-1.3,0.1-1.6,0.1c0,0-0.1,0-0.1,0
	c0,0-0.1-0.1-0.1-0.1c-0.2-0.3-0.6-0.8-1.4-0.8c-0.1,0-0.1,0-0.2,0l0,0c-0.5,0-0.6,0.5-0.6,0.7c0,0.5,0,2.2,0,2.8
	c0,0.6-0.1,1.9-0.6,3.1c-0.5,1.4-1.3,2.1-2.4,2.2c-0.1,0-0.2,0-0.3,0c-0.7,0-1.1,0.1-1.9,0.3c-1.5,0.5-1.7,1.7-1.7,2.8l0,0l0,0.2
	l0,0.2l0,0c0,0.1,0,0.1,0,0.2c0,0.5,0.3,1.1,0.7,1.1c0,0,0.1,0,0.1,0c0.1,0,0.4,0.1,1,0.1c0,0.3,0,0.7,0,0.8c0,0.3,0.1,0.8,0.5,0.8
	c0.2,0,0.2,0.1,3.6,0.3c3.5,0.3,3.1,0.2,4,0.2c0.8,0,1.6-0.8,1.6-0.8v0.5c0,0.3,0.2,0.3,0.5,0.3c0.7,0,2.1,0,2.4,0
	c0.4,0,0.4-0.2,0.4-0.4C51.2,131.9,51.2,131.1,51.2,130.7L51.2,130.7z M37.3,129.9c-0.1,0-0.2-0.3-0.2-0.4c0-0.1,0-0.6,0-0.6
	c0-1.1,0.1-1.9,1.3-2.3c0.7-0.2,1.1-0.3,1.8-0.3c0.1,0,0.2,0,0.3,0c1.3-0.1,2.3-1,2.9-2.6c0.5-1.3,0.6-2.7,0.6-3.3
	c0-0.6,0-2.3,0-2.8c0-0.1,0-0.1,0.1-0.1l0,0c0.1,0,0.1,0,0.2,0c0.6,0,0.8,0.3,1,0.6c0.1,0.2,0.2,0.3,0.4,0.4c0,0,0.1,0,0.2,0
	c0.3,0,1,0,1.6-0.1c0.4,0,0.9,0,1,0c0.1,0,0.2,0,0.2,0c0,0,0,0,0,0.1c0,0.2,0,0.7,0,1.3c-0.5,0-1,0-1,0c-0.3,0-0.4-1.1-1.7-1
	c-0.1,0-0.3,0-0.3,0.4c0,1.1,0,2.8,0,2.8c-0.1,3.4-1.3,5.4-3.3,5.8c0,0,0,0,0,0c0,0-1.3,0.2-2.2,0.5c-0.7,0.2-1.1,0.6-1.3,1
	c-0.1,0.2-0.1,0.5-0.2,0.7c-0.6-0.1-0.9-0.1-1-0.1C37.4,129.9,37.3,129.9,37.3,129.9L37.3,129.9z M37.3,129.9"/>
<g class="st5">
	<path class="st8" d="M109.4,78.8c0-0.2-0.1-0.4-0.2-0.5c0.2-0.1,0.3-0.4,0.3-0.6c0-0.2-0.1-0.4-0.2-0.6c0.1-0.1,0.2-0.3,0.2-0.5
		c0-0.3-0.1-0.5-0.3-0.7c0.1-0.1,0.1-0.3,0.1-0.4c0-0.3-0.2-0.6-0.4-0.7c0-0.1,0.1-0.2,0.1-0.3c0-0.4-0.2-0.7-0.5-0.8
		c0-0.1,0-0.1,0-0.2c0-0.4-0.3-0.7-0.7-0.8c0,0,0-0.1,0-0.1c0-0.4-0.4-0.8-0.8-0.8c0-0.4-0.4-0.8-0.8-0.8c-0.2,0-0.3,0.1-0.5,0.1
		c-1-0.6-2.1-1-3.2-1v0c0-0.1-0.1-0.3-0.3-0.3c-0.1,0-0.3,0.1-0.3,0.3v0c-1.1,0-2.2,0.4-3.2,1c-0.1-0.1-0.3-0.1-0.5-0.1
		c-0.4,0-0.8,0.3-0.8,0.8c-0.4,0-0.8,0.4-0.8,0.8c0,0,0,0.1,0,0.1c-0.4,0.1-0.7,0.4-0.7,0.8c0,0.1,0,0.1,0,0.2
		c-0.3,0.1-0.5,0.4-0.5,0.8c0,0.1,0,0.2,0.1,0.3c-0.3,0.1-0.4,0.4-0.4,0.7c0,0.2,0,0.3,0.1,0.4c-0.2,0.1-0.3,0.4-0.3,0.7
		c0,0.2,0.1,0.4,0.2,0.5c-0.2,0.1-0.2,0.4-0.2,0.6c0,0.2,0.1,0.4,0.3,0.6c-0.1,0.1-0.2,0.3-0.2,0.5c0,0.3,0.1,0.5,0.3,0.6
		C95,79.6,95,79.8,95,80c0,0.4,0.3,0.8,0.6,0.9c-0.1,0.2-0.2,0.4-0.2,0.6c0,0.6,0.5,1.1,1.1,1.2c0,0.1-0.1,0.3-0.1,0.4
		c0,0.7,0.6,1.3,1.3,1.3c0.2,0,0.3,0,0.4-0.1c0,0.8,0.6,1.4,1.4,1.4c0.4,0,0.7-0.1,1-0.4c0.2,0.6,0.8,1,1.4,1s1.2-0.4,1.4-1
		c0.3,0.2,0.6,0.4,1,0.4c0.8,0,1.4-0.6,1.4-1.4c0.1,0,0.3,0.1,0.4,0.1c0.7,0,1.3-0.6,1.3-1.3c0-0.1,0-0.3-0.1-0.4
		c0.6,0,1.1-0.5,1.1-1.2c0-0.2-0.1-0.4-0.2-0.6c0.4-0.1,0.6-0.5,0.6-0.9c0-0.2-0.1-0.4-0.2-0.6C109.2,79.3,109.4,79,109.4,78.8
		L109.4,78.8z M108.6,79.1C108.5,79.1,108.5,79.1,108.6,79.1C108.5,79.1,108.5,79.1,108.6,79.1c-0.2-0.1-0.3-0.2-0.3-0.3
		c0-0.2,0.1-0.3,0.3-0.3c0.2,0,0.3,0.1,0.3,0.3C108.8,78.9,108.7,79.1,108.6,79.1L108.6,79.1z M107.3,80c0,0.1,0,0.2,0.1,0.4
		c-0.5,0.1-0.9,0.6-0.9,1.1c0,0.1,0,0.2,0,0.2c0,0-0.1,0-0.1,0c-0.7,0-1.3,0.5-1.3,1.2c-0.2-0.1-0.4-0.1-0.6-0.1
		c-0.6,0-1.1,0.4-1.3,0.9c-0.3-0.3-0.6-0.4-1.1-0.4c-0.4,0-0.8,0.2-1.1,0.4c-0.2-0.5-0.7-0.9-1.3-0.9c-0.2,0-0.4,0-0.6,0.1
		c0-0.7-0.6-1.2-1.3-1.2c0,0-0.1,0-0.1,0c0-0.1,0-0.1,0-0.2c0-0.6-0.4-1-0.9-1.1c0-0.1,0.1-0.2,0.1-0.4c0-0.4-0.2-0.7-0.6-0.9
		c0.1-0.1,0.1-0.2,0.1-0.4c0-0.2-0.1-0.4-0.3-0.6c0.1-0.1,0.2-0.3,0.2-0.5c0-0.2-0.1-0.4-0.2-0.5c0.2-0.1,0.2-0.4,0.2-0.6
		c0-0.2,0-0.3-0.1-0.4c0.2-0.1,0.3-0.4,0.3-0.7c0-0.1,0-0.2-0.1-0.3c0.3-0.1,0.4-0.4,0.4-0.7c0-0.1,0-0.1,0-0.2
		c0.3-0.1,0.5-0.4,0.5-0.8c0,0,0-0.1,0-0.1c0.4-0.1,0.6-0.4,0.7-0.7c0.4,0,0.8-0.4,0.8-0.8c0-0.1,0-0.2,0-0.2
		c0.9-0.6,1.9-0.9,2.9-0.9c0,0.1,0.1,0.2,0.3,0.2c0.1,0,0.2-0.1,0.3-0.2c1,0,2,0.4,2.9,0.9c0,0.1,0,0.2,0,0.2c0,0.4,0.4,0.8,0.8,0.8
		c0,0.4,0.3,0.7,0.7,0.7c0,0,0,0.1,0,0.1c0,0.4,0.2,0.7,0.5,0.8c0,0.1,0,0.1,0,0.2c0,0.3,0.2,0.6,0.4,0.7c0,0.1-0.1,0.2-0.1,0.3
		c0,0.3,0.1,0.5,0.3,0.7c-0.1,0.1-0.1,0.3-0.1,0.4c0,0.2,0.1,0.4,0.2,0.6c-0.1,0.1-0.2,0.3-0.2,0.5c0,0.2,0.1,0.4,0.2,0.5
		c-0.2,0.1-0.3,0.4-0.3,0.6c0,0.1,0,0.2,0.1,0.4C107.5,79.3,107.3,79.6,107.3,80L107.3,80z M95.7,79.1
		C95.7,79.1,95.7,79.1,95.7,79.1c-0.2,0-0.3-0.1-0.3-0.3c0-0.2,0.1-0.3,0.3-0.3s0.3,0.1,0.3,0.3C95.9,78.9,95.9,79,95.7,79.1
		C95.7,79.1,95.7,79.1,95.7,79.1L95.7,79.1z M96.2,75.5c0,0.2-0.1,0.3-0.3,0.3s-0.3-0.1-0.3-0.3c0-0.2,0.1-0.3,0.3-0.3
		S96.2,75.4,96.2,75.5L96.2,75.5z M95.6,76.3c0.2,0,0.3,0.1,0.3,0.3c0,0.2-0.1,0.3-0.3,0.3c-0.2,0-0.3-0.1-0.3-0.3
		C95.3,76.4,95.5,76.3,95.6,76.3L95.6,76.3z M95.6,77.4c0.2,0,0.3,0.1,0.3,0.3S95.7,78,95.6,78c-0.2,0-0.3-0.1-0.3-0.3
		S95.4,77.4,95.6,77.4L95.6,77.4z M108.6,78c-0.2,0-0.3-0.1-0.3-0.3s0.1-0.3,0.3-0.3c0.2,0,0.3,0.1,0.3,0.3S108.8,78,108.6,78
		L108.6,78z M108.3,76.6c0-0.2,0.1-0.3,0.3-0.3c0.2,0,0.3,0.1,0.3,0.3c0,0.2-0.1,0.3-0.3,0.3C108.4,76.9,108.3,76.8,108.3,76.6
		L108.3,76.6z M108.3,75.8c-0.2,0-0.3-0.1-0.3-0.3c0-0.2,0.1-0.3,0.3-0.3s0.3,0.1,0.3,0.3C108.6,75.7,108.5,75.8,108.3,75.8
		L108.3,75.8z M108,74.8c-0.2,0-0.3-0.1-0.3-0.3c0-0.2,0.1-0.3,0.3-0.3c0.2,0,0.3,0.1,0.3,0.3C108.3,74.7,108.1,74.8,108,74.8
		L108,74.8z M107.7,73.6c0,0.2-0.1,0.3-0.3,0.3c-0.2,0-0.3-0.1-0.3-0.3c0-0.2,0.1-0.3,0.3-0.3C107.6,73.3,107.7,73.4,107.7,73.6
		L107.7,73.6z M107.1,72.7c0,0.2-0.1,0.3-0.3,0.3c-0.2,0-0.3-0.1-0.3-0.3c0-0.2,0.1-0.3,0.3-0.3C106.9,72.4,107.1,72.5,107.1,72.7
		L107.1,72.7z M106.3,71.9c0,0.2-0.1,0.3-0.3,0.3s-0.3-0.1-0.3-0.3c0-0.2,0.1-0.3,0.3-0.3S106.3,71.8,106.3,71.9L106.3,71.9z
		 M98.2,71.6c0.2,0,0.3,0.1,0.3,0.3c0,0.2-0.1,0.3-0.3,0.3c-0.2,0-0.3-0.1-0.3-0.3C97.9,71.8,98,71.6,98.2,71.6L98.2,71.6z
		 M97.4,72.4c0.2,0,0.3,0.1,0.3,0.3c0,0.2-0.1,0.3-0.3,0.3c-0.2,0-0.3-0.1-0.3-0.3C97.1,72.5,97.3,72.4,97.4,72.4L97.4,72.4z
		 M96.8,73.3c0.2,0,0.3,0.1,0.3,0.3c0,0.2-0.1,0.3-0.3,0.3c-0.2,0-0.3-0.1-0.3-0.3C96.5,73.4,96.6,73.3,96.8,73.3L96.8,73.3z
		 M96.2,74.2c0.2,0,0.3,0.1,0.3,0.3c0,0.2-0.1,0.3-0.3,0.3c-0.2,0-0.3-0.1-0.3-0.3C95.9,74.4,96.1,74.2,96.2,74.2L96.2,74.2z
		 M95.8,79.6C95.8,79.6,95.8,79.6,95.8,79.6c0.1,0,0.1,0,0.1,0c0.3,0,0.5,0.2,0.5,0.5c0,0.2-0.1,0.3-0.2,0.4c0,0,0,0-0.1,0
		c-0.1,0-0.1,0-0.2,0c-0.3,0-0.5-0.2-0.5-0.5C95.5,79.8,95.6,79.6,95.8,79.6L95.8,79.6z M95.9,81.5c0-0.3,0.1-0.5,0.4-0.6
		c0,0,0,0,0,0c0.1,0,0.2,0,0.2,0c0.4,0,0.7,0.3,0.7,0.7c0,0.4-0.3,0.7-0.7,0.7C96.2,82.2,95.9,81.9,95.9,81.5L95.9,81.5z M97,83.1
		c0-0.4,0.4-0.8,0.8-0.8c0.4,0,0.8,0.4,0.8,0.8c0,0.4-0.4,0.8-0.8,0.8C97.4,83.9,97,83.5,97,83.1L97,83.1z M99.7,85.2
		c-0.5,0-0.9-0.4-0.9-0.9c0-0.5,0.4-0.9,0.9-0.9c0.5,0,0.9,0.4,0.9,0.9C100.6,84.8,100.2,85.2,99.7,85.2L99.7,85.2z M102.1,85.8
		c-0.5,0-1-0.4-1-1c0-0.5,0.4-1,1-1c0.5,0,1,0.4,1,1C103.1,85.3,102.6,85.8,102.1,85.8L102.1,85.8z M104.5,85.2
		c-0.5,0-0.9-0.4-0.9-0.9c0-0.5,0.4-0.9,0.9-0.9c0.5,0,0.9,0.4,0.9,0.9C105.4,84.8,105,85.2,104.5,85.2L104.5,85.2z M106.4,83.9
		c-0.4,0-0.8-0.4-0.8-0.8c0-0.4,0.4-0.8,0.8-0.8c0.4,0,0.8,0.4,0.8,0.8C107.2,83.5,106.8,83.9,106.4,83.9L106.4,83.9z M107.6,82.2
		c-0.4,0-0.7-0.3-0.7-0.7c0-0.4,0.3-0.7,0.7-0.7c0.1,0,0.2,0,0.2,0c0,0,0,0,0,0c0.2,0.1,0.4,0.3,0.4,0.6
		C108.3,81.9,108,82.2,107.6,82.2L107.6,82.2z M108.3,80.5c-0.1,0-0.1,0-0.2,0c0,0,0,0-0.1,0c-0.1-0.1-0.2-0.2-0.2-0.4
		c0-0.3,0.2-0.5,0.5-0.5c0,0,0.1,0,0.1,0c0,0,0,0,0,0c0.2,0.1,0.3,0.2,0.3,0.5C108.7,80.3,108.5,80.5,108.3,80.5L108.3,80.5z
		 M108.3,80.5"/>
</g>
<g class="st5">
	<path class="st8" d="M104.5,49.2l0.2-0.2l0.4-0.3c0.2-0.1,0.3-0.3,0.3-0.5v0c0-0.2-0.1-0.3-0.2-0.5l-0.1-0.2l-0.6-0.8
		c-0.1-0.2-0.4-0.3-0.6-0.3h-3.6c-0.2,0-0.5,0.1-0.6,0.3L99,47.5l-0.2,0.2c-0.1,0.1-0.2,0.3-0.2,0.4v0c0,0.2,0.1,0.4,0.3,0.5
		l0.3,0.3l0.2,0.2c-2.6,1-4.3,3.4-4.3,6.1c0,3.6,3,6.6,6.8,6.6c3.7,0,6.8-3,6.8-6.6C108.8,52.6,107.1,50.1,104.5,49.2L104.5,49.2z
		 M99.2,48.4c-0.1-0.1-0.1-0.1-0.1-0.2l0,0c0,0,0-0.1,0.1-0.2l0.2-0.2l0.6-0.8c0.1-0.1,0.1-0.1,0.2-0.1h3.6c0.1,0,0.2,0,0.2,0.1
		l0.6,0.9l0.2,0.2c0.1,0.1,0.1,0.1,0.1,0.2l0,0c0,0.1,0,0.2-0.1,0.2l-0.4,0.3l-0.3,0.3l-1.7,1.6c0,0-0.2,0-0.4,0s-0.3,0-0.4,0
		L99.9,49l-0.4-0.3L99.2,48.4z M102,61.4c-3.5,0-6.3-2.8-6.3-6.2c0-2.6,1.7-4.9,4.2-5.8l1.5,1.4c0,0,0.1,0.1,0.6,0.1
		c0.5,0,0.6-0.1,0.6-0.1l1.5-1.4c2.5,0.9,4.2,3.2,4.2,5.8C108.3,58.7,105.5,61.4,102,61.4L102,61.4z M102,61.4"/>
</g>
<g class="st5">
	<path class="st8" d="M73.3,74.1c-0.6,0-1-0.5-1-1v-0.3c-0.1,0-0.2,0-0.3-0.1L71.8,73c-0.2,0.4-0.5,0.6-1,0.6c-0.1,0-0.3,0-0.4-0.1
		c-0.3-0.1-0.5-0.3-0.6-0.6c-0.1-0.3-0.1-0.5,0-0.8L70,72c-0.1-0.1-0.2-0.1-0.3-0.2L69.5,72c-0.2,0.2-0.5,0.3-0.7,0.3
		c-0.3,0-0.5-0.1-0.7-0.3c-0.2-0.2-0.3-0.5-0.3-0.7c0-0.3,0.1-0.5,0.3-0.7l0.2-0.2c-0.1-0.1-0.1-0.2-0.2-0.3l-0.2,0.1
		c-0.1,0.1-0.3,0.1-0.4,0.1c-0.4,0-0.8-0.3-1-0.6c-0.2-0.5,0-1.1,0.6-1.4l0.2-0.1c0-0.1,0-0.2-0.1-0.3h-0.3c-0.6,0-1-0.5-1-1
		c0-0.6,0.5-1,1-1h0.3c0-0.1,0-0.2,0.1-0.4L67,65.2c-0.3-0.1-0.5-0.3-0.6-0.6c-0.1-0.3-0.1-0.5,0-0.8c0.2-0.4,0.5-0.6,1-0.6
		c0.1,0,0.3,0,0.4,0.1l0.2,0.1c0.1-0.1,0.1-0.2,0.2-0.3L68,62.9c-0.2-0.2-0.3-0.5-0.3-0.7c0-0.3,0.1-0.5,0.3-0.7
		c0.2-0.2,0.5-0.3,0.7-0.3c0.3,0,0.5,0.1,0.7,0.3l0.2,0.2c0.1-0.1,0.2-0.1,0.3-0.2l-0.1-0.2c-0.1-0.3-0.1-0.5,0-0.8
		c0.1-0.3,0.3-0.5,0.6-0.6c0.1-0.1,0.3-0.1,0.4-0.1c0.4,0,0.8,0.3,1,0.6l0.1,0.2c0.1,0,0.2,0,0.3-0.1v-0.3c0-0.6,0.5-1,1-1
		c0.6,0,1,0.5,1,1v0.3c0.1,0,0.3,0,0.4,0.1l0.1-0.3c0.2-0.4,0.5-0.6,1-0.6c0.1,0,0.3,0,0.4,0.1c0.5,0.2,0.8,0.8,0.6,1.4l-0.1,0.3
		c0.1,0.1,0.2,0.1,0.3,0.2l0.2-0.2c0.2-0.2,0.5-0.3,0.7-0.3c0.3,0,0.5,0.1,0.7,0.3c0.4,0.4,0.4,1.1,0,1.5l-0.2,0.2
		c0.1,0.1,0.1,0.2,0.2,0.3l0.3-0.1c0.1-0.1,0.3-0.1,0.4-0.1c0.4,0,0.8,0.3,1,0.6c0.2,0.5,0,1.1-0.6,1.4l-0.3,0.1
		c0,0.1,0,0.2,0.1,0.3h0.3c0.6,0,1,0.5,1,1c0,0.6-0.5,1-1,1h-0.3c0,0.1,0,0.2-0.1,0.4l0.3,0.1c0.3,0.1,0.5,0.3,0.6,0.6
		c0.1,0.3,0.1,0.5,0,0.8c-0.2,0.4-0.5,0.6-1,0.6c-0.1,0-0.3,0-0.4-0.1L78.6,70c-0.1,0.1-0.1,0.2-0.2,0.3l0.2,0.2
		c0.4,0.4,0.4,1.1,0,1.5c-0.2,0.2-0.5,0.3-0.7,0.3c-0.3,0-0.5-0.1-0.7-0.3l-0.2-0.2c-0.1,0.1-0.2,0.1-0.3,0.2l0.1,0.3
		c0.1,0.3,0.1,0.5,0,0.8c-0.1,0.3-0.3,0.5-0.6,0.6c-0.1,0.1-0.3,0.1-0.4,0.1c-0.4,0-0.8-0.3-1-0.6l-0.1-0.3c-0.1,0-0.2,0.1-0.4,0.1
		v0.3C74.3,73.7,73.9,74.1,73.3,74.1L73.3,74.1z M72.7,72.9v0.2c0,0.3,0.3,0.6,0.6,0.6c0.3,0,0.6-0.3,0.6-0.6v-0.2
		C73.5,72.9,73.1,72.9,72.7,72.9L72.7,72.9z M75.1,72.7l0.1,0.2c0.1,0.2,0.3,0.4,0.6,0.4c0.1,0,0.2,0,0.2,0c0.1-0.1,0.3-0.2,0.3-0.3
		c0.1-0.1,0.1-0.3,0-0.5l-0.1-0.2C75.9,72.4,75.5,72.5,75.1,72.7L75.1,72.7z M70.4,72.2l-0.1,0.2c-0.1,0.1-0.1,0.3,0,0.5
		c0.1,0.1,0.2,0.3,0.3,0.3c0.1,0,0.2,0,0.2,0c0.2,0,0.5-0.1,0.6-0.4l0.1-0.2C71.1,72.5,70.7,72.4,70.4,72.2L70.4,72.2z M72.7,72.5
		c0.4,0,0.8,0,1.2,0v-0.2c0-0.3-0.3-0.6-0.6-0.6c-0.3,0-0.6,0.3-0.6,0.6V72.5z M73.3,71.3c0.6,0,1,0.5,1,1v0.1c0.1,0,0.1,0,0.2,0
		l0-0.1c-0.1-0.3-0.1-0.5,0-0.8c0.1-0.3,0.3-0.5,0.6-0.6c0.1-0.1,0.3-0.1,0.4-0.1c0.4,0,0.8,0.3,1,0.6l0,0.1c0,0,0.1-0.1,0.1-0.1
		l-0.1-0.1c-0.2-0.2-0.3-0.5-0.3-0.7c0-0.3,0.1-0.5,0.3-0.7c0.2-0.2,0.5-0.3,0.7-0.3c0.3,0,0.5,0.1,0.7,0.3L78,70
		c0,0,0.1-0.1,0.1-0.1l-0.1,0c-0.3-0.1-0.5-0.3-0.6-0.6c-0.1-0.3-0.1-0.5,0-0.8c0.2-0.4,0.5-0.6,1-0.6c0.1,0,0.3,0,0.4,0.1l0.1,0
		c0-0.1,0-0.1,0-0.2h-0.1c-0.6,0-1-0.5-1-1c0-0.6,0.5-1,1-1H79c0,0,0-0.1,0-0.1l-0.1,0c-0.1,0.1-0.3,0.1-0.4,0.1
		c-0.4,0-0.8-0.3-1-0.6c-0.1-0.3-0.1-0.5,0-0.8c0.1-0.3,0.3-0.5,0.6-0.6l0.1,0c0-0.1-0.1-0.1-0.1-0.2L78,63.5
		c-0.2,0.2-0.5,0.3-0.7,0.3c-0.3,0-0.5-0.1-0.7-0.3c-0.2-0.2-0.3-0.5-0.3-0.7c0-0.3,0.1-0.5,0.3-0.7l0.1-0.1c0,0-0.1-0.1-0.1-0.1
		l0,0.1c-0.2,0.4-0.5,0.6-1,0.6c-0.1,0-0.3,0-0.4-0.1c-0.3-0.1-0.5-0.3-0.6-0.6c-0.1-0.3-0.1-0.5,0-0.8l0-0.1c-0.1,0-0.1,0-0.2,0
		v0.1c0,0.6-0.5,1-1,1c-0.6,0-1-0.5-1-1V61c0,0-0.1,0-0.1,0l0,0.1c0.2,0.5,0,1.1-0.6,1.4c-0.1,0.1-0.3,0.1-0.4,0.1
		c-0.4,0-0.8-0.3-1-0.6l0-0.1c-0.1,0-0.1,0.1-0.2,0.1l0.1,0.1c0.4,0.4,0.4,1.1,0,1.5c-0.2,0.2-0.5,0.3-0.7,0.3
		c-0.3,0-0.5-0.1-0.7-0.3l-0.1-0.1c0,0-0.1,0.1-0.1,0.1l0.1,0c0.3,0.1,0.5,0.3,0.6,0.6c0.1,0.3,0.1,0.5,0,0.8
		c-0.2,0.4-0.5,0.6-1,0.6c-0.1,0-0.3,0-0.4-0.1l-0.1,0c0,0.1,0,0.1,0,0.2h0.1c0.6,0,1,0.5,1,1c0,0.6-0.5,1-1,1h-0.1
		c0,0.1,0,0.1,0,0.2l0.1,0c0.1-0.1,0.3-0.1,0.4-0.1c0.4,0,0.8,0.3,1,0.6c0.2,0.5,0,1.1-0.6,1.4l-0.1,0c0,0.1,0.1,0.1,0.1,0.2
		l0.1-0.1c0.2-0.2,0.5-0.3,0.7-0.3c0.3,0,0.5,0.1,0.7,0.3c0.4,0.4,0.4,1.1,0,1.5L70,71.5c0.1,0,0.1,0.1,0.2,0.1l0-0.1
		c0.2-0.4,0.5-0.6,1-0.6c0.1,0,0.3,0,0.4,0.1c0.3,0.1,0.5,0.3,0.6,0.6c0.1,0.3,0.1,0.5,0,0.8l0,0.1c0.1,0,0.1,0,0.2,0v-0.1
		C72.2,71.7,72.7,71.3,73.3,71.3L73.3,71.3z M70.5,71.8c0.4,0.2,0.7,0.3,1.1,0.5l0.1-0.1c0.1-0.1,0.1-0.3,0-0.5
		c-0.1-0.1-0.2-0.3-0.3-0.3c-0.1,0-0.2,0-0.2,0c-0.2,0-0.5,0.1-0.6,0.4L70.5,71.8z M75.4,71.3c-0.1,0-0.2,0-0.2,0
		c-0.1,0.1-0.3,0.2-0.3,0.3c-0.1,0.1-0.1,0.3,0,0.5l0.1,0.1c0.4-0.1,0.8-0.3,1.1-0.5L76,71.7C75.9,71.4,75.7,71.3,75.4,71.3
		L75.4,71.3z M77.2,71.5l0.2,0.2c0.1,0.1,0.3,0.2,0.4,0.2c0.2,0,0.3-0.1,0.4-0.2c0.2-0.2,0.2-0.6,0-0.8l-0.2-0.1
		C77.8,71,77.5,71.3,77.2,71.5L77.2,71.5z M68.5,70.7l-0.2,0.1c-0.1,0.1-0.2,0.3-0.2,0.4c0,0.2,0.1,0.3,0.2,0.4
		c0.1,0.1,0.3,0.2,0.4,0.2c0.2,0,0.3-0.1,0.4-0.2l0.2-0.2C69,71.3,68.7,71,68.5,70.7L68.5,70.7z M68.8,70.3c0.3,0.3,0.5,0.6,0.8,0.8
		l0.1-0.1c0.2-0.2,0.2-0.6,0-0.8c-0.1-0.1-0.3-0.2-0.4-0.2c-0.2,0-0.3,0.1-0.4,0.2L68.8,70.3z M77.2,70.1c-0.2,0-0.3,0.1-0.4,0.2
		c-0.1,0.1-0.2,0.3-0.2,0.4c0,0.2,0.1,0.3,0.2,0.4l0.1,0.1c0.3-0.3,0.6-0.5,0.8-0.8l-0.1-0.1C77.6,70.1,77.4,70.1,77.2,70.1
		L77.2,70.1z M78.8,69.6l0.2,0.1c0.1,0,0.2,0,0.2,0c0.2,0,0.5-0.1,0.6-0.4c0.1-0.3,0-0.7-0.3-0.8l-0.2-0.1
		C79.1,68.9,79,69.3,78.8,69.6L78.8,69.6z M67.3,68.5l-0.2,0.1c-0.1,0.1-0.3,0.2-0.3,0.3c-0.1,0.1-0.1,0.3,0,0.5
		c0.1,0.2,0.3,0.4,0.6,0.4c0.1,0,0.2,0,0.2,0l0.2-0.1C67.6,69.3,67.5,68.9,67.3,68.5L67.3,68.5z M78.5,68.3c-0.2,0-0.5,0.1-0.6,0.4
		c-0.1,0.1-0.1,0.3,0,0.5c0.1,0.1,0.2,0.3,0.3,0.3l0.1,0c0.2-0.4,0.3-0.7,0.5-1.1l-0.1,0C78.6,68.3,78.6,68.3,78.5,68.3L78.5,68.3z
		 M67.7,68.3c0.1,0.4,0.3,0.8,0.5,1.1l0.2-0.1c0.3-0.1,0.5-0.5,0.3-0.8c-0.1-0.2-0.3-0.4-0.6-0.4c-0.1,0-0.2,0-0.2,0L67.7,68.3z
		 M79.5,67.3h0.2c0.3,0,0.6-0.3,0.6-0.6c0-0.3-0.3-0.6-0.6-0.6h-0.2c0,0.2,0,0.4,0,0.6C79.5,66.9,79.5,67.1,79.5,67.3L79.5,67.3z
		 M78.9,66.1c-0.3,0-0.6,0.3-0.6,0.6c0,0.3,0.3,0.6,0.6,0.6H79c0-0.2,0-0.4,0-0.6c0-0.2,0-0.4,0-0.6H78.9z M67.5,67.3h0.2
		c0.3,0,0.6-0.3,0.6-0.6c0-0.3-0.3-0.6-0.6-0.6h-0.2c0,0.2,0,0.4,0,0.6C67.5,66.9,67.5,67.1,67.5,67.3L67.5,67.3z M66.9,66.1
		c-0.3,0-0.6,0.3-0.6,0.6c0,0.3,0.3,0.6,0.6,0.6h0.2c0-0.2,0-0.4,0-0.6c0-0.2,0-0.4,0-0.6H66.9z M78.4,64l-0.1,0
		c-0.1,0.1-0.3,0.2-0.3,0.3c-0.1,0.1-0.1,0.3,0,0.5c0.1,0.2,0.3,0.4,0.6,0.4c0.1,0,0.2,0,0.2,0l0.1,0C78.7,64.7,78.6,64.3,78.4,64
		L78.4,64z M67.8,65l0.2,0.1c0.1,0,0.2,0,0.2,0c0.2,0,0.5-0.1,0.6-0.4c0.1-0.1,0.1-0.3,0-0.5c-0.1-0.1-0.2-0.3-0.3-0.3l-0.2-0.1
		C68,64.3,67.9,64.7,67.8,65L67.8,65z M78.8,63.8c0.2,0.4,0.3,0.7,0.5,1.1l0.2-0.1c0.3-0.1,0.5-0.5,0.3-0.8
		c-0.1-0.2-0.3-0.4-0.6-0.4c-0.1,0-0.2,0-0.2,0L78.8,63.8z M67.4,63.6c-0.2,0-0.5,0.1-0.6,0.4c-0.1,0.1-0.1,0.3,0,0.5
		c0.1,0.1,0.2,0.3,0.3,0.3l0.2,0.1c0.1-0.4,0.3-0.8,0.5-1.1l-0.2-0.1C67.6,63.7,67.5,63.6,67.4,63.6L67.4,63.6z M76.9,62.2l-0.1,0.1
		c-0.1,0.1-0.2,0.3-0.2,0.4c0,0.2,0.1,0.3,0.2,0.4c0.1,0.1,0.3,0.2,0.4,0.2c0.2,0,0.3-0.1,0.4-0.2l0.1-0.1
		C77.5,62.8,77.2,62.5,76.9,62.2L76.9,62.2z M68.8,63.1l0.1,0.1c0.1,0.1,0.3,0.2,0.4,0.2c0.2,0,0.3-0.1,0.4-0.2
		c0.2-0.2,0.2-0.6,0-0.8l-0.1-0.1C69.3,62.5,69.1,62.8,68.8,63.1L68.8,63.1z M77.2,61.9c0.3,0.3,0.6,0.5,0.8,0.8l0.2-0.1
		c0.2-0.2,0.2-0.6,0-0.8c-0.1-0.1-0.3-0.2-0.4-0.2c-0.2,0-0.3,0.1-0.4,0.2L77.2,61.9z M68.8,61.6c-0.2,0-0.3,0.1-0.4,0.2
		c-0.1,0.1-0.2,0.3-0.2,0.4c0,0.2,0.1,0.3,0.2,0.4l0.2,0.2c0.3-0.3,0.5-0.6,0.8-0.8l-0.2-0.2C69.1,61.6,68.9,61.6,68.8,61.6
		L68.8,61.6z M75,61.2l-0.1,0.1c-0.1,0.1-0.1,0.3,0,0.5c0.1,0.1,0.2,0.3,0.3,0.3c0.1,0,0.2,0,0.2,0c0.2,0,0.5-0.1,0.6-0.4l0.1-0.1
		C75.7,61.5,75.4,61.3,75,61.2L75,61.2z M70.6,61.6l0.1,0.2c0.1,0.2,0.3,0.4,0.6,0.4c0.1,0,0.2,0,0.2,0c0.3-0.1,0.5-0.5,0.3-0.8
		l-0.1-0.1C71.3,61.3,70.9,61.4,70.6,61.6L70.6,61.6z M72.7,61v0.2c0,0.3,0.3,0.6,0.6,0.6c0.3,0,0.6-0.3,0.6-0.6V61
		C73.5,60.9,73.1,60.9,72.7,61L72.7,61z M75.1,60.8c0.4,0.1,0.8,0.3,1.1,0.5l0.1-0.2c0.1-0.3,0-0.7-0.3-0.8c-0.1,0-0.2,0-0.2,0
		c-0.2,0-0.5,0.1-0.6,0.4L75.1,60.8z M70.9,60.2c-0.1,0-0.2,0-0.2,0c-0.1,0.1-0.3,0.2-0.3,0.3c-0.1,0.1-0.1,0.3,0,0.5l0.1,0.2
		c0.4-0.2,0.7-0.3,1.1-0.5l-0.1-0.2C71.3,60.3,71.1,60.2,70.9,60.2L70.9,60.2z M73.3,60.5c0.2,0,0.4,0,0.6,0v-0.2
		c0-0.3-0.3-0.6-0.6-0.6c-0.3,0-0.6,0.3-0.6,0.6v0.2C72.9,60.5,73.1,60.5,73.3,60.5L73.3,60.5z M73.3,60.5"/>
</g>
<g class="st5">
	<g>
		<defs>
			
				<rect id="SVGID_8_" x="93.5" y="8.1" transform="matrix(-2.241170e-003 1 -1 -2.241170e-003 118.9123 -85.2784)" width="17.1" height="17.1"/>
		</defs>
		<clipPath id="SVGID_9_">
			<use xlink:href="#SVGID_8_"  style="overflow:visible;"/>
		</clipPath>
		<path class="st9" d="M107.6,8.4l0,2.3l-0.9,0.9l0-1.7c0-0.2-0.1-0.3-0.3-0.3c-0.2,0-0.3,0.1-0.3,0.3l0,2.3l-0.9,0.9l0-1.7
			c0-0.2-0.1-0.3-0.3-0.3c-0.2,0-0.3,0.1-0.3,0.3l0,2.3l-9.1,9.1l-0.3-1.5c0-0.1-0.1-0.2-0.3-0.2c-0.1,0-0.2,0.1-0.3,0.2l-1.2,3.6
			c0,0.1,0,0.2,0.1,0.3s0.2,0.1,0.3,0.1l3.6-1.2c0.1,0,0.2-0.1,0.2-0.3c0,0,0,0,0,0c0-0.1-0.1-0.2-0.2-0.3L96,23.1l9.1-9.1l2.3,0
			c0.2,0,0.3-0.1,0.3-0.3c0-0.2-0.1-0.3-0.3-0.3l-1.7,0l0.9-0.9l2.3,0c0.2,0,0.3-0.1,0.3-0.3c0-0.2-0.1-0.3-0.3-0.3l-1.7,0l0.9-0.9
			l2.3,0c0.2,0,0.3-0.1,0.3-0.3c0-0.2-0.1-0.3-0.3-0.3l-2.1,0l0-2.1c0-0.2-0.1-0.3-0.3-0.3C107.7,8.2,107.6,8.3,107.6,8.4L107.6,8.4
			z M95.1,23.3C95.1,23.3,95.1,23.3,95.1,23.3C95.1,23.3,95.2,23.3,95.1,23.3C95.2,23.4,95.2,23.4,95.1,23.3
			C95.2,23.4,95.2,23.4,95.1,23.3C95.2,23.4,95.2,23.4,95.1,23.3c0,0.1,0,0.1,0,0.1c0,0,0,0,0,0c0,0,0,0,0,0c0,0,0,0,0,0
			c0,0,0,0,0,0c0,0,0,0,0,0c0,0,0,0,0,0c0,0,0,0,0,0c0,0,0,0,0,0c0,0,0,0,0,0c0,0,0,0,0,0l1,0.2l-2.2,0.7l0.7-2.2L95.1,23.3z
			 M95.1,23.3"/>
		<path class="st10" d="M102.6,17.7"/>
	</g>
</g>
<path class="st11" d="M20.4,69.3c0-1-0.5-1.8-1.2-2.4c0.4-1.4,0.7-3.3,0.7-5.5c0-1.8-0.2-3.5-0.5-4.9c2.1-0.1,3.8-0.5,4.9-1
	c0.3,0.5,0.7,0.9,1.2,0.9c0.8,0,1.4-0.9,1.4-2.1c0-1.2-0.6-2.1-1.4-2.1c-0.5,0-0.9,0.4-1.2,0.9c-1-0.5-2.6-0.8-4.5-1l1.3-38L18,9.8
	l-3.1,4.4l0.5,38c-1.8,0.2-3.4,0.5-4.4,0.9c-0.3-0.5-0.7-0.9-1.2-0.9c-0.8,0-1.4,0.9-1.4,2.1c0,1.2,0.6,2.1,1.4,2.1
	c0.5,0,0.9-0.4,1.2-0.9c1.1,0.5,2.8,0.9,4.9,1c-0.3,1.3-0.5,3-0.5,4.9c0,2.1,0.2,4.1,0.6,5.5c-0.8,0.5-1.3,1.4-1.3,2.3
	c0,1.6,1.3,2.9,2.8,2.9C19.1,72.2,20.4,70.9,20.4,69.3L20.4,69.3z M15.4,15.1"/>
<path class="st12" d="M24.5,102l-0.8-0.3c0.1-0.6,0-1.2-0.1-1.8l0.8-0.4c0.5-0.2,0.7-0.8,0.5-1.3l-0.5-1c-0.2-0.5-0.8-0.7-1.3-0.5
	l-0.8,0.4c-0.4-0.5-0.8-0.9-1.3-1.2l0.3-0.8c0.2-0.5-0.1-1.1-0.6-1.3l-1-0.4c-0.5-0.2-1.1,0.1-1.3,0.6l-0.3,0.8
	c-0.6-0.1-1.2,0-1.8,0.1L16,94.1c-0.2-0.5-0.8-0.7-1.3-0.5l-1,0.5c-0.5,0.2-0.7,0.8-0.5,1.3l0.4,0.8c-0.5,0.4-0.9,0.8-1.2,1.3
	l-0.8-0.3c-0.5-0.2-1.1,0.1-1.3,0.6l-0.4,1c-0.1,0.2-0.1,0.5,0,0.8c0.1,0.2,0.3,0.4,0.6,0.5l0.8,0.3c-0.1,0.6,0,1.2,0.1,1.8
	l-0.8,0.4c-0.5,0.2-0.7,0.8-0.5,1.3l0.5,1c0.2,0.5,0.8,0.7,1.3,0.5l0.8-0.4c0.4,0.5,0.8,0.9,1.3,1.2l-0.3,0.8
	c-0.1,0.2-0.1,0.5,0,0.8c0.1,0.2,0.3,0.4,0.6,0.5l1,0.4c0.2,0.1,0.5,0.1,0.8,0c0.2-0.1,0.4-0.3,0.5-0.6l0.3-0.8
	c0.6,0.1,1.2,0,1.8-0.1l0.4,0.8c0.2,0.5,0.8,0.7,1.3,0.5l1-0.5c0.5-0.2,0.7-0.8,0.5-1.3l-0.4-0.8c0.5-0.4,0.9-0.8,1.2-1.3l0.8,0.3
	c0.2,0.1,0.5,0.1,0.8,0c0.2-0.1,0.4-0.3,0.5-0.6l0.4-1C25.3,102.7,25,102.1,24.5,102L24.5,102z M19.1,104.5
	c-0.5,0.2-1.1,0.4-1.6,0.4c-1.5,0-2.9-0.9-3.5-2.3c-0.9-1.9,0-4.3,1.9-5.2c0.5-0.2,1.1-0.4,1.6-0.4c1.5,0,2.9,0.9,3.5,2.3
	C21.9,101.3,21.1,103.6,19.1,104.5L19.1,104.5z M19.1,104.5"/>
<path class="st12" d="M79.7,102l-0.8-0.3c0.1-0.6,0-1.2-0.1-1.8l0.8-0.4c0.5-0.2,0.7-0.8,0.5-1.3l-0.5-1c-0.2-0.5-0.8-0.7-1.3-0.5
	l-0.8,0.4c-0.4-0.5-0.8-0.9-1.3-1.2l0.3-0.8c0.2-0.5-0.1-1.1-0.6-1.3l-1-0.4c-0.5-0.2-1.1,0.1-1.3,0.6l-0.3,0.8
	c-0.6-0.1-1.2,0-1.8,0.1l-0.4-0.8c-0.2-0.5-0.8-0.7-1.3-0.5l-1,0.5c-0.5,0.2-0.7,0.8-0.5,1.3l0.4,0.8c-0.5,0.4-0.9,0.8-1.2,1.3
	l-0.8-0.3c-0.5-0.2-1.1,0.1-1.3,0.6l-0.4,1c-0.1,0.2-0.1,0.5,0,0.8c0.1,0.2,0.3,0.4,0.6,0.5l0.8,0.3c-0.1,0.6,0,1.2,0.1,1.8
	l-0.8,0.4c-0.5,0.2-0.7,0.8-0.5,1.3l0.5,1c0.2,0.5,0.8,0.7,1.3,0.5l0.8-0.4c0.4,0.5,0.8,0.9,1.3,1.2l-0.3,0.8
	c-0.1,0.2-0.1,0.5,0,0.8c0.1,0.2,0.3,0.4,0.6,0.5l1,0.4c0.2,0.1,0.5,0.1,0.8,0c0.2-0.1,0.4-0.3,0.5-0.6l0.3-0.8
	c0.6,0.1,1.2,0,1.8-0.1l0.4,0.8c0.2,0.5,0.8,0.7,1.3,0.5l1-0.5c0.5-0.2,0.7-0.8,0.5-1.3l-0.4-0.8c0.5-0.4,0.9-0.8,1.2-1.3l0.8,0.3
	c0.2,0.1,0.5,0.1,0.8,0c0.2-0.1,0.4-0.3,0.5-0.6l0.4-1C80.5,102.7,80.2,102.1,79.7,102L79.7,102z M74.3,104.5
	c-0.5,0.2-1.1,0.4-1.6,0.4c-1.5,0-2.9-0.9-3.5-2.3c-0.9-1.9,0-4.3,1.9-5.2c0.5-0.2,1.1-0.4,1.6-0.4c1.5,0,2.9,0.9,3.5,2.3
	C77.1,101.3,76.3,103.6,74.3,104.5L74.3,104.5z M74.3,104.5"/>
<g>
	<g>
		<defs>
			<polyline id="SVGID_10_" points="36.9,91.6 51.1,91.6 51.1,122 36.9,122 			"/>
		</defs>
		<clipPath id="SVGID_11_">
			<use xlink:href="#SVGID_10_"  style="overflow:visible;"/>
		</clipPath>
		<path class="st13" d="M47.5,110.4c-0.2-2.3,0.6-5.2,1-6l0,0c3.5-6.6,0.7-12.1,0.6-12.3c-0.1-0.3-0.5-0.4-0.8-0.2
			c-0.3,0.1-0.4,0.5-0.2,0.8c0,0.1,2.6,5.1-0.6,11.2c-0.5,0.9-1.2,3.6-1.1,6 M43.6,109c-3.6-13.8-0.8-16.3-0.7-16.4
			c0.3-0.2,0.3-0.5,0.2-0.8c-0.2-0.3-0.5-0.4-0.8-0.2c-0.4,0.2-3.8,2.8,0.4,18.2 M45.6,102.3c1.2-3.7,0.3-7.4,0.3-7.4
			c-0.1-0.3,0.1-0.6,0.4-0.7c0.3-0.1,0.6,0.1,0.7,0.4c0,0.2,1,4.1-0.3,8.1c-0.1,0.2-0.3,0.4-0.5,0.4c-0.1,0-0.1,0-0.2,0
			C45.7,102.9,45.5,102.6,45.6,102.3L45.6,102.3z M45.6,102.3"/>
	</g>
</g>
<path class="st14" d="M52.3,127.6c0,0.4-0.1,0.9-0.3,1.2C51.7,128.5,51.9,127.8,52.3,127.6 M25.2,124.5c1.1,0.4-0.6,0.4-0.7,0.6
	C24.6,124.8,24.9,124.6,25.2,124.5 M26.8,123.4c-0.3,0.1-1.3,1.1-0.3,0.9c0.2-0.1,1.1-0.8,1.1-1.1C27.5,122.8,26.9,123.3,26.8,123.4
	 M59.3,128c-0.2,1.5,0.6,3.1-0.1,4.6c-0.6,1.3-2.3,2-3.8,2.1c-1.1,0.1-3.4,0.2-4.3-0.7c-0.9-0.8-0.2-2.6-0.1-3.6c0.1,0,0.7-3,1-3.3
	c0.7-0.8,0.4-2.2,0.3-3c-0.2-1.2-1.1-1.8-0.7-3.1c0.6-1.7,0.6-2.3-0.6-3.9c-1-1.3,0-2.7-0.3-4.2c-0.3-1.9-0.7-3.7-0.5-5.6
	c0.1-0.6,0.6-1.1,0.5-1.7c-0.1-0.6-0.3-1.1-0.5-1.7c-0.3-1.2,1.1-2.9,0.3-3.9c-0.9-1.2-1.1-3.3-1.4-4.8c-0.2-0.9-0.4-1.8-0.8-2.6
	c-0.4-1-0.3-2.2-0.8-3.1c-0.7-1.5-0.9-3.2-1.4-4.8c-0.4-1.4-0.7-3.9-1.9-4.9c-1.8,0.6-1.6,2.3-1.6,3.8c0,1-0.6,1.9-0.6,2.9
	c0,0.6,0.2,1.3,0.2,1.9c0,0.8-0.5,1.4-0.5,2.2c0.1,1.3,0,2.5-0.2,3.8c-0.1,1.1-0.7,1.8-0.5,2.9c0.1,0.7-0.2,0.7-0.4,1.2
	c-0.2,0.5,0.3,0.9,0.2,1.5c-0.2,0.8,0.1,1.4-0.1,2.2c-0.2,0.9-0.3,2-0.3,2.9c0,1.2-0.6,2.1-0.8,3.2c-0.3,1.3-0.6,2.6-1.1,3.9
	c-0.5,1.4,0.2,2.4,0.4,3.8c0.1,1.3-0.5,2-1,3.2c-0.2,0.6-0.2,1.1-0.5,1.6c-0.2,0.5-0.4,1.1-0.4,1.6c0.1,1.2,0.4,2.4,0.4,3.6
	c-1.1,0.5-2.8,1.2-4,1.2c-2.5,0-3.6,1.8-6,2.3c-1.4,0.3-2.8,0.6-4.2,0.4c-0.8-0.1-3.3-1-1.9-2.1c0.4-0.3,0.3-0.9,0.7-1.2
	c0.4-0.4,0.9-0.8,1.3-1.1c0.6-0.5,1-1,1.6-1.4c0.9-0.5,1.4-1.4,2.2-2c0.8-0.6,1.6-0.7,2.1-1.6c0.4-0.7,1.3-1.2,1.1-2
	c-0.1-0.5-0.4-0.9-0.3-1.4c0.1-0.4,0.5-0.8,0.3-1.3c-0.1-0.3-0.7-0.2-0.3-0.7c0.2-0.3,0.7-0.4,0.7-0.8c0.1-0.9-0.2-2.1-0.4-2.9
	c-0.1-0.4,0.2-1.1,0.2-1.5c0-0.7-0.1-1.4,0-2.1c0.2-1.3,0.3-2.7,0.4-4c0.1-0.8-0.4-2.7,0.1-3.3c0.2-0.2,0.6-0.3,0.7-0.6
	c0.1-0.6-0.5-1-0.4-1.5c0.1-0.8,1.4,0,1.3-1.1c-0.1-0.7-0.2-0.9-0.1-1.5c0.1-0.9-0.4-1.9-0.3-2.8c0.1-1,0.6-2.1,0-3.1
	c-1-1.9-1.8-3.6-1.9-5.7c-0.1-1,0.1-1.9,0.2-2.9c0-0.9-1-0.9-1.7-1.3c-1.1-0.6-2.5-1.1-2.2-2.3c0.3-1.2,0.5-2.4,0.8-3.6
	c0.5-2.2,0.9-4.4,1.5-6.5c0.2-0.8,0.3-1.5,0.4-2.3c0.1-1,0.8-1.9,1.2-2.8c0.4-1,0.6-1.9,0.7-2.9c0.1-0.8,0.6-1.6,0.6-2.4
	c-0.9-0.1-1.4,0.3-2.4,0c-0.9-0.3-1.9-0.4-2.6-1.2c-1.1-1.2-2-2.5-2.2-4.1c-0.1-0.9,0-1.7,0.3-2.7c0.3-1.2,0.1-2.4,0.4-3.6
	c0.1-0.6,0.4-1.2,0.4-1.8c0-0.4-0.4-0.4-0.5-0.8c-0.1-0.4,0.3-0.7,0-1.1c-0.6-0.5-3.7,0.3-2.4-1.5c0.3-0.4-0.8-2.2-1-2.7
	c-0.3-0.8,1.1-1.3,1.7-1c1,0.4,1.9,0.1,2.8,0.5c0.5-1.9,0.1-3.7,2.1-4.8c2.6-1.5,5.2-1.9,8.1-2.8c0.4-0.1,4.2-1.2,3.6-2.2
	c-0.6-1.1-1.3-2.1-1.8-3.3c-0.2-0.5-0.5-1-0.7-1.5c-0.2-0.5-0.8-0.5-1.2-0.9c-0.6-0.7-1.1-2,0.2-2.4c1.2-0.4-1.9-5.9,0.5-7.2
	c2.7-3,6.7-2.3,10.2-1.3c2.3,0.6,2.2,5,3,6.7c0.3,0.7,0.5,3.2-0.3,3.7c-0.5,0.6-1,0.3-1.1,1.1c-0.1,0.6,0,1.3-0.1,1.9
	c-0.1,0.5,0.1,1.1,0.1,1.6c0,0.4,1.2,0.9,1.4,1.2c1.5,2.6,4.6,2,7.2,2.7c1.9,0.5,3.9,1.3,5.6,2.2c0.6,0.3,1.5,0.7,1.9,1.3
	c0.7,1.1,0.6,3.5,0.7,4.7c0.4,3.4,0.7,6.9,1.1,10.3c0.2,1.4-0.3,3-0.3,4.4c0,2-0.2,3.5-0.9,5.4c-0.6,1.4-0.8,3-1.4,4.4
	c-0.3,0.9-1.9,2.3-1.8,3.2c0,1,0.4,2,0.7,2.9c0.5,1.7,0.8,3.4,1.2,5.1c0.2,0.8,1.5,3.8,1,4.5c-0.5,0.8-1.5,1.4-2.2,1.9
	c-0.8,0.6-1.8,0.9-2.9,0.8c-1.3-0.1-1.1-1.2-1.4-2.1c-1,0.1-0.2,2.4-0.3,3.1c-0.2,1.5-0.5,2.6-0.2,4.1c0.3,1.4,0.3,2.7-0.2,4
	c-0.4,1.2,0,2.7,0.4,3.9c0.1,0.5-0.1,0.6-0.4,1c-0.2,0.4,0.1,0.7,0.2,1.1c0.1,0.6-0.1,1,0.3,1.5c0.4,0.6,0.5,1,0.4,1.7
	c-0.1,0.4-0.2,0.9,0.3,1.2c0.7,0.4-0.3,1.1,0.4,1.5c0.7,0.4,0.3,1.9,0.5,2.5c0.3,0.9,0.4,1.8,0.4,2.8c0,1.5,0.5,2.9,0.6,4.3
	c0.1,1.5,0.3,3.2,0.2,4.8c-0.1,1.3-0.7,1.6-1.8,2.2c-0.8,0.4,0,1.5,0.1,2.1c0.2,1.2,0.9,1.6,0.3,2.8c-0.2,0.3-0.2,0.5-0.6,0.7
	c-0.4,0.2-0.1,1.2-0.2,1.7C59,126.5,59.9,127.1,59.3,128"/>
</svg>
