<?xml version="1.0" encoding="utf-8"?>
<!-- Generator: Adobe Illustrator 19.0.0, SVG Export Plug-In . SVG Version: 6.00 Build 0)  -->
<svg version="1.1" id="Calque_1" xmlns="http://www.w3.org/2000/svg" xmlns:xlink="http://www.w3.org/1999/xlink" x="0px" y="0px"
	 viewBox="0 0 119 143" style="enable-background:new 0 0 119 143;" xml:space="preserve">
<style type="text/css">
	.st0{fill:none;}
	.st1{fill:#545454;}
	.st2{fill:url(#SVGID_1_);}
	.st3{stroke:#0D0D0D;stroke-width:0.5;stroke-miterlimit:10;}
	.st4{fill:#090909;stroke:#0D0D0D;stroke-width:0.5;stroke-miterlimit:10;}
	.st5{opacity:0.75;}
	.st6{clip-path:url(#SVGID_3_);fill:#736131;fill-opacity:0.75;}
	.st7{fill-rule:evenodd;clip-rule:evenodd;fill:none;stroke:#C1C1C1;stroke-width:0.75;stroke-miterlimit:10;}
	.st8{fill:none;stroke:#736131;stroke-miterlimit:10;stroke-opacity:0.5;}
	.st9{fill:#736131;fill-opacity:0.5;}
	.st10{fill:#736131;fill-opacity:0.75;}
	.st11{clip-path:url(#SVGID_9_);fill:#736131;fill-opacity:0.75;}
	.st12{clip-path:url(#SVGID_9_);}
</style>
<pattern  x="-385.5" y="467.5" width="55.1" height="55.1" patternUnits="userSpaceOnUse" id="New_Pattern_Swatch_21" viewBox="0 -55.1 55.1 55.1" style="overflow:visible;">
	<g>
		<polygon class="st0" points="0,0 55.1,0 55.1,-55.1 0,-55.1 		"/>
		<g>
			<g>
				<g>
				</g>
				<g>
				</g>
				<g>
				</g>
				<g>
				</g>
				<g>
				</g>
				<g>
				</g>
				<g>
				</g>
				<g>
				</g>
				<g>
				</g>
				<g>
				</g>
				<g>
				</g>
				<g>
				</g>
				<g>
				</g>
				<g>
				</g>
				<g>
				</g>
				<g>
				</g>
			</g>
			<g>
				<g>
				</g>
				<g>
				</g>
				<g>
				</g>
				<g>
				</g>
				<g>
				</g>
				<g>
				</g>
				<g>
				</g>
				<g>
				</g>
				<g>
				</g>
				<g>
				</g>
				<g>
				</g>
				<g>
				</g>
				<g>
				</g>
				<g>
				</g>
				<g>
				</g>
				<g>
				</g>
			</g>
			<g>
				<g>
				</g>
				<g>
				</g>
				<g>
				</g>
				<g>
				</g>
				<g>
				</g>
				<g>
				</g>
				<g>
				</g>
				<g>
				</g>
				<g>
				</g>
				<g>
				</g>
				<g>
				</g>
				<g>
				</g>
				<g>
				</g>
				<g>
				</g>
				<g>
				</g>
				<g>
				</g>
			</g>
			<g>
				<g>
				</g>
				<g>
				</g>
				<g>
				</g>
				<g>
				</g>
				<g>
				</g>
				<g>
				</g>
				<g>
				</g>
				<g>
				</g>
				<g>
				</g>
				<g>
				</g>
				<g>
				</g>
				<g>
				</g>
				<g>
				</g>
				<g>
				</g>
				<g>
				</g>
				<g>
				</g>
			</g>
			<g>
				<g>
				</g>
				<g>
				</g>
				<g>
				</g>
				<g>
				</g>
				<g>
				</g>
				<g>
				</g>
				<g>
				</g>
				<g>
				</g>
				<g>
				</g>
				<g>
				</g>
				<g>
				</g>
				<g>
				</g>
				<g>
				</g>
				<g>
				</g>
				<g>
				</g>
				<g>
				</g>
			</g>
			<g>
				<g>
				</g>
				<g>
				</g>
				<g>
				</g>
				<g>
				</g>
				<g>
				</g>
				<g>
				</g>
				<g>
				</g>
				<g>
				</g>
				<g>
				</g>
				<g>
				</g>
				<g>
				</g>
				<g>
				</g>
				<g>
				</g>
				<g>
				</g>
				<g>
				</g>
				<g>
				</g>
			</g>
			<g>
				<g>
				</g>
				<g>
				</g>
				<g>
				</g>
				<g>
				</g>
				<g>
				</g>
				<g>
				</g>
				<g>
				</g>
				<g>
				</g>
				<g>
				</g>
				<g>
				</g>
				<g>
				</g>
				<g>
				</g>
				<g>
				</g>
				<g>
				</g>
				<g>
				</g>
				<g>
				</g>
			</g>
			<g>
				<g>
				</g>
				<g>
				</g>
				<g>
				</g>
				<g>
				</g>
				<g>
				</g>
				<g>
				</g>
				<g>
				</g>
				<g>
				</g>
				<g>
				</g>
				<g>
				</g>
				<g>
				</g>
				<g>
				</g>
				<g>
				</g>
				<g>
				</g>
				<g>
				</g>
				<g>
				</g>
			</g>
			<g>
				<g>
				</g>
				<g>
				</g>
				<g>
				</g>
				<g>
				</g>
				<g>
				</g>
				<g>
				</g>
				<g>
				</g>
				<g>
				</g>
				<g>
				</g>
				<g>
				</g>
				<g>
				</g>
				<g>
				</g>
				<g>
				</g>
				<g>
				</g>
				<g>
				</g>
				<g>
				</g>
			</g>
		</g>
		<g>
			<path class="st0" d="M1.5-16.1c-0.1,0-0.2-0.1-0.3-0.1c-0.4-0.1-0.8-0.3-1.1-0.4v1c0.1,0,0.2-0.1,0.3-0.1
				C0.7-15.9,1.1-16,1.5-16.1z"/>
			<path class="st0" d="M46.7-10.8c1.6-2.1,4.8-3.6,7.3-4.5c0.3-0.1,0.7-0.2,1.1-0.4c-0.1,0-0.2-0.1-0.2-0.1
				c-0.4-0.1-0.9-0.2-1.3-0.3c-2.4,0.9-5.2,2.3-6.8,4.2C46.8-11.5,46.8-11.1,46.7-10.8z"/>
			<path class="st0" d="M1.5-39c-0.4-0.1-0.8-0.2-1.2-0.4c-0.1,0-0.2-0.1-0.3-0.1v1c0.4-0.1,0.8-0.3,1.1-0.4C1.2-38.9,1.4-39,1.5-39
				z"/>
			<path class="st0" d="M53.7-16.1c0.4,0.1,0.8,0.2,1.2,0.4c0.1,0,0.2,0.1,0.3,0.1v-1c-0.4,0.1-0.8,0.3-1.1,0.4
				C53.9-16.2,53.8-16.1,53.7-16.1z"/>
			<path class="st0" d="M39-53.7c0.1-0.4,0.2-0.8,0.4-1.2c0-0.1,0.1-0.2,0.1-0.3h-1c0.1,0.4,0.3,0.8,0.4,1.1
				C38.9-53.9,39-53.8,39-53.7z"/>
			<path class="st0" d="M8.3-43.2c0-0.4,0-0.8,0.1-1.1c-1.6,2.1-4.8,3.6-7.3,4.5c-0.3,0.1-0.7,0.2-1.1,0.4c0.1,0,0.2,0.1,0.2,0.1
				c0.4,0.1,0.9,0.2,1.3,0.3C4-40,6.7-41.4,8.3-43.2z"/>
			<path class="st0" d="M44.3-46.7c-2.1-1.6-3.6-4.8-4.5-7.3c-0.1-0.3-0.2-0.7-0.4-1.1c0,0.1-0.1,0.2-0.1,0.2
				c-0.1,0.4-0.2,0.9-0.3,1.3c0.9,2.4,2.3,5.2,4.2,6.8C43.6-46.8,44-46.8,44.3-46.7z"/>
			<path class="st0" d="M8.3-11.9c-1.6-1.9-4.4-3.3-6.8-4.2c-0.4,0.1-0.9,0.2-1.3,0.3c-0.1,0-0.2,0.1-0.2,0.1
				c0.4,0.1,0.7,0.2,1.1,0.4c2.6,1,5.7,2.5,7.3,4.5C8.4-11.1,8.3-11.5,8.3-11.9z"/>
			<path class="st0" d="M11.9-46.8c1.9-1.6,3.3-4.4,4.2-6.8c-0.1-0.4-0.2-0.9-0.3-1.3c0-0.1-0.1-0.2-0.1-0.2
				c-0.1,0.4-0.2,0.7-0.4,1.1c-1,2.6-2.5,5.7-4.5,7.3C11.1-46.8,11.5-46.8,11.9-46.8z"/>
			<path class="st0" d="M39-1.5c0,0.1-0.1,0.2-0.1,0.3c-0.1,0.4-0.3,0.8-0.4,1.1h1c0-0.1-0.1-0.2-0.1-0.3C39.3-0.7,39.1-1.1,39-1.5z
				"/>
			<path class="st0" d="M11.9-8.3c-0.4,0-0.8,0-1.1-0.1c2.1,1.6,3.6,4.8,4.5,7.3c0.1,0.3,0.2,0.7,0.4,1.1c0-0.1,0.1-0.2,0.1-0.2
				c0.1-0.4,0.2-0.9,0.3-1.3C15.1-4,13.8-6.7,11.9-8.3z"/>
			<path class="st0" d="M43.2-8.3C41.4-6.7,40-4,39.1-1.6c0.1,0.4,0.2,0.9,0.3,1.3c0,0.1,0.1,0.2,0.1,0.2c0.1-0.4,0.2-0.7,0.4-1.1
				c1-2.6,2.5-5.7,4.5-7.3C44-8.4,43.6-8.3,43.2-8.3z"/>
			<path class="st0" d="M16.1-53.7c0-0.1,0.1-0.2,0.1-0.3c0.1-0.4,0.3-0.8,0.4-1.1h-1c0,0.1,0.1,0.2,0.1,0.3
				C15.9-54.5,16-54.1,16.1-53.7z"/>
			<path class="st0" d="M46.8-43.2c1.6,1.9,4.4,3.3,6.8,4.2c0.4-0.1,0.9-0.2,1.3-0.3c0.1,0,0.2-0.1,0.2-0.1
				c-0.4-0.1-0.7-0.2-1.1-0.4c-2.6-1-5.7-2.5-7.3-4.5C46.8-44,46.8-43.6,46.8-43.2z"/>
			<path class="st0" d="M53.7-39c0.1,0,0.2,0.1,0.3,0.1c0.4,0.1,0.8,0.3,1.1,0.4v-1c-0.1,0-0.2,0.1-0.3,0.1
				C54.5-39.3,54.1-39.1,53.7-39z"/>
			<path class="st0" d="M38.5,0H16.6c0-0.1,0-0.1,0.1-0.2c1-2.9,1.5-5.6,1.4-6.2c0-0.1,0-0.1,0-0.1c0,0,0,0,0,0l0,0
				c-0.2-0.2-0.5,3.2-1.4,6.3c0,0.1,0,0.1-0.1,0.2c-0.1-0.4-0.2-0.8-0.4-1.2c0-0.1-0.1-0.2-0.1-0.3c0.7-2.4,1.1-4.4,1-5
				c0-0.1,0-0.1,0-0.1c0,0,0,0,0,0l0,0c-0.2-0.2-0.4,2.3-1,4.9c-0.9-2.4-2.3-5.1-4.1-6.7c2.6-0.1,5.6-1.5,7.9-2.8
				c0.4-0.2,0.8-0.5,1.1-0.7c2.6-1.7,4.7-3.4,5.1-3.9c0-0.1,0-0.1,0-0.1c0,0.1,0,0,0,0l0,0c0-0.3-2.4,2.2-5.1,4
				c-0.4,0.2-0.8,0.5-1.1,0.7c-2.3,1.3-5.3,2.7-7.9,2.8C11.6-8.6,11.3-8.8,11-9c2.6,0,5.8-1.4,8.1-2.8c0.4-0.2,0.8-0.5,1.1-0.7
				c2.6-1.6,4.7-3.4,5.1-3.9c0-0.1,0-0.1,0-0.1c0,0.1,0,0,0,0l0,0c0-0.3-2.4,2.2-5.1,4c-0.4,0.2-0.8,0.5-1.1,0.7
				C16.8-10.5,13.6-9,10.9-9c-0.2-0.1-0.3-0.2-0.5-0.3l0,0c0.2,0.1,0.3,0.1,0.4,0.2c-0.5,0-0.9-0.1-1.4-0.2l0,0
				c0.5,0.1,1,0.2,1.5,0.2c0.3,0.2,0.6,0.4,0.9,0.7c-0.4,0-0.8,0-1.1-0.1C10.3-8.8,9.9-9,9.5-9.2l0,0c0.4,0.2,0.8,0.4,1.2,0.7
				c-0.2,0-0.3-0.1-0.5-0.1l0,0c0.2,0.1,0.4,0.1,0.6,0.1c2.1,1.6,3.6,4.8,4.6,7.4c0.1,0.4,0.3,0.7,0.4,1H0v-15.6
				c0.3,0.1,0.7,0.2,1,0.4c2.6,1,5.7,2.5,7.4,4.6c0,0.2,0.1,0.4,0.1,0.6l0,0c0-0.2-0.1-0.3-0.1-0.5C8.8-10.3,9-9.9,9.2-9.4l0,0
				C9-9.9,8.8-10.3,8.5-10.7c-0.1-0.4-0.1-0.7-0.1-1.1c0.3,0.3,0.5,0.6,0.7,0.9c0,0.5,0.1,1,0.2,1.5l0,0c-0.1-0.4-0.2-0.9-0.2-1.4
				c0.1,0.1,0.2,0.3,0.2,0.4l0,0c-0.1-0.2-0.2-0.3-0.3-0.5c-0.1-2.6,1.4-5.8,2.8-8.2c0.2-0.4,0.5-0.8,0.7-1.1c1.8-2.7,4.3-5.1,4-5.1
				l0,0c0,0-0.1,0,0,0c0,0,0,0-0.1,0c-0.5,0.4-2.3,2.4-3.9,5.1c-0.3,0.4-0.5,0.8-0.7,1.1C10.4-16.8,9-13.6,9-11
				c-0.2-0.3-0.4-0.6-0.6-0.9c0-2.6,1.5-5.6,2.8-7.9c0.2-0.4,0.5-0.8,0.7-1.1c1.8-2.7,4.3-5.1,4-5.1l0,0c0,0-0.1,0,0,0
				c0,0,0,0-0.1,0c-0.5,0.4-2.3,2.4-3.9,5.1c-0.3,0.4-0.5,0.8-0.7,1.1c-1.3,2.3-2.7,5.3-2.8,7.9c-1.6-1.8-4.3-3.2-6.7-4.1
				c2.7-0.6,5.1-0.9,4.9-1l0,0c0,0-0.1,0,0,0c0,0,0,0-0.1,0c-0.5,0-2.6,0.3-5,1c-0.1,0-0.2-0.1-0.3-0.1c-0.4-0.1-0.8-0.3-1.2-0.4
				c0.1,0,0.1,0,0.2-0.1c3.1-0.9,6.5-1.2,6.3-1.4l0,0c0,0-0.1,0,0,0c0,0,0,0-0.1,0c-0.6-0.1-3.3,0.4-6.2,1.4c-0.1,0-0.1,0-0.2,0.1
				v-21.9c0.1,0,0.1,0,0.2,0.1c2.9,1,5.6,1.5,6.2,1.4c0.1,0,0.1,0,0.1,0c0,0,0,0,0,0l0,0c0.2-0.2-3.2-0.5-6.3-1.4
				c-0.1,0-0.1,0-0.2-0.1c0.4-0.1,0.8-0.2,1.2-0.4c0.1,0,0.2-0.1,0.3-0.1c2.4,0.7,4.4,1.1,5,1c0.1,0,0.1,0,0.1,0c0,0,0,0,0,0l0,0
				c0.2-0.2-2.3-0.4-4.9-1C4-40,6.7-41.3,8.3-43.2c0.1,2.6,1.5,5.6,2.8,7.9c0.2,0.4,0.5,0.8,0.7,1.1c1.7,2.6,3.4,4.7,3.9,5.1
				c0.1,0,0.1,0,0.1,0c-0.1,0,0,0,0,0l0,0c0.3,0-2.2-2.4-4-5.1c-0.2-0.4-0.5-0.8-0.7-1.1c-1.3-2.3-2.7-5.3-2.8-7.9
				c0.2-0.3,0.5-0.6,0.6-0.9c0,2.6,1.4,5.8,2.8,8.1c0.2,0.4,0.5,0.8,0.7,1.1c1.6,2.6,3.4,4.7,3.9,5.1c0.1,0,0.1,0,0.1,0
				c-0.1,0,0,0,0,0l0,0c0.3,0-2.2-2.4-4-5.1c-0.2-0.4-0.5-0.8-0.7-1.1C10.5-38.4,9-41.5,9-44.2c0.1-0.2,0.2-0.3,0.3-0.5l0,0
				c-0.1,0.2-0.1,0.3-0.2,0.4c0-0.5,0.1-0.9,0.2-1.4l0,0c-0.1,0.5-0.2,1-0.2,1.5c-0.2,0.3-0.4,0.6-0.7,0.9c0-0.4,0-0.8,0.1-1.1
				c0.3-0.4,0.6-0.8,0.8-1.3l0,0c-0.2,0.4-0.4,0.8-0.7,1.2c0-0.2,0.1-0.3,0.1-0.5l0,0c-0.1,0.2-0.1,0.4-0.1,0.6
				c-1.6,2.1-4.8,3.6-7.4,4.6c-0.4,0.1-0.7,0.3-1,0.4v-15.6h15.6c-0.1,0.3-0.2,0.7-0.4,1c-1,2.6-2.5,5.7-4.6,7.4
				c-0.2,0-0.4,0.1-0.6,0.1l0,0c0.2,0,0.3-0.1,0.5-0.1c-0.4,0.3-0.8,0.5-1.2,0.7l0,0c0.4-0.2,0.9-0.5,1.3-0.8
				c0.4-0.1,0.7-0.1,1.1-0.1c-0.3,0.3-0.6,0.5-0.9,0.7c-0.5,0-1,0.1-1.5,0.2l0,0c0.4-0.1,0.9-0.2,1.4-0.2c-0.1,0.1-0.3,0.2-0.4,0.2
				l0,0c0.2-0.1,0.3-0.2,0.5-0.3c2.6-0.1,5.8,1.4,8.2,2.8c0.4,0.2,0.8,0.5,1.1,0.7c2.7,1.8,5.1,4.3,5.1,4l0,0c0,0,0-0.1,0,0
				c0,0,0,0,0-0.1c-0.4-0.5-2.4-2.3-5.1-3.9c-0.4-0.3-0.8-0.5-1.1-0.7c-2.4-1.4-5.5-2.8-8.1-2.8c0.3-0.2,0.6-0.4,0.9-0.6
				c2.6,0,5.6,1.5,7.9,2.8c0.4,0.2,0.8,0.5,1.1,0.7c2.7,1.8,5.1,4.3,5.1,4l0,0c0,0,0-0.1,0,0c0,0,0,0,0-0.1
				c-0.4-0.5-2.4-2.3-5.1-3.9c-0.4-0.3-0.8-0.5-1.1-0.7c-2.3-1.3-5.3-2.7-7.9-2.8c1.8-1.6,3.2-4.3,4.1-6.7c0.6,2.7,0.9,5.1,1,4.9
				l0,0c0,0,0-0.1,0,0c0,0,0,0,0-0.1c0-0.5-0.3-2.6-1-5c0-0.1,0.1-0.2,0.1-0.3c0.1-0.4,0.3-0.8,0.4-1.2c0,0.1,0,0.1,0.1,0.2
				c0.9,3.1,1.2,6.5,1.4,6.3l0,0c0,0,0-0.1,0,0c0,0,0,0,0-0.1c0.1-0.6-0.4-3.3-1.4-6.2c0-0.1,0-0.1-0.1-0.2h21.9
				c0,0.1,0,0.1-0.1,0.2c-1,2.9-1.5,5.6-1.4,6.2c0,0.1,0,0.1,0,0.1c0,0,0,0,0,0l0,0c0.2,0.2,0.5-3.2,1.4-6.3c0-0.1,0-0.1,0.1-0.2
				c0.1,0.4,0.2,0.8,0.4,1.2c0,0.1,0.1,0.2,0.1,0.3c-0.7,2.4-1.1,4.4-1,5c0,0.1,0,0.1,0,0.1c0,0,0,0,0,0l0,0c0.2,0.2,0.4-2.3,1-4.9
				c0.9,2.4,2.3,5.1,4.1,6.7c-2.6,0.1-5.6,1.5-7.9,2.8c-0.4,0.2-0.8,0.5-1.1,0.7c-2.6,1.7-4.7,3.4-5.1,3.9c0,0.1,0,0.1,0,0.1
				c0-0.1,0,0,0,0l0,0c0,0.3,2.4-2.2,5.1-4c0.4-0.2,0.8-0.5,1.1-0.7c2.3-1.3,5.3-2.7,7.9-2.8c0.3,0.2,0.6,0.5,0.9,0.6
				c-2.6,0-5.8,1.4-8.1,2.8c-0.4,0.2-0.8,0.5-1.1,0.7c-2.6,1.6-4.7,3.4-5.1,3.9c0,0.1,0,0.1,0,0.1c0-0.1,0,0,0,0l0,0
				c0,0.3,2.4-2.2,5.1-4c0.4-0.2,0.8-0.5,1.1-0.7c2.4-1.4,5.6-2.9,8.2-2.8c0.2,0.1,0.3,0.2,0.5,0.3l0,0c-0.2-0.1-0.3-0.1-0.4-0.2
				c0.5,0,0.9,0.1,1.4,0.2l0,0c-0.5-0.1-1-0.2-1.5-0.2c-0.3-0.2-0.6-0.4-0.9-0.7c0.4,0,0.8,0,1.1,0.1c0.4,0.3,0.8,0.6,1.3,0.8l0,0
				c-0.4-0.2-0.8-0.4-1.2-0.7c0.2,0,0.3,0.1,0.5,0.1l0,0c-0.2-0.1-0.4-0.1-0.6-0.1c-2.1-1.6-3.6-4.8-4.6-7.4c-0.1-0.4-0.3-0.7-0.4-1
				h15.6v15.6c-0.3-0.1-0.7-0.2-1-0.4c-2.6-1-5.7-2.5-7.4-4.6c0-0.2-0.1-0.4-0.1-0.6l0,0c0,0.2,0.1,0.3,0.1,0.5
				c-0.3-0.4-0.5-0.8-0.7-1.2l0,0c0.2,0.4,0.5,0.9,0.8,1.3c0.1,0.4,0.1,0.7,0.1,1.1c-0.3-0.3-0.5-0.6-0.7-0.9c0-0.5-0.1-1-0.2-1.5
				l0,0c0.1,0.4,0.2,0.9,0.2,1.4c-0.1-0.1-0.2-0.3-0.2-0.4l0,0c0.1,0.2,0.2,0.3,0.3,0.5c0.1,2.6-1.4,5.8-2.8,8.2
				c-0.2,0.4-0.5,0.8-0.7,1.1c-1.8,2.7-4.3,5.1-4,5.1l0,0c0,0,0.1,0,0,0c0,0,0,0,0.1,0c0.5-0.4,2.3-2.4,3.9-5.1
				c0.3-0.4,0.5-0.8,0.7-1.1c1.4-2.4,2.8-5.5,2.8-8.1c0.2,0.3,0.4,0.6,0.6,0.9c0,2.6-1.5,5.6-2.8,7.9c-0.2,0.4-0.5,0.8-0.7,1.1
				c-1.8,2.7-4.3,5.1-4,5.1l0,0c0,0,0.1,0,0,0c0,0,0,0,0.1,0c0.5-0.4,2.3-2.4,3.9-5.1c0.3-0.4,0.5-0.8,0.7-1.1
				c1.3-2.3,2.7-5.3,2.8-7.9c1.6,1.8,4.3,3.2,6.7,4.1c-2.7,0.6-5.1,0.9-4.9,1l0,0c0,0,0.1,0,0,0c0,0,0,0,0.1,0c0.5,0,2.6-0.3,5-1
				c0.1,0,0.2,0.1,0.3,0.1c0.4,0.1,0.8,0.3,1.2,0.4c-0.1,0-0.1,0-0.2,0.1c-3.1,0.9-6.5,1.2-6.3,1.4l0,0c0,0,0.1,0,0,0c0,0,0,0,0.1,0
				c0.6,0.1,3.3-0.4,6.2-1.4c0.1,0,0.1,0,0.2-0.1v21.9c-0.1,0-0.1,0-0.2-0.1c-2.9-1-5.6-1.5-6.2-1.4c-0.1,0-0.1,0-0.1,0c0,0,0,0,0,0
				l0,0c-0.2,0.2,3.2,0.5,6.3,1.4c0.1,0,0.1,0,0.2,0.1c-0.4,0.1-0.8,0.2-1.2,0.4c-0.1,0-0.2,0.1-0.3,0.1c-2.4-0.7-4.4-1.1-5-1
				c-0.1,0-0.1,0-0.1,0c0,0,0,0,0,0l0,0c-0.2,0.2,2.3,0.4,4.9,1c-2.4,0.9-5.1,2.3-6.7,4.1c-0.1-2.6-1.5-5.6-2.8-7.9
				c-0.2-0.4-0.5-0.8-0.7-1.1c-1.7-2.6-3.4-4.7-3.9-5.1c-0.1,0-0.1,0-0.1,0c0.1,0,0,0,0,0l0,0c-0.3,0,2.2,2.4,4,5.1
				c0.2,0.4,0.5,0.8,0.7,1.1c1.3,2.3,2.7,5.3,2.8,7.9c-0.2,0.3-0.5,0.6-0.6,0.9c0-2.6-1.4-5.8-2.8-8.1c-0.2-0.4-0.5-0.8-0.7-1.1
				c-1.6-2.6-3.4-4.7-3.9-5.1c-0.1,0-0.1,0-0.1,0c0.1,0,0,0,0,0l0,0c-0.3,0,2.2,2.4,4,5.1c0.2,0.4,0.5,0.8,0.7,1.1
				c1.4,2.4,2.9,5.6,2.8,8.2c-0.1,0.2-0.2,0.3-0.3,0.5l0,0c0.1-0.2,0.1-0.3,0.2-0.4c0,0.5-0.1,0.9-0.2,1.4l0,0
				c0.1-0.5,0.2-1,0.2-1.5c0.2-0.3,0.4-0.6,0.7-0.9c0,0.4,0,0.8-0.1,1.1c-0.3,0.4-0.6,0.8-0.8,1.3l0,0c0.2-0.4,0.4-0.8,0.7-1.2
				c0,0.2-0.1,0.3-0.1,0.5l0,0c0.1-0.2,0.1-0.4,0.1-0.6c1.6-2.1,4.8-3.6,7.4-4.6c0.4-0.1,0.7-0.3,1-0.4V0H39.5
				c0.1-0.3,0.2-0.7,0.4-1c1-2.6,2.5-5.7,4.6-7.4c0.2,0,0.4-0.1,0.6-0.1l0,0c-0.2,0-0.3,0.1-0.5,0.1c0.4-0.3,0.8-0.5,1.2-0.7l0,0
				c-0.4,0.2-0.9,0.5-1.3,0.8c-0.4,0.1-0.7,0.1-1.1,0.1c0.3-0.3,0.6-0.5,0.9-0.7c0.5,0,1-0.1,1.5-0.2l0,0c-0.4,0.1-0.9,0.2-1.4,0.2
				c0.1-0.1,0.3-0.2,0.4-0.2l0,0c-0.2,0.1-0.3,0.2-0.5,0.3c-2.6,0.1-5.8-1.4-8.2-2.8c-0.4-0.2-0.8-0.5-1.1-0.7
				c-2.7-1.8-5.1-4.3-5.1-4l0,0c0,0,0,0.1,0,0c0,0,0,0,0,0.1c0.4,0.5,2.4,2.3,5.1,3.9c0.4,0.3,0.8,0.5,1.1,0.7
				c2.4,1.4,5.5,2.8,8.1,2.8c-0.3,0.2-0.6,0.4-0.9,0.6c-2.6,0-5.6-1.5-7.9-2.8c-0.4-0.2-0.8-0.5-1.1-0.7c-2.7-1.8-5.1-4.3-5.1-4l0,0
				c0,0,0,0.1,0,0c0,0,0,0,0,0.1c0.4,0.5,2.4,2.3,5.1,3.9c0.4,0.3,0.8,0.5,1.1,0.7c2.3,1.3,5.3,2.7,7.9,2.8C41.3-6.7,40-4,39-1.6
				c-0.6-2.7-0.9-5.1-1-4.9l0,0c0,0,0,0.1,0,0c0,0,0,0,0,0.1c0,0.5,0.3,2.6,1,5c0,0.1-0.1,0.2-0.1,0.3C38.7-0.8,38.6-0.4,38.5,0
				c0-0.1,0-0.1-0.1-0.2c-0.9-3.1-1.2-6.5-1.4-6.3l0,0c0,0,0,0.1,0,0c0,0,0,0,0,0.1c-0.1,0.6,0.4,3.3,1.4,6.2
				C38.5-0.1,38.5-0.1,38.5,0z M41.4-27.6c-0.8,0.9-1.2,1.4-1.1,1.4l0,0c0,0,0.1,0,0,0c0,0,0,0,0.1,0c0.2-0.1,0.6-0.6,1.2-1.2
				c0.8,0.9,1.8,2.2,2.7,3.5c0.2,0.4,0.5,0.8,0.7,1.2c1.6,2.8,3.4,6.8,2.6,9.7l0,0c0.9-2.9-0.9-6.8-2.6-9.7
				c-0.2-0.4-0.5-0.8-0.7-1.2c-0.9-1.5-1.9-2.7-2.6-3.7c0.7-0.9,1.7-2.2,2.6-3.7c0.3-0.4,0.5-0.8,0.7-1.2c1.6-2.8,3.4-6.8,2.6-9.7
				l0,0c0.9,2.9-0.9,6.8-2.6,9.7c-0.2,0.4-0.5,0.8-0.7,1.2c-0.9,1.3-1.9,2.6-2.7,3.5c-0.5-0.6-1-1.1-1.2-1.2c-0.1,0-0.1,0-0.1,0
				c0.1,0,0,0,0,0l0,0C40.2-29,40.7-28.4,41.4-27.6z M13.7-27.6c0.8-0.9,1.2-1.4,1.1-1.4l0,0c0,0-0.1,0,0,0c0,0,0,0-0.1,0
				c-0.2,0.1-0.6,0.6-1.2,1.2c-0.8-0.9-1.8-2.2-2.7-3.5c-0.2-0.4-0.5-0.8-0.7-1.2c-1.6-2.8-3.4-6.8-2.6-9.7l0,0
				c-0.9,2.9,0.9,6.8,2.6,9.7c0.2,0.4,0.5,0.8,0.7,1.2c0.9,1.5,1.9,2.7,2.6,3.6c-0.7,0.9-1.7,2.2-2.6,3.6c-0.3,0.4-0.5,0.8-0.7,1.2
				c-1.6,2.8-3.4,6.8-2.6,9.7l0,0c-0.9-2.9,0.9-6.8,2.6-9.7c0.2-0.4,0.5-0.8,0.7-1.2c0.9-1.3,1.9-2.6,2.7-3.5c0.5,0.6,1,1.1,1.2,1.2
				c0.1,0,0.1,0,0.1,0c-0.1,0,0,0,0,0l0,0C14.9-26.1,14.4-26.7,13.7-27.6z M27.4-41.6c-0.6,0.5-1.1,1-1.2,1.2c0,0.1,0,0.1,0,0.1
				c0-0.1,0,0,0,0l0,0c0,0.1,0.6-0.4,1.4-1.1c0.9,0.8,1.4,1.2,1.4,1.1l0,0c0,0,0-0.1,0,0c0,0,0,0,0-0.1c-0.1-0.2-0.6-0.6-1.2-1.2
				c0.9-0.8,2.2-1.8,3.5-2.7c0.4-0.2,0.8-0.5,1.2-0.7c2.8-1.6,6.8-3.4,9.7-2.6l0,0c-2.9-0.9-6.8,0.9-9.7,2.6
				c-0.4,0.2-0.8,0.5-1.2,0.7c-1.5,0.9-2.7,1.9-3.7,2.6c-0.9-0.7-2.2-1.7-3.7-2.6c-0.4-0.3-0.8-0.5-1.2-0.7
				c-2.8-1.6-6.8-3.4-9.7-2.6l0,0c2.9-0.9,6.8,0.9,9.7,2.6c0.4,0.2,0.8,0.5,1.2,0.7C25.2-43.4,26.5-42.4,27.4-41.6z M23.9-10.8
				c1.5-0.9,2.7-1.9,3.6-2.6c0.9,0.7,2.2,1.7,3.6,2.6c0.4,0.3,0.8,0.5,1.2,0.7c2.8,1.6,6.8,3.4,9.7,2.6l0,0
				c-2.9,0.9-6.8-0.9-9.7-2.6c-0.4-0.2-0.8-0.5-1.2-0.7c-1.3-0.9-2.6-1.9-3.5-2.7c0.6-0.5,1.1-1,1.2-1.2c0-0.1,0-0.1,0-0.1
				c0,0.1,0,0,0,0l0,0c0-0.1-0.6,0.4-1.4,1.1c-0.9-0.8-1.4-1.2-1.4-1.1l0,0c0,0,0,0.1,0,0c0,0,0,0,0,0.1c0.1,0.2,0.6,0.6,1.2,1.2
				C26.5-12.8,25.2-11.7,23.9-10.8c-0.4,0.2-0.8,0.5-1.2,0.7c-2.8,1.6-6.8,3.4-9.7,2.6l0,0c2.9,0.9,6.8-0.9,9.7-2.6
				C23.1-10.3,23.5-10.6,23.9-10.8z"/>
			<path class="st0" d="M16.1-1.5c-0.1,0.4-0.2,0.8-0.4,1.2c0,0.1-0.1,0.2-0.1,0.3h1c-0.1-0.4-0.3-0.8-0.4-1.1
				C16.2-1.2,16.1-1.4,16.1-1.5z"/>
			<path d="M18.1-48.7C18.1-48.7,18.1-48.7,18.1-48.7c0.1-0.7-0.4-3.4-1.4-6.3C17.6-51.8,17.9-48.4,18.1-48.7z"/>
			<path d="M16.7-55c0-0.1,0-0.1-0.1-0.2c0,0,0,0,0,0C16.6-55.1,16.7-55,16.7-55z"/>
			<path d="M18.1-48.7L18.1-48.7C18.1-48.7,18.1-48.7,18.1-48.7z"/>
			<path d="M16.1-53.7c-0.1-0.4-0.2-0.8-0.4-1.2C15.9-54.4,16-54,16.1-53.7C16.1-53.6,16.1-53.6,16.1-53.7z"/>
			<path d="M17.1-48.6L17.1-48.6C17.1-48.6,17.1-48.6,17.1-48.6z"/>
			<path d="M15.7-54.9c0-0.1-0.1-0.2-0.1-0.3c0,0,0,0,0,0C15.7-55,15.7-55,15.7-54.9z"/>
			<path d="M17.1-48.6C17.1-48.6,17.1-48.6,17.1-48.6c0.1-0.6-0.3-2.6-1-5c0,0,0,0.1,0,0.1C16.7-50.8,16.9-48.4,17.1-48.6z"/>
			<path d="M37.1-48.6L37.1-48.6C37-48.7,37-48.7,37.1-48.6z"/>
			<path d="M37-48.8C37-48.7,37.1-48.7,37-48.8c0.2,0.3,0.5-3.1,1.4-6.2C37.5-52,37-49.4,37-48.8z"/>
			<path d="M38.5-55.1C38.5-55.1,38.5-55.1,38.5-55.1c0,0.1,0,0.1-0.1,0.2C38.5-55,38.5-55.1,38.5-55.1z"/>
			<path d="M39-53.7C39-53.6,39-53.6,39-53.7c0.1-0.3,0.3-0.8,0.4-1.2C39.3-54.5,39.1-54.1,39-53.7z"/>
			<path d="M39.5-55.1C39.5-55.1,39.5-55.1,39.5-55.1c0,0.1-0.1,0.2-0.1,0.2C39.4-55,39.5-55,39.5-55.1z"/>
			<path d="M38-48.6L38-48.6C38-48.6,38-48.6,38-48.6z"/>
			<path d="M38-48.7C38-48.6,38-48.6,38-48.7c0.2,0.3,0.4-2.2,1.1-4.9c0,0,0-0.1,0-0.1C38.3-51.2,38-49.2,38-48.7z"/>
			<path d="M55-38.4c0.1,0,0.1,0,0.2-0.1c0,0,0,0,0,0C55.1-38.5,55-38.5,55-38.4z"/>
			<path d="M48.7-37.1L48.7-37.1C48.7-37,48.7-37,48.7-37.1z"/>
			<path d="M48.7-37.1C48.7-37.1,48.7-37,48.7-37.1c0.7,0.1,3.4-0.4,6.3-1.4C51.8-37.5,48.4-37.3,48.7-37.1z"/>
			<path d="M48.6-38L48.6-38C48.6-38,48.6-38,48.6-38z"/>
			<path d="M53.7-39c0.4-0.1,0.8-0.2,1.2-0.4C54.4-39.3,54-39.2,53.7-39C53.6-39,53.6-39,53.7-39z"/>
			<path d="M48.6-38C48.6-38,48.6-38,48.6-38c0.6,0.1,2.6-0.3,5-1c0,0-0.1,0-0.1,0C50.8-38.4,48.4-38.2,48.6-38z"/>
			<path d="M54.9-39.4c0.1,0,0.2-0.1,0.3-0.1c0,0,0,0,0,0C55-39.5,55-39.4,54.9-39.4z"/>
			<path d="M48.6-18.1L48.6-18.1C48.7-18.1,48.7-18.1,48.6-18.1z"/>
			<path d="M55.1-16.6C55.1-16.6,55.1-16.6,55.1-16.6c-0.1,0-0.1,0-0.2-0.1C55-16.7,55.1-16.6,55.1-16.6z"/>
			<path d="M48.8-18.1C48.7-18.1,48.7-18.1,48.8-18.1c-0.3,0.2,3.1,0.5,6.2,1.4C52-17.6,49.4-18.1,48.8-18.1z"/>
			<path d="M48.6-17.1L48.6-17.1C48.6-17.1,48.6-17.1,48.6-17.1z"/>
			<path d="M48.7-17.1C48.6-17.1,48.6-17.1,48.7-17.1c-0.3,0.2,2.2,0.4,4.9,1.1c0,0,0.1,0,0.1,0C51.2-16.8,49.2-17.2,48.7-17.1z"/>
			<path d="M53.7-16.1C53.6-16.1,53.6-16.1,53.7-16.1c0.3,0.1,0.8,0.3,1.2,0.4C54.5-15.9,54.1-16,53.7-16.1z"/>
			<path d="M55.1-15.6C55.1-15.6,55.1-15.6,55.1-15.6c-0.1,0-0.2-0.1-0.2-0.1C55-15.7,55-15.7,55.1-15.6z"/>
			<path d="M45.9-44.7L45.9-44.7c0,0.2,0.1,0.4,0.2,0.5c0,0,0-0.1,0-0.1C46-44.4,45.9-44.6,45.9-44.7z"/>
			<path d="M53.7-39C53.6-39,53.6-39,53.7-39c-2.5-1-5.3-2.4-6.9-4.2c0,0,0,0,0,0c1.6,1.8,4.3,3.2,6.7,4.1C53.6-39,53.6-39,53.7-39
				c0.1,0.1,0.2,0.1,0.3,0.1c0.4,0.1,0.8,0.3,1.2,0.4c0,0,0,0,0,0v0c-0.4-0.1-0.8-0.3-1.1-0.4C53.9-38.9,53.8-39,53.7-39z"/>
			<path d="M46.8-43.3c-0.3-0.3-0.5-0.6-0.7-0.9c0,0,0,0,0,0.1C46.3-43.8,46.5-43.5,46.8-43.3C46.8-43.2,46.8-43.3,46.8-43.3z"/>
			<path d="M45.9-45.7L45.9-45.7c0.2,0.5,0.4,0.9,0.7,1.3c0,0,0-0.1,0-0.1C46.4-44.9,46.1-45.3,45.9-45.7z"/>
			<path d="M46.7-44.4C46.7-44.4,46.7-44.4,46.7-44.4c1.7,2.1,4.8,3.6,7.3,4.6c0.3,0.1,0.7,0.2,1.1,0.4c0,0,0,0,0,0v0
				c-0.3-0.1-0.7-0.2-1-0.4C51.5-40.8,48.3-42.3,46.7-44.4z"/>
			<path d="M46.7-44.3C46.7-44.4,46.7-44.4,46.7-44.3c0-0.3-0.1-0.4-0.1-0.6l0,0c0,0.2,0.1,0.3,0.1,0.5
				C46.7-44.5,46.7-44.4,46.7-44.3c0,0.3,0,0.7,0,1.1c0,0,0,0,0,0c0,2.6-1.5,5.6-2.8,7.9c-0.2,0.4-0.5,0.8-0.7,1.1
				c0.3-0.4,0.5-0.8,0.7-1.1c1.3-2.3,2.7-5.3,2.8-7.9c0,0,0,0,0,0C46.8-43.6,46.8-44,46.7-44.3z"/>
			<path d="M39.3-29.1L39.3-29.1C39.3-29,39.3-29.1,39.3-29.1z"/>
			<path d="M39.3-29.1C39.3-29.1,39.3-29.1,39.3-29.1c0.6-0.4,2.3-2.5,4-5.1C41.4-31.5,39-29.1,39.3-29.1z"/>
			<path d="M45.9-45.7L45.9-45.7c0.1,0.4,0.2,0.9,0.2,1.4c0,0,0,0.1,0,0.1c0.1,2.6-1.4,5.8-2.8,8.2c-0.2,0.4-0.5,0.8-0.7,1.1
				c0.3-0.4,0.5-0.8,0.7-1.1c1.4-2.4,2.8-5.5,2.8-8.1c0,0,0,0,0-0.1C46.1-44.7,46-45.2,45.9-45.7z"/>
			<path d="M38.6-29.7L38.6-29.7C38.6-29.7,38.7-29.7,38.6-29.7z"/>
			<path d="M38.6-29.7C38.6-29.7,38.6-29.7,38.6-29.7c0.6-0.4,2.4-2.5,4-5.1C40.8-32.1,38.3-29.7,38.6-29.7z"/>
			<path d="M40.3-26.1C40.3-26.1,40.4-26.1,40.3-26.1c0.3-0.2,0.7-0.6,1.2-1.3c0-0.1-0.1-0.1-0.1-0.2C40.7-26.7,40.2-26.1,40.3-26.1
				z"/>
			<path d="M44.3-31.2c-0.9,1.3-1.9,2.6-2.7,3.5c0,0.1,0.1,0.1,0.1,0.2C42.5-28.5,43.4-29.8,44.3-31.2z"/>
			<path d="M47.6-42.1L47.6-42.1c0.8,2.9-1,6.8-2.6,9.7c-0.2,0.4-0.5,0.8-0.7,1.2c0.3-0.4,0.5-0.8,0.7-1.2
				C46.7-35.2,48.5-39.2,47.6-42.1z"/>
			<path d="M40.3-26.1L40.3-26.1C40.3-26.1,40.4-26.1,40.3-26.1z"/>
			<path d="M43.2-46.8c0.3,0.2,0.6,0.5,0.9,0.6c0,0,0,0,0.1,0C43.9-46.3,43.6-46.5,43.2-46.8C43.3-46.8,43.2-46.8,43.2-46.8z"/>
			<path d="M44.7-45.8L44.7-45.8c-0.1-0.1-0.3-0.2-0.4-0.3c0,0-0.1,0-0.1,0C44.4-46,44.5-45.9,44.7-45.8z"/>
			<path d="M38.9-54c0,0.1,0.1,0.2,0.1,0.3c0,0,0,0.1,0,0.1c0.9,2.4,2.3,5.1,4.1,6.7c0,0,0,0,0,0c-1.9-1.6-3.3-4.4-4.2-6.8
				c0,0,0-0.1,0-0.1C39-53.8,38.9-53.9,38.9-54c-0.1-0.4-0.3-0.8-0.4-1.2h0c0,0,0,0,0,0C38.6-54.7,38.7-54.3,38.9-54z"/>
			<path d="M39.8-54.1c1,2.6,2.5,5.7,4.5,7.3c0,0,0,0,0.1,0C42.3-48.3,40.8-51.5,39.8-54.1c-0.1-0.4-0.2-0.7-0.3-1.1h0c0,0,0,0,0,0
				C39.6-54.8,39.7-54.4,39.8-54.1z"/>
			<path d="M45.7-45.9L45.7-45.9c-0.4-0.2-0.8-0.5-1.2-0.8c0,0-0.1,0-0.1,0C44.8-46.4,45.2-46.1,45.7-45.9z"/>
			<path d="M29-39.3L29-39.3C29.1-39.3,29-39.3,29-39.3z"/>
			<path d="M43.2-46.8C43.2-46.8,43.2-46.8,43.2-46.8c-2.6,0.1-5.6,1.5-7.9,2.8c-0.4,0.2-0.8,0.5-1.1,0.7c0.4-0.2,0.8-0.5,1.1-0.7
				C37.6-45.3,40.6-46.7,43.2-46.8C43.2-46.8,43.3-46.8,43.2-46.8c0.4,0,0.8,0.1,1.2,0.1c0,0,0.1,0,0.1,0c0.2,0,0.3,0.1,0.5,0.1l0,0
				c-0.2-0.1-0.4-0.1-0.6-0.1c0,0,0,0-0.1,0C44-46.8,43.6-46.8,43.2-46.8z"/>
			<path d="M29.1-39.4C29.1-39.3,29.1-39.3,29.1-39.4c0,0.4,2.4-2.1,5.1-3.9C31.5-41.6,29.5-39.9,29.1-39.4z"/>
			<path d="M29.8-38.7C29.7-38.6,29.7-38.6,29.8-38.7c0,0.4,2.4-2.1,5.1-3.9C32.2-40.9,30.1-39.2,29.8-38.7z"/>
			<path d="M29.7-38.6L29.7-38.6C29.7-38.7,29.7-38.6,29.7-38.6z"/>
			<path d="M36-43.3c-0.4,0.2-0.8,0.5-1.1,0.7C35.2-42.8,35.6-43.1,36-43.3c2.4-1.4,5.6-2.8,8.2-2.8c0,0,0.1,0,0.1,0
				c0.5,0,0.9,0.1,1.4,0.2l0,0c-0.5-0.1-1-0.2-1.5-0.2c0,0,0,0-0.1,0C41.5-46.2,38.3-44.7,36-43.3z"/>
			<path d="M31.2-44.3c-1.5,0.9-2.7,1.9-3.7,2.6c0.1,0,0.1,0.1,0.2,0.1C28.7-42.4,29.9-43.4,31.2-44.3z"/>
			<path d="M26.1-40.3L26.1-40.3C26.1-40.4,26.1-40.3,26.1-40.3z"/>
			<path d="M26.2-40.4C26.1-40.4,26.1-40.3,26.2-40.4c0,0.2,0.5-0.3,1.4-1c-0.1,0-0.1-0.1-0.2-0.1C26.8-41,26.3-40.6,26.2-40.4z"/>
			<path d="M42-47.6L42-47.6c-2.8-0.9-6.8,0.9-9.7,2.5c-0.4,0.2-0.8,0.5-1.2,0.7c0.4-0.2,0.8-0.5,1.2-0.7
				C35.2-46.7,39.2-48.4,42-47.6z"/>
			<path d="M11.9-46.8c-0.3,0.3-0.6,0.5-0.9,0.7c0,0,0,0,0.1,0C11.3-46.3,11.6-46.5,11.9-46.8C11.9-46.8,11.9-46.8,11.9-46.8z"/>
			<path d="M10.4-45.9L10.4-45.9c0.2,0,0.4-0.1,0.5-0.2c0,0-0.1,0-0.1,0C10.7-46,10.6-45.9,10.4-45.9z"/>
			<path d="M16.1-53.7C16.1-53.6,16.1-53.6,16.1-53.7c-1,2.5-2.4,5.3-4.2,6.9c0,0,0,0,0,0c1.8-1.6,3.2-4.3,4.1-6.7
				C16.1-53.6,16.1-53.6,16.1-53.7c0.1-0.1,0.1-0.2,0.1-0.3c0.1-0.4,0.3-0.8,0.4-1.2c0,0,0,0,0,0h0c-0.1,0.4-0.3,0.8-0.4,1.1
				C16.2-53.9,16.1-53.8,16.1-53.7z"/>
			<path d="M10.7-46.7C10.7-46.7,10.8-46.7,10.7-46.7c2.1-1.7,3.6-4.8,4.6-7.3c0.1-0.3,0.2-0.7,0.4-1.1c0,0,0,0,0,0h0
				c-0.1,0.3-0.2,0.7-0.4,1C14.3-51.5,12.8-48.3,10.7-46.7z"/>
			<path d="M9.4-45.9L9.4-45.9c0.5-0.2,0.9-0.4,1.3-0.7c0,0-0.1,0-0.1,0C10.3-46.4,9.9-46.1,9.4-45.9z"/>
			<path d="M26.1-39.3C26.1-39.3,26.1-39.3,26.1-39.3c-0.4-0.6-2.5-2.3-5.1-4C23.7-41.4,26.1-39,26.1-39.3z"/>
			<path d="M26.1-39.3L26.1-39.3C26.1-39.3,26.1-39.3,26.1-39.3z"/>
			<path d="M10.8-46.7C10.8-46.7,10.7-46.7,10.8-46.7c-0.3,0-0.4,0.1-0.6,0.1l0,0c0.2,0,0.3-0.1,0.5-0.1
				C10.7-46.7,10.7-46.7,10.8-46.7c0.3,0,0.7,0,1.1,0c0,0,0,0,0,0c2.6,0,5.6,1.5,7.9,2.8c0.4,0.2,0.8,0.5,1.1,0.7
				c-0.4-0.3-0.8-0.5-1.1-0.7c-2.3-1.3-5.3-2.7-7.9-2.8c0,0,0,0,0,0C11.5-46.8,11.1-46.8,10.8-46.7z"/>
			<path d="M25.4-38.6L25.4-38.6C25.4-38.6,25.4-38.7,25.4-38.6z"/>
			<path d="M25.4-38.6C25.4-38.6,25.4-38.6,25.4-38.6c-0.4-0.6-2.5-2.4-5.1-4C23-40.8,25.4-38.3,25.4-38.6z"/>
			<path d="M9.5-45.9L9.5-45.9c0.4-0.1,0.9-0.2,1.4-0.2c0,0,0.1,0,0.1,0c2.6-0.1,5.8,1.4,8.2,2.8c0.4,0.2,0.8,0.5,1.1,0.7
				c-0.4-0.3-0.8-0.5-1.1-0.7c-2.4-1.4-5.5-2.8-8.1-2.8c0,0,0,0-0.1,0C10.4-46.1,9.9-46,9.5-45.9z"/>
			<path d="M29-40.3L29-40.3C29-40.3,29-40.4,29-40.3z"/>
			<path d="M13.1-47.6L13.1-47.6c2.9-0.8,6.8,1,9.7,2.6c0.4,0.2,0.8,0.5,1.2,0.7c-0.4-0.3-0.8-0.5-1.2-0.7
				C19.9-46.7,15.9-48.5,13.1-47.6z"/>
			<path d="M27.6-41.4c0.9,0.8,1.4,1.2,1.4,1.1c0,0,0,0,0-0.1c-0.1-0.2-0.6-0.6-1.2-1.2c-0.1,0-0.1-0.1-0.2-0.1
				c-0.9-0.7-2.2-1.7-3.7-2.6c1.3,0.9,2.6,1.9,3.5,2.7C27.5-41.5,27.5-41.5,27.6-41.4z"/>
			<path d="M1.6-39.1C1.6-39.1,1.6-39.1,1.6-39.1C4-40,6.7-41.3,8.3-43.2c0,0,0,0,0,0C6.7-41.4,4-40,1.6-39.1z"/>
			<path d="M1.2-38.9c0.1,0,0.2-0.1,0.3-0.1c0,0,0,0,0,0C1.4-39,1.2-38.9,1.2-38.9c-0.4,0.1-0.8,0.3-1.2,0.4c0,0,0,0,0,0
				C0.4-38.6,0.8-38.7,1.2-38.9z"/>
			<path d="M8.4-43.2c0.2-0.3,0.5-0.6,0.6-0.9c0,0,0,0,0-0.1C8.8-43.9,8.6-43.6,8.4-43.2C8.4-43.3,8.4-43.2,8.4-43.2z"/>
			<path d="M9.3-44.7L9.3-44.7c-0.1,0.1-0.2,0.3-0.3,0.4c0,0,0,0.1,0,0.1C9.1-44.4,9.2-44.5,9.3-44.7z"/>
			<path d="M9.2-45.7L9.2-45.7c-0.2,0.4-0.5,0.8-0.7,1.2c0,0,0,0.1,0,0.1C8.8-44.8,9-45.2,9.2-45.7z"/>
			<path d="M1.1-39.8c2.6-1,5.7-2.5,7.3-4.5c0,0,0,0,0-0.1C6.8-42.3,3.6-40.8,1.1-39.8c-0.4,0.1-0.7,0.2-1.1,0.3c0,0,0,0,0,0
				C0.4-39.6,0.7-39.7,1.1-39.8z"/>
			<path d="M8.3-43.2C8.3-43.2,8.3-43.2,8.3-43.2c0.1,2.6,1.5,5.6,2.8,7.9c0.2,0.4,0.5,0.8,0.7,1.1c-0.2-0.4-0.5-0.8-0.7-1.1
				C9.8-37.6,8.4-40.6,8.3-43.2C8.4-43.2,8.4-43.3,8.3-43.2c0-0.4,0.1-0.8,0.1-1.2c0,0,0-0.1,0-0.1c0-0.2,0.1-0.3,0.1-0.5l0,0
				c-0.1,0.2-0.1,0.4-0.1,0.6c0,0,0,0,0,0.1C8.4-44,8.3-43.6,8.3-43.2z"/>
			<path d="M15.9-29L15.9-29C15.8-29.1,15.8-29,15.9-29z"/>
			<path d="M15.8-29.1C15.8-29.1,15.8-29.1,15.8-29.1c0.4,0-2.1-2.4-3.9-5.1C13.5-31.5,15.3-29.5,15.8-29.1z"/>
			<path d="M16.4-29.8C16.5-29.7,16.5-29.7,16.4-29.8c0.4,0-2.1-2.4-3.9-5.1C14.2-32.2,15.9-30.1,16.4-29.8z"/>
			<path d="M16.5-29.7L16.5-29.7C16.5-29.7,16.5-29.7,16.5-29.7z"/>
			<path d="M11.8-36c0.2,0.4,0.5,0.8,0.7,1.1C12.3-35.2,12.1-35.6,11.8-36C10.5-38.4,9-41.5,9-44.2c0,0,0-0.1,0-0.1
				c0-0.5,0.1-0.9,0.2-1.4l0,0c-0.1,0.5-0.2,1-0.2,1.5c0,0,0,0,0,0.1C9-41.5,10.4-38.3,11.8-36z"/>
			<path d="M14.7-26.2C14.8-26.1,14.8-26.1,14.7-26.2c0.2,0-0.3-0.5-1-1.4c0,0.1-0.1,0.1-0.1,0.2C14.1-26.8,14.5-26.3,14.7-26.2z"/>
			<path d="M7.5-42L7.5-42c-0.9,2.8,0.9,6.8,2.5,9.7c0.2,0.4,0.5,0.8,0.7,1.2c-0.2-0.4-0.5-0.8-0.7-1.2C8.5-35.2,6.7-39.2,7.5-42z"
				/>
			<path d="M10.8-31.2c0.9,1.5,1.9,2.7,2.6,3.6c0-0.1,0.1-0.1,0.1-0.2C12.8-28.7,11.7-29.9,10.8-31.2z"/>
			<path d="M14.8-26.1L14.8-26.1C14.7-26.1,14.8-26.1,14.8-26.1z"/>
			<path d="M9.3-10.4L9.3-10.4c0-0.2-0.1-0.4-0.2-0.5c0,0,0,0.1,0,0.1C9.1-10.7,9.2-10.6,9.3-10.4z"/>
			<path d="M1.5-16.1C1.5-16.1,1.5-16.1,1.5-16.1c-0.1-0.1-0.2-0.1-0.3-0.1c-0.4-0.1-0.8-0.3-1.2-0.4c0,0,0,0,0,0
				c0.4,0.1,0.8,0.3,1.1,0.4C1.2-16.2,1.4-16.1,1.5-16.1z"/>
			<path d="M8.3-11.9C8.3-11.9,8.3-11.9,8.3-11.9c-1.6-1.9-4.3-3.3-6.7-4.2c0,0,0,0,0,0C4-15.1,6.7-13.8,8.3-11.9z"/>
			<path d="M8.4-11.9c0.3,0.3,0.5,0.6,0.7,0.9c0,0,0,0,0-0.1C8.8-11.3,8.6-11.6,8.4-11.9C8.4-11.9,8.4-11.9,8.4-11.9z"/>
			<path d="M9.2-9.4L9.2-9.4C9-9.9,8.8-10.3,8.5-10.7c0,0,0,0.1,0,0.1C8.8-10.3,9-9.9,9.2-9.4z"/>
			<path d="M8.4-10.7C8.4-10.7,8.4-10.8,8.4-10.7c-1.7-2.1-4.8-3.6-7.3-4.6c-0.3-0.1-0.7-0.2-1.1-0.4c0,0,0,0,0,0
				c0.3,0.1,0.7,0.2,1,0.4C3.6-14.3,6.8-12.8,8.4-10.7z"/>
			<path d="M15.9-26.1C15.8-26.1,15.8-26.1,15.9-26.1c-0.6,0.4-2.4,2.5-4,5.1C13.7-23.7,16.1-26.1,15.9-26.1z"/>
			<path d="M15.9-26.1L15.9-26.1C15.8-26.1,15.8-26.1,15.9-26.1z"/>
			<path d="M8.4-10.8C8.4-10.8,8.4-10.7,8.4-10.8c0,0.3,0.1,0.4,0.1,0.6l0,0c0-0.2-0.1-0.3-0.1-0.5C8.5-10.7,8.5-10.7,8.4-10.8
				c0-0.3,0-0.7,0-1.1c0,0,0,0,0,0c0-2.6,1.5-5.6,2.8-7.9c0.2-0.4,0.5-0.8,0.7-1.1c-0.3,0.4-0.5,0.8-0.7,1.1
				c-1.3,2.3-2.7,5.3-2.8,7.9c0,0,0,0,0,0C8.3-11.5,8.4-11.1,8.4-10.8z"/>
			<path d="M16.5-25.4L16.5-25.4C16.5-25.4,16.5-25.4,16.5-25.4z"/>
			<path d="M9.2-9.5L9.2-9.5c-0.1-0.4-0.2-0.9-0.2-1.4c0,0,0-0.1,0-0.1c-0.1-2.6,1.4-5.8,2.8-8.2c0.2-0.4,0.5-0.8,0.7-1.1
				c-0.3,0.4-0.5,0.8-0.7,1.1C10.4-16.8,9-13.6,9-11c0,0,0,0,0,0.1C9-10.4,9.1-9.9,9.2-9.5z"/>
			<path d="M16.5-25.4C16.5-25.4,16.5-25.4,16.5-25.4c-0.6,0.4-2.4,2.5-4,5.1C14.4-23,16.8-25.4,16.5-25.4z"/>
			<path d="M14.8-29L14.8-29C14.8-29,14.7-29,14.8-29z"/>
			<path d="M14.8-29C14.8-29,14.8-29,14.8-29c-0.3,0.2-0.7,0.6-1.2,1.3c0,0.1-0.1,0.1-0.1,0.2c-0.7,0.9-1.7,2.2-2.6,3.6
				c0.9-1.3,1.9-2.6,2.7-3.5c0-0.1,0.1-0.1,0.1-0.2C14.4-28.4,14.9-29,14.8-29z"/>
			<path d="M7.5-13.1L7.5-13.1c-0.8-2.9,1-6.8,2.6-9.7c0.2-0.4,0.5-0.8,0.7-1.2c-0.3,0.4-0.5,0.8-0.7,1.2
				C8.4-19.9,6.6-15.9,7.5-13.1z"/>
			<path d="M16.2-1.2c0-0.1-0.1-0.2-0.1-0.3c0,0,0,0,0,0C16.1-1.4,16.2-1.2,16.2-1.2c0.1,0.4,0.3,0.8,0.4,1.2c0,0,0,0,0,0
				C16.5-0.4,16.4-0.8,16.2-1.2z"/>
			<path d="M16.1-1.6C16.1-1.6,16.1-1.6,16.1-1.6c-0.9-2.4-2.3-5.2-4.1-6.8c0,0,0,0,0,0C13.8-6.7,15.1-4,16.1-1.6z"/>
			<path d="M10.4-9.3L10.4-9.3c0.1,0.1,0.3,0.2,0.4,0.3c0,0,0.1,0,0.1,0C10.8-9.1,10.6-9.2,10.4-9.3z"/>
			<path d="M11.9-8.4C11.6-8.6,11.3-8.8,11-9c0,0,0,0-0.1,0C11.2-8.8,11.6-8.6,11.9-8.4C11.9-8.4,11.9-8.4,11.9-8.4z"/>
			<path d="M15.3-1.1c-1-2.6-2.5-5.7-4.5-7.3c0,0,0,0-0.1,0C12.8-6.8,14.3-3.6,15.3-1.1c0.1,0.4,0.2,0.7,0.3,1.1c0,0,0,0,0,0
				C15.5-0.4,15.4-0.7,15.3-1.1z"/>
			<path d="M9.5-9.2L9.5-9.2c0.4,0.2,0.8,0.5,1.2,0.7c0,0,0.1,0,0.1,0C10.3-8.8,9.9-9,9.5-9.2z"/>
			<path d="M26-15.8C26.1-15.8,26.1-15.8,26-15.8c0-0.4-2.4,2.1-5.1,3.9C23.6-13.5,25.7-15.3,26-15.8z"/>
			<path d="M11.9-8.3C11.9-8.3,11.9-8.3,11.9-8.3c2.6-0.1,5.6-1.5,7.9-2.8c0.4-0.2,0.8-0.5,1.1-0.7c-0.4,0.2-0.8,0.5-1.1,0.7
				C17.5-9.8,14.5-8.4,11.9-8.3C11.9-8.4,11.9-8.4,11.9-8.3c-0.4,0-0.8-0.1-1.2-0.1c0,0-0.1,0-0.1,0c-0.2,0-0.3-0.1-0.5-0.1l0,0
				c0.2,0.1,0.4,0.1,0.6,0.1c0,0,0,0,0.1,0C11.1-8.4,11.5-8.3,11.9-8.3z"/>
			<path d="M26.1-15.9L26.1-15.9C26.1-15.8,26.1-15.8,26.1-15.9z"/>
			<path d="M19.1-11.8c0.4-0.2,0.8-0.5,1.1-0.7C19.9-12.3,19.5-12.1,19.1-11.8C16.8-10.5,13.6-9,10.9-9c0,0-0.1,0-0.1,0
				c-0.5,0-0.9-0.1-1.4-0.2l0,0c0.5,0.1,1,0.2,1.5,0.2c0,0,0,0,0.1,0C13.6-9,16.8-10.4,19.1-11.8z"/>
			<path d="M25.3-16.4C25.4-16.5,25.4-16.5,25.3-16.4c0-0.4-2.4,2.1-5.1,3.9C22.9-14.2,25-15.9,25.3-16.4z"/>
			<path d="M25.4-16.5L25.4-16.5C25.4-16.5,25.4-16.5,25.4-16.5z"/>
			<path d="M29-14.7C29-14.8,29-14.8,29-14.7c0-0.2-0.5,0.3-1.4,1c0.1,0,0.1,0.1,0.2,0.1C28.4-14.1,28.8-14.5,29-14.7z"/>
			<path d="M13.1-7.5L13.1-7.5c2.8,0.9,6.8-0.9,9.7-2.5c0.4-0.2,0.8-0.5,1.2-0.7c-0.4,0.2-0.8,0.5-1.2,0.7
				C19.9-8.5,15.9-6.7,13.1-7.5z"/>
			<path d="M27.4-13.6c-0.9,0.8-2.2,1.8-3.5,2.7c1.5-0.9,2.7-1.9,3.6-2.6C27.5-13.5,27.5-13.5,27.4-13.6z"/>
			<path d="M29-14.8L29-14.8C29-14.7,29-14.8,29-14.8z"/>
			<path d="M43.3-8.4c0.3-0.3,0.6-0.5,0.9-0.7c0,0,0,0-0.1,0C43.8-8.8,43.5-8.6,43.3-8.4C43.2-8.4,43.3-8.4,43.3-8.4z"/>
			<path d="M39-1.5C39-1.5,39-1.5,39-1.5c-0.1,0.1-0.1,0.2-0.1,0.3c-0.1,0.4-0.3,0.8-0.4,1.2c0,0,0,0,0,0c0.1-0.4,0.3-0.8,0.4-1.1
				C38.9-1.2,39-1.4,39-1.5z"/>
			<path d="M43.2-8.3C43.2-8.3,43.2-8.3,43.2-8.3C41.3-6.7,40-4,39-1.6c0,0,0,0,0,0C40-4,41.4-6.7,43.2-8.3z"/>
			<path d="M44.7-9.3L44.7-9.3c-0.2,0-0.4,0.1-0.5,0.2c0,0,0.1,0,0.1,0C44.4-9.1,44.6-9.2,44.7-9.3z"/>
			<path d="M44.4-8.4C44.4-8.4,44.4-8.4,44.4-8.4c-2.1,1.7-3.6,4.8-4.6,7.3c-0.1,0.3-0.2,0.7-0.4,1.1c0,0,0,0,0,0
				c0.1-0.3,0.2-0.7,0.4-1C40.8-3.6,42.3-6.8,44.4-8.4z"/>
			<path d="M45.7-9.2L45.7-9.2c-0.5,0.2-0.9,0.4-1.3,0.7c0,0,0.1,0,0.1,0C44.9-8.8,45.3-9,45.7-9.2z"/>
			<path d="M29.1-15.9C29.1-15.8,29.1-15.8,29.1-15.9c0.4,0.6,2.5,2.4,5.1,4C31.5-13.7,29.1-16.1,29.1-15.9z"/>
			<path d="M29.1-15.9L29.1-15.9C29-15.8,29.1-15.8,29.1-15.9z"/>
			<path d="M44.3-8.4C44.4-8.4,44.4-8.4,44.3-8.4c0.3,0,0.4-0.1,0.6-0.1l0,0c-0.2,0-0.3,0.1-0.5,0.1C44.5-8.5,44.4-8.5,44.3-8.4
				c-0.3,0-0.7,0.1-1.1,0c0,0,0,0,0,0c-2.6,0-5.6-1.5-7.9-2.8c-0.4-0.2-0.8-0.5-1.1-0.7c0.4,0.3,0.8,0.5,1.1,0.7
				c2.3,1.3,5.3,2.7,7.9,2.8c0,0,0,0,0,0C43.6-8.3,44-8.4,44.3-8.4z"/>
			<path d="M45.7-9.2L45.7-9.2c-0.4,0.1-0.9,0.2-1.4,0.2c0,0-0.1,0-0.1,0c-2.6,0.1-5.8-1.4-8.2-2.8c-0.4-0.2-0.8-0.5-1.1-0.7
				c0.4,0.3,0.8,0.5,1.1,0.7c2.4,1.4,5.5,2.8,8.1,2.8c0,0,0,0,0.1,0C44.7-9,45.2-9.1,45.7-9.2z"/>
			<path d="M29.7-16.5L29.7-16.5C29.7-16.5,29.7-16.5,29.7-16.5z"/>
			<path d="M29.7-16.5C29.7-16.5,29.7-16.5,29.7-16.5c0.4,0.6,2.5,2.4,5.1,4C32.1-14.4,29.7-16.8,29.7-16.5z"/>
			<path d="M26.1-14.8L26.1-14.8C26.1-14.8,26.1-14.7,26.1-14.8z"/>
			<path d="M42.1-7.5L42.1-7.5c-2.9,0.8-6.8-1-9.7-2.6c-0.4-0.2-0.8-0.5-1.2-0.7c0.4,0.3,0.8,0.5,1.2,0.7
				C35.2-8.4,39.2-6.6,42.1-7.5z"/>
			<path d="M31.2-10.8c-1.3-0.9-2.6-1.9-3.5-2.7c-0.1,0-0.1-0.1-0.2-0.1c-0.9-0.8-1.4-1.2-1.4-1.1c0,0,0,0,0,0.1
				c0.1,0.2,0.6,0.6,1.2,1.2c0.1,0,0.1,0.1,0.2,0.1C28.5-12.7,29.8-11.7,31.2-10.8z"/>
			<path d="M45.8-10.4L45.8-10.4c0.1-0.1,0.2-0.3,0.3-0.4c0,0,0-0.1,0-0.1C46-10.8,45.9-10.6,45.8-10.4z"/>
			<path d="M54-16.2c-0.1,0-0.2,0.1-0.3,0.1c0,0-0.1,0-0.1,0c-2.4,0.9-5.1,2.3-6.7,4.1c0,0,0,0,0,0c1.6-1.9,4.4-3.3,6.8-4.2
				c0,0,0.1,0,0.1,0C53.8-16.1,53.9-16.2,54-16.2c0.4-0.1,0.8-0.3,1.2-0.4v0c0,0,0,0,0,0C54.7-16.5,54.3-16.4,54-16.2z"/>
			<path d="M46.8-11.9c-0.2,0.3-0.5,0.6-0.6,0.9c0,0,0,0,0,0.1C46.3-11.2,46.5-11.6,46.8-11.9C46.8-11.9,46.8-11.9,46.8-11.9z"/>
			<path d="M54.1-15.3c-2.6,1-5.7,2.5-7.3,4.5c0,0,0,0,0,0.1C48.3-12.8,51.5-14.3,54.1-15.3c0.4-0.1,0.7-0.2,1.1-0.3v0c0,0,0,0,0,0
				C54.8-15.5,54.4-15.4,54.1-15.3z"/>
			<path d="M45.9-9.5L45.9-9.5c0.2-0.4,0.5-0.8,0.8-1.2c0,0,0-0.1,0-0.1C46.4-10.3,46.1-9.9,45.9-9.5z"/>
			<path d="M46.8-11.9C46.8-11.9,46.8-11.9,46.8-11.9c-0.1-2.6-1.5-5.6-2.8-7.9c-0.2-0.4-0.5-0.8-0.7-1.1c0.2,0.4,0.5,0.8,0.7,1.1
				C45.3-17.5,46.7-14.5,46.8-11.9C46.8-11.9,46.8-11.9,46.8-11.9c0,0.4-0.1,0.8-0.1,1.2c0,0,0,0.1,0,0.1c0,0.2-0.1,0.3-0.1,0.5l0,0
				c0.1-0.2,0.1-0.4,0.1-0.6c0,0,0,0,0-0.1C46.8-11.1,46.8-11.5,46.8-11.9z"/>
			<path d="M39.3-26.1L39.3-26.1C39.3-26.1,39.3-26.1,39.3-26.1z"/>
			<path d="M39.4-26C39.3-26.1,39.3-26.1,39.4-26c-0.4,0,2.1,2.4,3.9,5.1C41.6-23.6,39.9-25.7,39.4-26z"/>
			<path d="M38.6-25.4L38.6-25.4C38.7-25.4,38.6-25.4,38.6-25.4z"/>
			<path d="M43.3-19.1c-0.2-0.4-0.5-0.8-0.7-1.1C42.8-19.9,43.1-19.5,43.3-19.1c1.4,2.4,2.8,5.6,2.8,8.2c0,0,0,0.1,0,0.1
				c0,0.5-0.1,0.9-0.2,1.4l0,0c0.1-0.5,0.2-1,0.2-1.5c0,0,0,0,0-0.1C46.2-13.6,44.7-16.8,43.3-19.1z"/>
			<path d="M38.7-25.3C38.6-25.4,38.6-25.4,38.7-25.3c-0.4,0,2.1,2.4,3.9,5.1C40.9-22.9,39.2-25,38.7-25.3z"/>
			<path d="M40.3-29L40.3-29C40.4-29,40.3-29,40.3-29z"/>
			<path d="M47.6-13.1L47.6-13.1c0.9-2.8-0.9-6.8-2.5-9.7c-0.2-0.4-0.5-0.8-0.7-1.2c0.2,0.4,0.5,0.8,0.7,1.2
				C46.7-19.9,48.4-15.9,47.6-13.1z"/>
			<path d="M44.3-23.9c-0.9-1.5-1.9-2.7-2.6-3.7c0-0.1-0.1-0.1-0.1-0.2c-0.5-0.6-1-1.1-1.2-1.2c-0.1,0-0.1,0-0.1,0
				c-0.1,0,0.4,0.6,1.1,1.4c0,0.1,0.1,0.1,0.1,0.2C42.4-26.5,43.4-25.2,44.3-23.9z"/>
			<path d="M6.4-37C6.4-37,6.5-37.1,6.4-37c0.3-0.2-3.1-0.5-6.2-1.4C3.1-37.5,5.7-37,6.4-37z"/>
			<path d="M0-38.5C0-38.5,0-38.5,0-38.5L0-38.5c0,0,0.1,0,0.2,0.1C0.1-38.5,0.1-38.5,0-38.5z"/>
			<path d="M6.5-37.1L6.5-37.1C6.4-37,6.5-37,6.5-37.1z"/>
			<path d="M0.3-39.4c0.4,0.1,0.8,0.3,1.2,0.4c0,0,0,0,0,0c2.4,0.7,4.4,1.1,5,1c0.1,0,0.1,0,0.1,0c0.2-0.2-2.3-0.4-4.9-1
				c0,0,0,0,0,0C1.1-39.2,0.7-39.3,0.3-39.4z"/>
			<path d="M0-39.5C0-39.5,0-39.5,0-39.5L0-39.5c0.1,0,0.2,0.1,0.2,0.1C0.2-39.4,0.1-39.5,0-39.5z"/>
			<path d="M6.6-38L6.6-38C6.5-38,6.5-38,6.6-38z"/>
			<path d="M6.5-18.1C6.5-18.1,6.4-18.1,6.5-18.1c-0.7-0.1-3.4,0.4-6.3,1.4C3.3-17.6,6.7-17.9,6.5-18.1z"/>
			<path d="M6.5-18.1L6.5-18.1C6.5-18.1,6.4-18.1,6.5-18.1z"/>
			<path d="M0.2-16.7c-0.1,0-0.1,0-0.2,0.1v0c0,0,0,0,0,0C0.1-16.6,0.1-16.7,0.2-16.7z"/>
			<path d="M0.3-15.7c0.4-0.1,0.9-0.2,1.3-0.3c0,0,0,0,0,0c2.7-0.6,5.1-0.9,4.9-1c0,0,0,0-0.1,0c-0.5,0-2.6,0.3-5,1c0,0,0,0,0,0
				C1.1-16,0.7-15.9,0.3-15.7z"/>
			<path d="M6.6-17.1L6.6-17.1C6.5-17.1,6.5-17.1,6.6-17.1z"/>
			<path d="M0.3-15.7c-0.1,0-0.2,0.1-0.3,0.1v0c0,0,0,0,0,0C0.1-15.7,0.2-15.7,0.3-15.7z"/>
			<path d="M38.4-0.2c0,0.1,0,0.1,0.1,0.2h0c0,0,0,0,0,0C38.5-0.1,38.5-0.1,38.4-0.2z"/>
			<path d="M37.1-6.5C37.1-6.5,37-6.4,37.1-6.5c-0.1,0.7,0.4,3.4,1.4,6.3C37.5-3.3,37.3-6.7,37.1-6.5z"/>
			<path d="M37.1-6.5L37.1-6.5C37-6.5,37-6.4,37.1-6.5z"/>
			<path d="M38-6.6L38-6.6C38-6.5,38-6.5,38-6.6z"/>
			<path d="M39.4-0.3c-0.1-0.4-0.2-0.9-0.3-1.3c0,0,0,0,0,0c-0.6-2.7-0.9-5.1-1-4.9c0,0,0,0,0,0.1c0,0.5,0.3,2.6,1,5c0,0,0,0,0,0
				C39.1-1.1,39.3-0.7,39.4-0.3z"/>
			<path d="M39.4-0.3c0,0.1,0.1,0.2,0.1,0.3h0c0,0,0,0,0,0C39.5-0.1,39.4-0.2,39.4-0.3z"/>
			<path d="M18.1-6.4C18.1-6.4,18.1-6.5,18.1-6.4c-0.2-0.3-0.5,3.1-1.4,6.2C17.6-3.1,18.1-5.7,18.1-6.4z"/>
			<path d="M18.1-6.5L18.1-6.5C18.1-6.4,18.1-6.5,18.1-6.5z"/>
			<path d="M16.6,0C16.6,0,16.6,0,16.6,0L16.6,0c0,0,0-0.1,0.1-0.2C16.7-0.1,16.6-0.1,16.6,0z"/>
			<path d="M15.6,0C15.6,0,15.6,0,15.6,0L15.6,0c0-0.1,0.1-0.2,0.1-0.2C15.7-0.2,15.7-0.1,15.6,0z"/>
			<path d="M17.1-6.6L17.1-6.6C17.1-6.5,17.1-6.5,17.1-6.6z"/>
			<path d="M15.7-0.3c0.1-0.4,0.3-0.8,0.4-1.2c0,0,0,0,0,0c0.7-2.4,1.1-4.4,1-5c0-0.1,0-0.1,0-0.1c-0.2-0.2-0.4,2.3-1,4.9
				c0,0,0,0,0,0C16-1.1,15.9-0.7,15.7-0.3z"/>
		</g>
	</g>
</pattern>
<g id="XMLID_1_">
	<g>
		<rect x="-0.5" y="-0.5" class="st1" width="120" height="144"/>
	</g>
	<g>
	</g>
</g>
<pattern  id="SVGID_1_" xlink:href="#New_Pattern_Swatch_21" patternTransform="matrix(1 0 0 1 -1 -1)">
</pattern>
<rect class="st2" width="119" height="143"/>
<rect x="90" y="5.1" class="st3" width="23" height="23"/>
<rect x="90" y="42" class="st3" width="23" height="23"/>
<rect x="90" y="66" class="st3" width="23" height="23"/>
<rect x="61" y="89" class="st3" width="23" height="23"/>
<rect x="5.5" y="89" class="st3" width="23" height="23"/>
<rect x="32.8" y="5.1" class="st3" width="23" height="23"/>
<rect x="32.8" y="31.8" class="st3" width="23" height="47.5"/>
<rect x="61" y="54.5" class="st3" width="23" height="23"/>
<rect x="61" y="30.5" class="st4" width="23" height="23"/>
<rect x="32.8" y="113.1" class="st3" width="23" height="23"/>
<g class="st5">
	<g>
		<defs>
			<rect id="SVGID_2_" x="66.3" y="34.3" width="12.8" height="15.4"/>
		</defs>
		<clipPath id="SVGID_3_">
			<use xlink:href="#SVGID_2_"  style="overflow:visible;"/>
		</clipPath>
		<path class="st6" d="M79,36.9c0-0.2-0.1-0.4-0.4-0.4c-0.9-0.1-1.9-0.4-2.8-0.7c-0.9-0.3-1.9-0.8-3-1.4c-0.1-0.1-0.3-0.1-0.4,0
			c-1.1,0.6-2.1,1.1-3,1.4c-0.9,0.3-1.8,0.6-2.8,0.7c-0.2,0-0.3,0.2-0.4,0.4c-0.1,3.8,0.8,7,2.5,9.4c1,1.3,2.2,2.4,3.6,3.2
			c0.1,0.1,0.3,0.1,0.4,0c1.4-0.8,2.6-1.9,3.6-3.2C78.3,43.9,79.1,40.7,79,36.9L79,36.9z M75.8,45.8C75,47,74,47.9,72.7,48.7
			c-1.3-0.8-2.3-1.7-3.2-2.9c-1.6-2.2-2.4-5.1-2.4-8.6c0.9-0.1,1.8-0.4,2.6-0.7c0.9-0.3,1.8-0.8,2.9-1.3c1,0.6,2,1,2.9,1.3
			c0.9,0.3,1.8,0.6,2.6,0.7C78.2,40.7,77.4,43.6,75.8,45.8L75.8,45.8z M75.8,45.8"/>
	</g>
</g>
<rect x="5.5" y="5.1" class="st3" width="23" height="71.6"/>
<path class="st7" d="M51.8,127.1c0,0.4-0.1,0.9-0.3,1.2C51.3,128,51.5,127.3,51.8,127.1 M24.7,124c1.1,0.4-0.6,0.4-0.7,0.6
	C24.1,124.3,24.4,124.1,24.7,124 M26.3,122.9c-0.3,0.1-1.3,1.1-0.3,0.9c0.2-0.1,1.1-0.8,1.1-1.1C27,122.3,26.4,122.8,26.3,122.9
	 M58.8,127.5c-0.2,1.5,0.6,3.1-0.1,4.6c-0.6,1.3-2.3,2-3.8,2.1c-1.1,0.1-3.4,0.2-4.3-0.7c-0.9-0.8-0.2-2.6-0.1-3.6
	c0.1,0,0.7-3,1-3.3c0.7-0.8,0.4-2.2,0.3-3c-0.2-1.2-1.1-1.8-0.7-3.1c0.6-1.7,0.6-2.3-0.6-3.9c-1-1.3,0-2.7-0.3-4.2
	c-0.3-1.9-0.7-3.7-0.5-5.6c0.1-0.6,0.6-1.1,0.5-1.7c-0.1-0.6-0.3-1.1-0.5-1.7c-0.3-1.2,1.1-2.9,0.3-3.9c-0.9-1.2-1.1-3.3-1.4-4.8
	c-0.2-0.9-0.4-1.8-0.8-2.6c-0.4-1-0.3-2.2-0.8-3.1c-0.7-1.5-0.9-3.2-1.4-4.8c-0.4-1.4-0.7-3.9-1.9-4.9c-1.8,0.6-1.6,2.3-1.6,3.8
	c0,1-0.6,1.9-0.6,2.9c0,0.6,0.2,1.3,0.2,1.9c0,0.8-0.5,1.4-0.5,2.2c0.1,1.3,0,2.5-0.2,3.8c-0.1,1.1-0.7,1.8-0.5,2.9
	c0.1,0.7-0.2,0.7-0.4,1.2c-0.2,0.5,0.3,0.9,0.2,1.5c-0.2,0.8,0.1,1.4-0.1,2.2c-0.2,0.9-0.3,2-0.3,2.9c0,1.2-0.6,2.1-0.8,3.2
	c-0.3,1.3-0.6,2.6-1.1,3.9c-0.5,1.4,0.2,2.4,0.4,3.8c0.1,1.3-0.5,2-1,3.2c-0.2,0.6-0.2,1.1-0.5,1.6c-0.2,0.5-0.4,1.1-0.4,1.6
	c0.1,1.2,0.4,2.4,0.4,3.6c-1.1,0.5-2.8,1.2-4,1.2c-2.5,0-3.6,1.8-6,2.3c-1.4,0.3-2.8,0.6-4.2,0.4c-0.8-0.1-3.3-1-1.9-2.1
	c0.4-0.3,0.3-0.9,0.7-1.2c0.4-0.4,0.9-0.8,1.3-1.1c0.6-0.5,1-1,1.6-1.4c0.9-0.5,1.4-1.4,2.2-2c0.8-0.6,1.6-0.7,2.1-1.6
	c0.4-0.7,1.3-1.2,1.1-2c-0.1-0.5-0.4-0.9-0.3-1.4c0.1-0.4,0.5-0.8,0.3-1.3c-0.1-0.3-0.7-0.2-0.3-0.7c0.2-0.3,0.7-0.4,0.7-0.8
	c0.1-0.9-0.2-2.1-0.4-2.9c-0.1-0.4,0.2-1.1,0.2-1.5c0-0.7-0.1-1.4,0-2.1c0.2-1.3,0.3-2.7,0.4-4c0.1-0.8-0.4-2.7,0.1-3.3
	c0.2-0.2,0.6-0.3,0.7-0.6c0.1-0.6-0.5-1-0.4-1.5c0.1-0.8,1.4,0,1.3-1.1c-0.1-0.7-0.2-0.9-0.1-1.5c0.1-0.9-0.4-1.9-0.3-2.8
	c0.1-1,0.6-2.1,0-3.1c-1-1.9-1.8-3.6-1.9-5.7c-0.1-1,0.1-1.9,0.2-2.9c0-0.9-1-0.9-1.7-1.3c-1.1-0.6-2.5-1.1-2.2-2.3
	c0.3-1.2,0.5-2.4,0.8-3.6c0.5-2.2,0.9-4.4,1.5-6.5c0.2-0.8,0.3-1.5,0.4-2.3c0.1-1,0.8-1.9,1.2-2.8c0.4-1,0.6-1.9,0.7-2.9
	c0.1-0.8,0.6-1.6,0.6-2.4c-0.9-0.1-1.4,0.3-2.4,0c-0.9-0.3-1.9-0.4-2.6-1.2c-1.1-1.2-2-2.5-2.2-4.1c-0.1-0.9,0-1.7,0.3-2.7
	c0.3-1.2,0.1-2.4,0.4-3.6c0.1-0.6,0.4-1.2,0.4-1.8c0-0.4-0.4-0.4-0.5-0.8c-0.1-0.4,0.3-0.7,0-1.1c-0.6-0.5-3.7,0.3-2.4-1.5
	c0.3-0.4-0.8-2.2-1-2.7c-0.3-0.8,1.1-1.3,1.7-1c1,0.4,1.9,0.1,2.8,0.5c0.5-1.9,0.1-3.7,2.1-4.8c2.6-1.5,5.2-1.9,8.1-2.8
	c0.4-0.1,4.2-1.2,3.6-2.2c-0.6-1.1-1.3-2.1-1.8-3.3c-0.2-0.5-0.5-1-0.7-1.5c-0.2-0.5-0.8-0.5-1.2-0.9c-0.6-0.7-1.1-2,0.2-2.4
	c1.2-0.4-1.9-5.9,0.5-7.2c2.7-3,6.7-2.3,10.2-1.3c2.3,0.6,2.2,5,3,6.7c0.3,0.7,0.5,3.2-0.3,3.7c-0.5,0.6-1,0.3-1.1,1.1
	c-0.1,0.6,0,1.3-0.1,1.9c-0.1,0.5,0.1,1.1,0.1,1.6c0,0.4,1.2,0.9,1.4,1.2c1.5,2.6,4.6,2,7.2,2.7c1.9,0.5,3.9,1.3,5.6,2.2
	c0.6,0.3,1.5,0.7,1.9,1.3c0.7,1.1,0.6,3.5,0.7,4.7c0.4,3.4,0.7,6.9,1.1,10.3c0.2,1.4-0.3,3-0.3,4.4c0,2-0.2,3.5-0.9,5.4
	c-0.6,1.4-0.8,3-1.4,4.4c-0.3,0.9-1.9,2.3-1.8,3.2c0,1,0.4,2,0.7,2.9c0.5,1.7,0.8,3.4,1.2,5.1c0.2,0.8,1.5,3.8,1,4.5
	c-0.5,0.8-1.5,1.4-2.2,1.9c-0.8,0.6-1.8,0.9-2.9,0.8c-1.3-0.1-1.1-1.2-1.4-2.1c-1,0.1-0.2,2.4-0.3,3.1c-0.2,1.5-0.5,2.6-0.2,4.1
	c0.3,1.4,0.3,2.7-0.2,4c-0.4,1.2,0,2.7,0.4,3.9c0.1,0.5-0.1,0.6-0.4,1c-0.2,0.4,0.1,0.7,0.2,1.1c0.1,0.6-0.1,1,0.3,1.5
	c0.4,0.6,0.5,1,0.4,1.7c-0.1,0.4-0.2,0.9,0.3,1.2c0.7,0.4-0.3,1.1,0.4,1.5c0.7,0.4,0.3,1.9,0.5,2.5c0.3,0.9,0.4,1.8,0.4,2.8
	c0,1.5,0.5,2.9,0.6,4.3c0.1,1.5,0.3,3.2,0.2,4.8c-0.1,1.3-0.7,1.6-1.8,2.2c-0.8,0.4,0,1.5,0.1,2.1c0.2,1.2,0.9,1.6,0.3,2.8
	c-0.2,0.3-0.2,0.5-0.6,0.7c-0.4,0.2-0.1,1.2-0.2,1.7C58.5,126,59.4,126.6,58.8,127.5"/>
<path class="st8" d="M19.9,68.8c0-1-0.5-1.8-1.2-2.4c0.4-1.4,0.7-3.3,0.7-5.5c0-1.8-0.2-3.5-0.5-4.9c2.1-0.1,3.8-0.5,4.9-1
	c0.3,0.5,0.7,0.9,1.2,0.9c0.8,0,1.4-0.9,1.4-2.1c0-1.2-0.6-2.1-1.4-2.1c-0.5,0-0.9,0.4-1.2,0.9c-1-0.5-2.6-0.8-4.5-1l1.3-38
	l-3.2-4.5l-3.1,4.4l0.5,38c-1.8,0.2-3.4,0.5-4.4,0.9c-0.3-0.5-0.7-0.9-1.2-0.9c-0.8,0-1.4,0.9-1.4,2.1C7.9,55,8.5,56,9.3,56
	c0.5,0,0.9-0.4,1.2-0.9c1.1,0.5,2.8,0.9,4.9,1c-0.3,1.3-0.5,3-0.5,4.9c0,2.1,0.2,4.1,0.6,5.5c-0.8,0.5-1.3,1.4-1.3,2.3
	c0,1.6,1.3,2.9,2.8,2.9C18.6,71.7,19.9,70.4,19.9,68.8L19.9,68.8z M15,14.6"/>
<g>
	<defs>
		<rect id="SVGID_4_" x="35.7" y="115.6" width="17.5" height="18"/>
	</defs>
	<clipPath id="SVGID_5_">
		<use xlink:href="#SVGID_4_"  style="overflow:visible;"/>
	</clipPath>
</g>
<g>
	<g>
		<defs>
			<rect id="SVGID_6_" x="71.6" y="119.7" width="15" height="16"/>
		</defs>
		<clipPath id="SVGID_7_">
			<use xlink:href="#SVGID_6_"  style="overflow:visible;"/>
		</clipPath>
	</g>
</g>
<path class="st9" d="M50.7,130.2c0.2-1.1,0.7-3.6-0.2-6.1c-0.2-0.7-0.3-3.5-0.2-4.3c0-0.3-0.1-0.5-0.5-0.5c-0.1,0-0.7,0-1.3,0
	c0-0.5,0-0.9,0-1.2c0-0.1,0-0.4-0.2-0.6c-0.1-0.2-0.3-0.2-0.6-0.2c-0.2,0-0.6,0-1,0c-0.6,0-1.3,0.1-1.6,0.1c0,0-0.1,0-0.1,0
	c0,0-0.1-0.1-0.1-0.1c-0.2-0.3-0.6-0.8-1.4-0.8c-0.1,0-0.1,0-0.2,0l0,0c-0.5,0-0.6,0.5-0.6,0.7c0,0.5,0,2.2,0,2.8
	c0,0.6-0.1,1.9-0.6,3.1c-0.5,1.4-1.3,2.1-2.4,2.2c-0.1,0-0.2,0-0.3,0c-0.7,0-1.1,0.1-1.9,0.3c-1.5,0.5-1.7,1.7-1.7,2.8l0,0l0,0.2
	l0,0.2l0,0c0,0.1,0,0.1,0,0.2c0,0.5,0.3,1.1,0.7,1.1c0,0,0.1,0,0.1,0c0.1,0,0.4,0.1,1,0.1c0,0.3,0,0.7,0,0.8c0,0.3,0.1,0.8,0.5,0.8
	c0.2,0,0.2,0.1,3.6,0.3c3.5,0.3,3.1,0.2,4,0.2c0.8,0,1.6-0.8,1.6-0.8v0.5c0,0.3,0.2,0.3,0.5,0.3c0.7,0,2.1,0,2.4,0
	c0.4,0,0.4-0.2,0.4-0.4C50.7,131.4,50.7,130.6,50.7,130.2L50.7,130.2z M36.8,129.4c-0.1,0-0.2-0.3-0.2-0.4c0-0.1,0-0.6,0-0.6
	c0-1.1,0.1-1.9,1.3-2.3c0.7-0.2,1.1-0.3,1.8-0.3c0.1,0,0.2,0,0.3,0c1.3-0.1,2.3-1,2.9-2.6c0.5-1.3,0.6-2.7,0.6-3.3
	c0-0.6,0-2.3,0-2.8c0-0.1,0-0.1,0.1-0.1l0,0c0.1,0,0.1,0,0.2,0c0.6,0,0.8,0.3,1,0.6c0.1,0.2,0.2,0.3,0.4,0.4c0,0,0.1,0,0.2,0
	c0.3,0,1,0,1.6-0.1c0.4,0,0.9,0,1,0c0.1,0,0.2,0,0.2,0c0,0,0,0,0,0.1c0,0.2,0,0.7,0,1.3c-0.5,0-1,0-1,0c-0.3,0-0.4-1.1-1.7-1
	c-0.1,0-0.3,0-0.3,0.4c0,1.1,0,2.8,0,2.8c-0.1,3.4-1.3,5.4-3.3,5.8c0,0,0,0,0,0c0,0-1.3,0.2-2.2,0.5c-0.7,0.2-1.1,0.6-1.3,1
	c-0.1,0.2-0.1,0.5-0.2,0.7c-0.6-0.1-0.9-0.1-1-0.1C36.9,129.4,36.9,129.4,36.8,129.4L36.8,129.4z M36.8,129.4"/>
<g class="st5">
	<path class="st10" d="M108.9,78.3c0-0.2-0.1-0.4-0.2-0.5c0.2-0.1,0.3-0.4,0.3-0.6c0-0.2-0.1-0.4-0.2-0.6c0.1-0.1,0.2-0.3,0.2-0.5
		c0-0.3-0.1-0.5-0.3-0.7c0.1-0.1,0.1-0.3,0.1-0.4c0-0.3-0.2-0.6-0.4-0.7c0-0.1,0.1-0.2,0.1-0.3c0-0.4-0.2-0.7-0.5-0.8
		c0-0.1,0-0.1,0-0.2c0-0.4-0.3-0.7-0.7-0.8c0,0,0-0.1,0-0.1c0-0.4-0.4-0.8-0.8-0.8c0-0.4-0.4-0.8-0.8-0.8c-0.2,0-0.3,0.1-0.5,0.1
		c-1-0.6-2.1-1-3.2-1v0c0-0.1-0.1-0.3-0.3-0.3c-0.1,0-0.3,0.1-0.3,0.3v0c-1.1,0-2.2,0.4-3.2,1c-0.1-0.1-0.3-0.1-0.5-0.1
		c-0.4,0-0.8,0.3-0.8,0.8c-0.4,0-0.8,0.4-0.8,0.8c0,0,0,0.1,0,0.1c-0.4,0.1-0.7,0.4-0.7,0.8c0,0.1,0,0.1,0,0.2
		C95.2,73.4,95,73.7,95,74c0,0.1,0,0.2,0.1,0.3c-0.3,0.1-0.4,0.4-0.4,0.7c0,0.2,0,0.3,0.1,0.4c-0.2,0.1-0.3,0.4-0.3,0.7
		c0,0.2,0.1,0.4,0.2,0.5c-0.2,0.1-0.2,0.4-0.2,0.6c0,0.2,0.1,0.4,0.3,0.6c-0.1,0.1-0.2,0.3-0.2,0.5c0,0.3,0.1,0.5,0.3,0.6
		c-0.1,0.2-0.2,0.4-0.2,0.6c0,0.4,0.3,0.8,0.6,0.9C95,80.6,95,80.8,95,81c0,0.6,0.5,1.1,1.1,1.2c0,0.1-0.1,0.3-0.1,0.4
		c0,0.7,0.6,1.3,1.3,1.3c0.2,0,0.3,0,0.4-0.1c0,0.8,0.6,1.4,1.4,1.4c0.4,0,0.7-0.1,1-0.4c0.2,0.6,0.8,1,1.4,1s1.2-0.4,1.4-1
		c0.3,0.2,0.6,0.4,1,0.4c0.8,0,1.4-0.6,1.4-1.4c0.1,0,0.3,0.1,0.4,0.1c0.7,0,1.3-0.6,1.3-1.3c0-0.1,0-0.3-0.1-0.4
		c0.6,0,1.1-0.5,1.1-1.2c0-0.2-0.1-0.4-0.2-0.6c0.4-0.1,0.6-0.5,0.6-0.9c0-0.2-0.1-0.4-0.2-0.6C108.8,78.8,108.9,78.5,108.9,78.3
		L108.9,78.3z M108.1,78.6C108.1,78.6,108,78.6,108.1,78.6C108,78.6,108,78.6,108.1,78.6c-0.2-0.1-0.3-0.2-0.3-0.3
		c0-0.2,0.1-0.3,0.3-0.3c0.2,0,0.3,0.1,0.3,0.3C108.4,78.4,108.2,78.6,108.1,78.6L108.1,78.6z M106.8,79.5c0,0.1,0,0.2,0.1,0.4
		c-0.5,0.1-0.9,0.6-0.9,1.1c0,0.1,0,0.2,0,0.2c0,0-0.1,0-0.1,0c-0.7,0-1.3,0.5-1.3,1.2c-0.2-0.1-0.4-0.1-0.6-0.1
		c-0.6,0-1.1,0.4-1.3,0.9c-0.3-0.3-0.6-0.4-1.1-0.4c-0.4,0-0.8,0.2-1.1,0.4c-0.2-0.5-0.7-0.9-1.3-0.9c-0.2,0-0.4,0-0.6,0.1
		c0-0.7-0.6-1.2-1.3-1.2c0,0-0.1,0-0.1,0c0-0.1,0-0.1,0-0.2c0-0.6-0.4-1-0.9-1.1c0-0.1,0.1-0.2,0.1-0.4c0-0.4-0.2-0.7-0.6-0.9
		c0.1-0.1,0.1-0.2,0.1-0.4c0-0.2-0.1-0.4-0.3-0.6c0.1-0.1,0.2-0.3,0.2-0.5c0-0.2-0.1-0.4-0.2-0.5c0.2-0.1,0.2-0.4,0.2-0.6
		c0-0.2,0-0.3-0.1-0.4c0.2-0.1,0.3-0.4,0.3-0.7c0-0.1,0-0.2-0.1-0.3c0.3-0.1,0.4-0.4,0.4-0.7c0-0.1,0-0.1,0-0.2
		c0.3-0.1,0.5-0.4,0.5-0.8c0,0,0-0.1,0-0.1c0.4-0.1,0.6-0.4,0.7-0.7c0.4,0,0.8-0.4,0.8-0.8c0-0.1,0-0.2,0-0.2
		c0.9-0.6,1.9-0.9,2.9-0.9c0,0.1,0.1,0.2,0.3,0.2c0.1,0,0.2-0.1,0.3-0.2c1,0,2,0.4,2.9,0.9c0,0.1,0,0.2,0,0.2c0,0.4,0.4,0.8,0.8,0.8
		c0,0.4,0.3,0.7,0.7,0.7c0,0,0,0.1,0,0.1c0,0.4,0.2,0.7,0.5,0.8c0,0.1,0,0.1,0,0.2c0,0.3,0.2,0.6,0.4,0.7c0,0.1-0.1,0.2-0.1,0.3
		c0,0.3,0.1,0.5,0.3,0.7c-0.1,0.1-0.1,0.3-0.1,0.4c0,0.2,0.1,0.4,0.2,0.6c-0.1,0.1-0.2,0.3-0.2,0.5c0,0.2,0.1,0.4,0.2,0.5
		c-0.2,0.1-0.3,0.4-0.3,0.6c0,0.1,0,0.2,0.1,0.4C107,78.8,106.8,79.1,106.8,79.5L106.8,79.5z M95.2,78.6
		C95.2,78.6,95.2,78.6,95.2,78.6c-0.2,0-0.3-0.1-0.3-0.3c0-0.2,0.1-0.3,0.3-0.3s0.3,0.1,0.3,0.3C95.5,78.4,95.4,78.5,95.2,78.6
		C95.3,78.6,95.2,78.6,95.2,78.6L95.2,78.6z M95.7,75c0,0.2-0.1,0.3-0.3,0.3s-0.3-0.1-0.3-0.3c0-0.2,0.1-0.3,0.3-0.3
		S95.7,74.9,95.7,75L95.7,75z M95.2,75.8c0.2,0,0.3,0.1,0.3,0.3c0,0.2-0.1,0.3-0.3,0.3c-0.2,0-0.3-0.1-0.3-0.3
		C94.9,75.9,95,75.8,95.2,75.8L95.2,75.8z M95.1,76.9c0.2,0,0.3,0.1,0.3,0.3s-0.1,0.3-0.3,0.3c-0.2,0-0.3-0.1-0.3-0.3
		S94.9,76.9,95.1,76.9L95.1,76.9z M108.2,77.5c-0.2,0-0.3-0.1-0.3-0.3s0.1-0.3,0.3-0.3c0.2,0,0.3,0.1,0.3,0.3S108.3,77.5,108.2,77.5
		L108.2,77.5z M107.8,76.1c0-0.2,0.1-0.3,0.3-0.3c0.2,0,0.3,0.1,0.3,0.3c0,0.2-0.1,0.3-0.3,0.3C107.9,76.4,107.8,76.3,107.8,76.1
		L107.8,76.1z M107.9,75.3c-0.2,0-0.3-0.1-0.3-0.3c0-0.2,0.1-0.3,0.3-0.3s0.3,0.1,0.3,0.3C108.2,75.2,108,75.3,107.9,75.3
		L107.9,75.3z M107.5,74.3c-0.2,0-0.3-0.1-0.3-0.3c0-0.2,0.1-0.3,0.3-0.3c0.2,0,0.3,0.1,0.3,0.3C107.8,74.2,107.7,74.3,107.5,74.3
		L107.5,74.3z M107.3,73.1c0,0.2-0.1,0.3-0.3,0.3c-0.2,0-0.3-0.1-0.3-0.3c0-0.2,0.1-0.3,0.3-0.3C107.1,72.8,107.3,72.9,107.3,73.1
		L107.3,73.1z M106.6,72.2c0,0.2-0.1,0.3-0.3,0.3c-0.2,0-0.3-0.1-0.3-0.3c0-0.2,0.1-0.3,0.3-0.3C106.5,71.9,106.6,72,106.6,72.2
		L106.6,72.2z M105.8,71.4c0,0.2-0.1,0.3-0.3,0.3s-0.3-0.1-0.3-0.3c0-0.2,0.1-0.3,0.3-0.3S105.8,71.3,105.8,71.4L105.8,71.4z
		 M97.7,71.1c0.2,0,0.3,0.1,0.3,0.3c0,0.2-0.1,0.3-0.3,0.3c-0.2,0-0.3-0.1-0.3-0.3C97.4,71.3,97.6,71.1,97.7,71.1L97.7,71.1z
		 M96.9,71.9c0.2,0,0.3,0.1,0.3,0.3c0,0.2-0.1,0.3-0.3,0.3c-0.2,0-0.3-0.1-0.3-0.3C96.7,72,96.8,71.9,96.9,71.9L96.9,71.9z
		 M96.3,72.8c0.2,0,0.3,0.1,0.3,0.3c0,0.2-0.1,0.3-0.3,0.3c-0.2,0-0.3-0.1-0.3-0.3C96,72.9,96.1,72.8,96.3,72.8L96.3,72.8z
		 M95.8,73.7c0.2,0,0.3,0.1,0.3,0.3c0,0.2-0.1,0.3-0.3,0.3c-0.2,0-0.3-0.1-0.3-0.3C95.5,73.9,95.6,73.7,95.8,73.7L95.8,73.7z
		 M95.3,79.1C95.3,79.1,95.4,79.1,95.3,79.1c0.1,0,0.1,0,0.1,0c0.3,0,0.5,0.2,0.5,0.5c0,0.2-0.1,0.3-0.2,0.4c0,0,0,0-0.1,0
		c-0.1,0-0.1,0-0.2,0c-0.3,0-0.5-0.2-0.5-0.5C95,79.3,95.1,79.1,95.3,79.1L95.3,79.1z M95.5,81c0-0.3,0.1-0.5,0.4-0.6c0,0,0,0,0,0
		c0.1,0,0.2,0,0.2,0c0.4,0,0.7,0.3,0.7,0.7c0,0.4-0.3,0.7-0.7,0.7C95.8,81.7,95.5,81.4,95.5,81L95.5,81z M96.5,82.6
		c0-0.4,0.4-0.8,0.8-0.8c0.4,0,0.8,0.4,0.8,0.8c0,0.4-0.4,0.8-0.8,0.8C96.9,83.4,96.5,83,96.5,82.6L96.5,82.6z M99.2,84.7
		c-0.5,0-0.9-0.4-0.9-0.9c0-0.5,0.4-0.9,0.9-0.9c0.5,0,0.9,0.4,0.9,0.9C100.2,84.3,99.8,84.7,99.2,84.7L99.2,84.7z M101.6,85.3
		c-0.5,0-1-0.4-1-1c0-0.5,0.4-1,1-1c0.5,0,1,0.4,1,1C102.6,84.8,102.2,85.3,101.6,85.3L101.6,85.3z M104,84.7
		c-0.5,0-0.9-0.4-0.9-0.9c0-0.5,0.4-0.9,0.9-0.9c0.5,0,0.9,0.4,0.9,0.9C105,84.3,104.5,84.7,104,84.7L104,84.7z M105.9,83.4
		c-0.4,0-0.8-0.4-0.8-0.8c0-0.4,0.4-0.8,0.8-0.8c0.4,0,0.8,0.4,0.8,0.8C106.7,83,106.4,83.4,105.9,83.4L105.9,83.4z M107.1,81.7
		c-0.4,0-0.7-0.3-0.7-0.7c0-0.4,0.3-0.7,0.7-0.7c0.1,0,0.2,0,0.2,0c0,0,0,0,0,0c0.2,0.1,0.4,0.3,0.4,0.6
		C107.8,81.4,107.5,81.7,107.1,81.7L107.1,81.7z M107.8,80c-0.1,0-0.1,0-0.2,0c0,0,0,0-0.1,0c-0.1-0.1-0.2-0.2-0.2-0.4
		c0-0.3,0.2-0.5,0.5-0.5c0,0,0.1,0,0.1,0c0,0,0,0,0,0c0.2,0.1,0.3,0.2,0.3,0.5C108.3,79.8,108.1,80,107.8,80L107.8,80z M107.8,80"/>
</g>
<g class="st5">
	<path class="st10" d="M104,48.7l0.2-0.2l0.4-0.3c0.2-0.1,0.3-0.3,0.3-0.5v0c0-0.2-0.1-0.3-0.2-0.5l-0.1-0.2l-0.6-0.8
		c-0.1-0.2-0.4-0.3-0.6-0.3h-3.6c-0.2,0-0.5,0.1-0.6,0.3L98.5,47l-0.2,0.2c-0.1,0.1-0.2,0.3-0.2,0.4v0c0,0.2,0.1,0.4,0.3,0.5
		l0.3,0.3l0.2,0.2c-2.6,1-4.3,3.4-4.3,6.1c0,3.6,3,6.6,6.8,6.6c3.7,0,6.8-3,6.8-6.6C108.3,52.1,106.6,49.6,104,48.7L104,48.7z
		 M98.8,47.9c-0.1-0.1-0.1-0.1-0.1-0.2l0,0c0,0,0-0.1,0.1-0.2l0.2-0.2l0.6-0.8c0.1-0.1,0.1-0.1,0.2-0.1h3.6c0.1,0,0.2,0,0.2,0.1
		l0.6,0.9l0.2,0.2c0.1,0.1,0.1,0.1,0.1,0.2l0,0c0,0.1,0,0.2-0.1,0.2l-0.4,0.3l-0.3,0.3l-1.7,1.6c0,0-0.2,0-0.4,0s-0.3,0-0.4,0
		l-1.7-1.6l-0.4-0.3L98.8,47.9z M101.5,60.9c-3.5,0-6.3-2.8-6.3-6.2c0-2.6,1.7-4.9,4.2-5.8l1.5,1.4c0,0,0.1,0.1,0.6,0.1
		c0.5,0,0.6-0.1,0.6-0.1l1.5-1.4c2.5,0.9,4.2,3.2,4.2,5.8C107.9,58.2,105,60.9,101.5,60.9L101.5,60.9z M101.5,60.9"/>
</g>
<g class="st5">
	<path class="st10" d="M72.8,73.6c-0.6,0-1-0.5-1-1v-0.3c-0.1,0-0.2,0-0.3-0.1l-0.1,0.2c-0.2,0.4-0.5,0.6-1,0.6
		c-0.1,0-0.3,0-0.4-0.1c-0.3-0.1-0.5-0.3-0.6-0.6c-0.1-0.3-0.1-0.5,0-0.8l0.1-0.2c-0.1-0.1-0.2-0.1-0.3-0.2L69,71.5
		c-0.2,0.2-0.5,0.3-0.7,0.3c-0.3,0-0.5-0.1-0.7-0.3c-0.2-0.2-0.3-0.5-0.3-0.7c0-0.3,0.1-0.5,0.3-0.7l0.2-0.2
		c-0.1-0.1-0.1-0.2-0.2-0.3l-0.2,0.1c-0.1,0.1-0.3,0.1-0.4,0.1c-0.4,0-0.8-0.3-1-0.6c-0.2-0.5,0-1.1,0.6-1.4l0.2-0.1
		c0-0.1,0-0.2-0.1-0.3h-0.3c-0.6,0-1-0.5-1-1c0-0.6,0.5-1,1-1h0.3c0-0.1,0-0.2,0.1-0.4l-0.2-0.1c-0.3-0.1-0.5-0.3-0.6-0.6
		c-0.1-0.3-0.1-0.5,0-0.8c0.2-0.4,0.5-0.6,1-0.6c0.1,0,0.3,0,0.4,0.1l0.2,0.1c0.1-0.1,0.1-0.2,0.2-0.3l-0.2-0.2
		c-0.2-0.2-0.3-0.5-0.3-0.7c0-0.3,0.1-0.5,0.3-0.7c0.2-0.2,0.5-0.3,0.7-0.3c0.3,0,0.5,0.1,0.7,0.3l0.2,0.2c0.1-0.1,0.2-0.1,0.3-0.2
		l-0.1-0.2c-0.1-0.3-0.1-0.5,0-0.8c0.1-0.3,0.3-0.5,0.6-0.6c0.1-0.1,0.3-0.1,0.4-0.1c0.4,0,0.8,0.3,1,0.6l0.1,0.2
		c0.1,0,0.2,0,0.3-0.1v-0.3c0-0.6,0.5-1,1-1c0.6,0,1,0.5,1,1v0.3c0.1,0,0.3,0,0.4,0.1l0.1-0.3c0.2-0.4,0.5-0.6,1-0.6
		c0.1,0,0.3,0,0.4,0.1c0.5,0.2,0.8,0.8,0.6,1.4L76.2,61c0.1,0.1,0.2,0.1,0.3,0.2l0.2-0.2c0.2-0.2,0.5-0.3,0.7-0.3
		c0.3,0,0.5,0.1,0.7,0.3c0.4,0.4,0.4,1.1,0,1.5l-0.2,0.2c0.1,0.1,0.1,0.2,0.2,0.3l0.3-0.1c0.1-0.1,0.3-0.1,0.4-0.1
		c0.4,0,0.8,0.3,1,0.6c0.2,0.5,0,1.1-0.6,1.4l-0.3,0.1c0,0.1,0,0.2,0.1,0.3h0.3c0.6,0,1,0.5,1,1c0,0.6-0.5,1-1,1H79
		c0,0.1,0,0.2-0.1,0.4l0.3,0.1c0.3,0.1,0.5,0.3,0.6,0.6c0.1,0.3,0.1,0.5,0,0.8c-0.2,0.4-0.5,0.6-1,0.6c-0.1,0-0.3,0-0.4-0.1
		l-0.3-0.1c-0.1,0.1-0.1,0.2-0.2,0.3l0.2,0.2c0.4,0.4,0.4,1.1,0,1.5c-0.2,0.2-0.5,0.3-0.7,0.3c-0.3,0-0.5-0.1-0.7-0.3l-0.2-0.2
		c-0.1,0.1-0.2,0.1-0.3,0.2l0.1,0.3c0.1,0.3,0.1,0.5,0,0.8c-0.1,0.3-0.3,0.5-0.6,0.6c-0.1,0.1-0.3,0.1-0.4,0.1c-0.4,0-0.8-0.3-1-0.6
		l-0.1-0.3c-0.1,0-0.2,0.1-0.4,0.1v0.3C73.9,73.2,73.4,73.6,72.8,73.6L72.8,73.6z M72.2,72.4v0.2c0,0.3,0.3,0.6,0.6,0.6
		c0.3,0,0.6-0.3,0.6-0.6v-0.2C73,72.4,72.6,72.4,72.2,72.4L72.2,72.4z M74.6,72.2l0.1,0.2c0.1,0.2,0.3,0.4,0.6,0.4
		c0.1,0,0.2,0,0.2,0c0.1-0.1,0.3-0.2,0.3-0.3c0.1-0.1,0.1-0.3,0-0.5l-0.1-0.2C75.4,71.9,75,72,74.6,72.2L74.6,72.2z M69.9,71.7
		l-0.1,0.2c-0.1,0.1-0.1,0.3,0,0.5c0.1,0.1,0.2,0.3,0.3,0.3c0.1,0,0.2,0,0.2,0c0.2,0,0.5-0.1,0.6-0.4l0.1-0.2
		C70.6,72,70.3,71.9,69.9,71.7L69.9,71.7z M72.2,72c0.4,0,0.8,0,1.2,0v-0.2c0-0.3-0.3-0.6-0.6-0.6c-0.3,0-0.6,0.3-0.6,0.6V72z
		 M72.8,70.8c0.6,0,1,0.5,1,1v0.1c0.1,0,0.1,0,0.2,0l0-0.1c-0.1-0.3-0.1-0.5,0-0.8c0.1-0.3,0.3-0.5,0.6-0.6c0.1-0.1,0.3-0.1,0.4-0.1
		c0.4,0,0.8,0.3,1,0.6l0,0.1c0,0,0.1-0.1,0.1-0.1L76,70.9c-0.2-0.2-0.3-0.5-0.3-0.7c0-0.3,0.1-0.5,0.3-0.7c0.2-0.2,0.5-0.3,0.7-0.3
		c0.3,0,0.5,0.1,0.7,0.3l0.1,0.1c0,0,0.1-0.1,0.1-0.1l-0.1,0c-0.3-0.1-0.5-0.3-0.6-0.6c-0.1-0.3-0.1-0.5,0-0.8
		c0.2-0.4,0.5-0.6,1-0.6c0.1,0,0.3,0,0.4,0.1l0.1,0c0-0.1,0-0.1,0-0.2h-0.1c-0.6,0-1-0.5-1-1c0-0.6,0.5-1,1-1h0.1c0,0,0-0.1,0-0.1
		l-0.1,0c-0.1,0.1-0.3,0.1-0.4,0.1c-0.4,0-0.8-0.3-1-0.6c-0.1-0.3-0.1-0.5,0-0.8c0.1-0.3,0.3-0.5,0.6-0.6l0.1,0
		c0-0.1-0.1-0.1-0.1-0.2L77.5,63c-0.2,0.2-0.5,0.3-0.7,0.3c-0.3,0-0.5-0.1-0.7-0.3c-0.2-0.2-0.3-0.5-0.3-0.7c0-0.3,0.1-0.5,0.3-0.7
		l0.1-0.1c0,0-0.1-0.1-0.1-0.1l0,0.1c-0.2,0.4-0.5,0.6-1,0.6c-0.1,0-0.3,0-0.4-0.1c-0.3-0.1-0.5-0.3-0.6-0.6c-0.1-0.3-0.1-0.5,0-0.8
		l0-0.1c-0.1,0-0.1,0-0.2,0v0.1c0,0.6-0.5,1-1,1c-0.6,0-1-0.5-1-1v-0.1c0,0-0.1,0-0.1,0l0,0.1c0.2,0.5,0,1.1-0.6,1.4
		c-0.1,0.1-0.3,0.1-0.4,0.1c-0.4,0-0.8-0.3-1-0.6l0-0.1c-0.1,0-0.1,0.1-0.2,0.1l0.1,0.1c0.4,0.4,0.4,1.1,0,1.5
		c-0.2,0.2-0.5,0.3-0.7,0.3c-0.3,0-0.5-0.1-0.7-0.3l-0.1-0.1C68,63,68,63,68,63l0.1,0c0.3,0.1,0.5,0.3,0.6,0.6
		c0.1,0.3,0.1,0.5,0,0.8c-0.2,0.4-0.5,0.6-1,0.6c-0.1,0-0.3,0-0.4-0.1l-0.1,0c0,0.1,0,0.1,0,0.2h0.1c0.6,0,1,0.5,1,1
		c0,0.6-0.5,1-1,1h-0.1c0,0.1,0,0.1,0,0.2l0.1,0c0.1-0.1,0.3-0.1,0.4-0.1c0.4,0,0.8,0.3,1,0.6c0.2,0.5,0,1.1-0.6,1.4l-0.1,0
		c0,0.1,0.1,0.1,0.1,0.2l0.1-0.1c0.2-0.2,0.5-0.3,0.7-0.3c0.3,0,0.5,0.1,0.7,0.3c0.4,0.4,0.4,1.1,0,1.5L69.5,71
		c0.1,0,0.1,0.1,0.2,0.1l0-0.1c0.2-0.4,0.5-0.6,1-0.6c0.1,0,0.3,0,0.4,0.1c0.3,0.1,0.5,0.3,0.6,0.6c0.1,0.3,0.1,0.5,0,0.8l0,0.1
		c0.1,0,0.1,0,0.2,0v-0.1C71.8,71.2,72.2,70.8,72.8,70.8L72.8,70.8z M70.1,71.3c0.4,0.2,0.7,0.3,1.1,0.5l0.1-0.1
		c0.1-0.1,0.1-0.3,0-0.5c-0.1-0.1-0.2-0.3-0.3-0.3c-0.1,0-0.2,0-0.2,0c-0.2,0-0.5,0.1-0.6,0.4L70.1,71.3z M75,70.8
		c-0.1,0-0.2,0-0.2,0c-0.1,0.1-0.3,0.2-0.3,0.3c-0.1,0.1-0.1,0.3,0,0.5l0.1,0.1c0.4-0.1,0.8-0.3,1.1-0.5l-0.1-0.1
		C75.4,70.9,75.2,70.8,75,70.8L75,70.8z M76.8,71l0.2,0.2c0.1,0.1,0.3,0.2,0.4,0.2c0.2,0,0.3-0.1,0.4-0.2c0.2-0.2,0.2-0.6,0-0.8
		l-0.2-0.1C77.4,70.5,77.1,70.8,76.8,71L76.8,71z M68,70.2l-0.2,0.1c-0.1,0.1-0.2,0.3-0.2,0.4c0,0.2,0.1,0.3,0.2,0.4
		c0.1,0.1,0.3,0.2,0.4,0.2c0.2,0,0.3-0.1,0.4-0.2l0.2-0.2C68.6,70.8,68.3,70.5,68,70.2L68,70.2z M68.3,69.8c0.3,0.3,0.5,0.6,0.8,0.8
		l0.1-0.1c0.2-0.2,0.2-0.6,0-0.8c-0.1-0.1-0.3-0.2-0.4-0.2c-0.2,0-0.3,0.1-0.4,0.2L68.3,69.8z M76.8,69.6c-0.2,0-0.3,0.1-0.4,0.2
		c-0.1,0.1-0.2,0.3-0.2,0.4c0,0.2,0.1,0.3,0.2,0.4l0.1,0.1c0.3-0.3,0.6-0.5,0.8-0.8l-0.1-0.1C77.1,69.6,76.9,69.6,76.8,69.6
		L76.8,69.6z M78.3,69.1l0.2,0.1c0.1,0,0.2,0,0.2,0c0.2,0,0.5-0.1,0.6-0.4c0.1-0.3,0-0.7-0.3-0.8L78.8,68
		C78.6,68.4,78.5,68.8,78.3,69.1L78.3,69.1z M66.9,68l-0.2,0.1c-0.1,0.1-0.3,0.2-0.3,0.3c-0.1,0.1-0.1,0.3,0,0.5
		c0.1,0.2,0.3,0.4,0.6,0.4c0.1,0,0.2,0,0.2,0l0.2-0.1C67.1,68.8,67,68.4,66.9,68L66.9,68z M78,67.8c-0.2,0-0.5,0.1-0.6,0.4
		c-0.1,0.1-0.1,0.3,0,0.5c0.1,0.1,0.2,0.3,0.3,0.3l0.1,0c0.2-0.4,0.3-0.7,0.5-1.1l-0.1,0C78.2,67.8,78.1,67.8,78,67.8L78,67.8z
		 M67.3,67.8c0.1,0.4,0.3,0.8,0.5,1.1l0.2-0.1c0.3-0.1,0.5-0.5,0.3-0.8c-0.1-0.2-0.3-0.4-0.6-0.4c-0.1,0-0.2,0-0.2,0L67.3,67.8z
		 M79,66.8h0.2c0.3,0,0.6-0.3,0.6-0.6c0-0.3-0.3-0.6-0.6-0.6H79c0,0.2,0,0.4,0,0.6C79,66.4,79,66.6,79,66.8L79,66.8z M78.4,65.6
		c-0.3,0-0.6,0.3-0.6,0.6c0,0.3,0.3,0.6,0.6,0.6h0.2c0-0.2,0-0.4,0-0.6c0-0.2,0-0.4,0-0.6H78.4z M67.1,66.8h0.2
		c0.3,0,0.6-0.3,0.6-0.6c0-0.3-0.3-0.6-0.6-0.6h-0.2c0,0.2,0,0.4,0,0.6C67,66.4,67.1,66.6,67.1,66.8L67.1,66.8z M66.4,65.6
		c-0.3,0-0.6,0.3-0.6,0.6c0,0.3,0.3,0.6,0.6,0.6h0.2c0-0.2,0-0.4,0-0.6c0-0.2,0-0.4,0-0.6H66.4z M77.9,63.5l-0.1,0
		c-0.1,0.1-0.3,0.2-0.3,0.3c-0.1,0.1-0.1,0.3,0,0.5c0.1,0.2,0.3,0.4,0.6,0.4c0.1,0,0.2,0,0.2,0l0.1,0C78.3,64.2,78.1,63.8,77.9,63.5
		L77.9,63.5z M67.3,64.5l0.2,0.1c0.1,0,0.2,0,0.2,0c0.2,0,0.5-0.1,0.6-0.4c0.1-0.1,0.1-0.3,0-0.5c-0.1-0.1-0.2-0.3-0.3-0.3l-0.2-0.1
		C67.6,63.8,67.4,64.2,67.3,64.5L67.3,64.5z M78.3,63.3c0.2,0.4,0.3,0.7,0.5,1.1l0.2-0.1c0.3-0.1,0.5-0.5,0.3-0.8
		c-0.1-0.2-0.3-0.4-0.6-0.4c-0.1,0-0.2,0-0.2,0L78.3,63.3z M66.9,63.1c-0.2,0-0.5,0.1-0.6,0.4c-0.1,0.1-0.1,0.3,0,0.5
		c0.1,0.1,0.2,0.3,0.3,0.3l0.2,0.1c0.1-0.4,0.3-0.8,0.5-1.1l-0.2-0.1C67.1,63.2,67,63.1,66.9,63.1L66.9,63.1z M76.5,61.7l-0.1,0.1
		c-0.1,0.1-0.2,0.3-0.2,0.4c0,0.2,0.1,0.3,0.2,0.4c0.1,0.1,0.3,0.2,0.4,0.2c0.2,0,0.3-0.1,0.4-0.2l0.1-0.1
		C77.1,62.3,76.8,62,76.5,61.7L76.5,61.7z M68.3,62.6l0.1,0.1c0.1,0.1,0.3,0.2,0.4,0.2c0.2,0,0.3-0.1,0.4-0.2c0.2-0.2,0.2-0.6,0-0.8
		l-0.1-0.1C68.9,62,68.6,62.3,68.3,62.6L68.3,62.6z M76.8,61.4c0.3,0.3,0.6,0.5,0.8,0.8l0.2-0.1c0.2-0.2,0.2-0.6,0-0.8
		c-0.1-0.1-0.3-0.2-0.4-0.2c-0.2,0-0.3,0.1-0.4,0.2L76.8,61.4z M68.3,61.1c-0.2,0-0.3,0.1-0.4,0.2c-0.1,0.1-0.2,0.3-0.2,0.4
		c0,0.2,0.1,0.3,0.2,0.4l0.2,0.2c0.3-0.3,0.5-0.6,0.8-0.8l-0.2-0.2C68.6,61.1,68.5,61.1,68.3,61.1L68.3,61.1z M74.5,60.7l-0.1,0.1
		c-0.1,0.1-0.1,0.3,0,0.5c0.1,0.1,0.2,0.3,0.3,0.3c0.1,0,0.2,0,0.2,0c0.2,0,0.5-0.1,0.6-0.4l0.1-0.1C75.3,61,74.9,60.8,74.5,60.7
		L74.5,60.7z M70.1,61.1l0.1,0.2c0.1,0.2,0.3,0.4,0.6,0.4c0.1,0,0.2,0,0.2,0c0.3-0.1,0.5-0.5,0.3-0.8l-0.1-0.1
		C70.8,60.8,70.5,60.9,70.1,61.1L70.1,61.1z M72.2,60.5v0.2c0,0.3,0.3,0.6,0.6,0.6c0.3,0,0.6-0.3,0.6-0.6v-0.2
		C73,60.4,72.6,60.4,72.2,60.5L72.2,60.5z M74.7,60.3c0.4,0.1,0.8,0.3,1.1,0.5l0.1-0.2c0.1-0.3,0-0.7-0.3-0.8c-0.1,0-0.2,0-0.2,0
		c-0.2,0-0.5,0.1-0.6,0.4L74.7,60.3z M70.4,59.7c-0.1,0-0.2,0-0.2,0c-0.1,0.1-0.3,0.2-0.3,0.3c-0.1,0.1-0.1,0.3,0,0.5l0.1,0.2
		c0.4-0.2,0.7-0.3,1.1-0.5L71,60.1C70.9,59.8,70.7,59.7,70.4,59.7L70.4,59.7z M72.8,60c0.2,0,0.4,0,0.6,0v-0.2
		c0-0.3-0.3-0.6-0.6-0.6c-0.3,0-0.6,0.3-0.6,0.6V60C72.4,60,72.6,60,72.8,60L72.8,60z M72.8,60"/>
</g>
<g class="st5">
	<g>
		<defs>
			
				<rect id="SVGID_8_" x="93" y="7.6" transform="matrix(-2.241170e-003 1 -1 -2.241170e-003 117.9425 -85.3107)" width="17.1" height="17.1"/>
		</defs>
		<clipPath id="SVGID_9_">
			<use xlink:href="#SVGID_8_"  style="overflow:visible;"/>
		</clipPath>
		<path class="st11" d="M107.1,7.9l0,2.3l-0.9,0.9l0-1.7c0-0.2-0.1-0.3-0.3-0.3c-0.2,0-0.3,0.1-0.3,0.3l0,2.3l-0.9,0.9l0-1.7
			c0-0.2-0.1-0.3-0.3-0.3c-0.2,0-0.3,0.1-0.3,0.3l0,2.3l-9.1,9.1l-0.3-1.5c0-0.1-0.1-0.2-0.3-0.2c-0.1,0-0.2,0.1-0.3,0.2L93,24.3
			c0,0.1,0,0.2,0.1,0.3s0.2,0.1,0.3,0.1l3.6-1.2c0.1,0,0.2-0.1,0.2-0.3c0,0,0,0,0,0c0-0.1-0.1-0.2-0.2-0.3l-1.5-0.3l9.1-9.1l2.3,0
			c0.2,0,0.3-0.1,0.3-0.3c0-0.2-0.1-0.3-0.3-0.3l-1.7,0l0.9-0.9l2.3,0c0.2,0,0.3-0.1,0.3-0.3c0-0.2-0.1-0.3-0.3-0.3l-1.7,0l0.9-0.9
			l2.3,0c0.2,0,0.3-0.1,0.3-0.3c0-0.2-0.1-0.3-0.3-0.3l-2.1,0l0-2.1c0-0.2-0.1-0.3-0.3-0.3C107.3,7.7,107.1,7.8,107.1,7.9L107.1,7.9
			z M94.7,22.8C94.7,22.8,94.7,22.8,94.7,22.8C94.7,22.8,94.7,22.8,94.7,22.8C94.7,22.9,94.7,22.9,94.7,22.8
			C94.7,22.9,94.7,22.9,94.7,22.8C94.7,22.9,94.7,22.9,94.7,22.8c0,0.1,0,0.1,0,0.1c0,0,0,0,0,0c0,0,0,0,0,0c0,0,0,0,0,0
			c0,0,0,0,0,0c0,0,0,0,0,0c0,0,0,0,0,0c0,0,0,0,0,0c0,0,0,0,0,0c0,0,0,0,0,0c0,0,0,0,0,0l1,0.2L93.7,24l0.7-2.2L94.7,22.8z
			 M94.7,22.8"/>
		<path class="st12" d="M102.1,17.2"/>
	</g>
</g>
<path class="st9" d="M24.1,101.5l-0.8-0.3c0.1-0.6,0-1.2-0.1-1.8L24,99c0.5-0.2,0.7-0.8,0.5-1.3l-0.5-1c-0.2-0.5-0.8-0.7-1.3-0.5
	l-0.8,0.4c-0.4-0.5-0.8-0.9-1.3-1.2l0.3-0.8c0.2-0.5-0.1-1.1-0.6-1.3l-1-0.4c-0.5-0.2-1.1,0.1-1.3,0.6l-0.3,0.8
	c-0.6-0.1-1.2,0-1.8,0.1l-0.4-0.8c-0.2-0.5-0.8-0.7-1.3-0.5l-1,0.5c-0.5,0.2-0.7,0.8-0.5,1.3l0.4,0.8c-0.5,0.4-0.9,0.8-1.2,1.3
	l-0.8-0.3c-0.5-0.2-1.1,0.1-1.3,0.6l-0.4,1c-0.1,0.2-0.1,0.5,0,0.8c0.1,0.2,0.3,0.4,0.6,0.5l0.8,0.3c-0.1,0.6,0,1.2,0.1,1.8
	l-0.8,0.4c-0.5,0.2-0.7,0.8-0.5,1.3l0.5,1c0.2,0.5,0.8,0.7,1.3,0.5l0.8-0.4c0.4,0.5,0.8,0.9,1.3,1.2l-0.3,0.8
	c-0.1,0.2-0.1,0.5,0,0.8c0.1,0.2,0.3,0.4,0.6,0.5l1,0.4c0.2,0.1,0.5,0.1,0.8,0c0.2-0.1,0.4-0.3,0.5-0.6l0.3-0.8
	c0.6,0.1,1.2,0,1.8-0.1l0.4,0.8c0.2,0.5,0.8,0.7,1.3,0.5l1-0.5c0.5-0.2,0.7-0.8,0.5-1.3l-0.4-0.8c0.5-0.4,0.9-0.8,1.2-1.3l0.8,0.3
	c0.2,0.1,0.5,0.1,0.8,0c0.2-0.1,0.4-0.3,0.5-0.6l0.4-1C24.8,102.2,24.6,101.6,24.1,101.5L24.1,101.5z M18.7,104
	c-0.5,0.2-1.1,0.4-1.6,0.4c-1.5,0-2.9-0.9-3.5-2.3c-0.9-1.9,0-4.3,1.9-5.2c0.5-0.2,1.1-0.4,1.6-0.4c1.5,0,2.9,0.9,3.5,2.3
	C21.5,100.8,20.6,103.1,18.7,104L18.7,104z M18.7,104"/>
<path class="st9" d="M79.2,101.5l-0.8-0.3c0.1-0.6,0-1.2-0.1-1.8l0.8-0.4c0.5-0.2,0.7-0.8,0.5-1.3l-0.5-1c-0.2-0.5-0.8-0.7-1.3-0.5
	l-0.8,0.4c-0.4-0.5-0.8-0.9-1.3-1.2l0.3-0.8c0.2-0.5-0.1-1.1-0.6-1.3l-1-0.4c-0.5-0.2-1.1,0.1-1.3,0.6l-0.3,0.8
	c-0.6-0.1-1.2,0-1.8,0.1l-0.4-0.8c-0.2-0.5-0.8-0.7-1.3-0.5l-1,0.5c-0.5,0.2-0.7,0.8-0.5,1.3l0.4,0.8c-0.5,0.4-0.9,0.8-1.2,1.3
	l-0.8-0.3c-0.5-0.2-1.1,0.1-1.3,0.6l-0.4,1c-0.1,0.2-0.1,0.5,0,0.8c0.1,0.2,0.3,0.4,0.6,0.5l0.8,0.3c-0.1,0.6,0,1.2,0.1,1.8
	l-0.8,0.4c-0.5,0.2-0.7,0.8-0.5,1.3l0.5,1c0.2,0.5,0.8,0.7,1.3,0.5l0.8-0.4c0.4,0.5,0.8,0.9,1.3,1.2l-0.3,0.8
	c-0.1,0.2-0.1,0.5,0,0.8c0.1,0.2,0.3,0.4,0.6,0.5l1,0.4c0.2,0.1,0.5,0.1,0.8,0c0.2-0.1,0.4-0.3,0.5-0.6l0.3-0.8
	c0.6,0.1,1.2,0,1.8-0.1l0.4,0.8c0.2,0.5,0.8,0.7,1.3,0.5l1-0.5c0.5-0.2,0.7-0.8,0.5-1.3l-0.4-0.8c0.5-0.4,0.9-0.8,1.2-1.3l0.8,0.3
	c0.2,0.1,0.5,0.1,0.8,0c0.2-0.1,0.4-0.3,0.5-0.6l0.4-1C80,102.2,79.8,101.6,79.2,101.5L79.2,101.5z M73.8,104
	c-0.5,0.2-1.1,0.4-1.6,0.4c-1.5,0-2.9-0.9-3.5-2.3c-0.9-1.9,0-4.3,1.9-5.2c0.5-0.2,1.1-0.4,1.6-0.4c1.5,0,2.9,0.9,3.5,2.3
	C76.6,100.8,75.8,103.1,73.8,104L73.8,104z M73.8,104"/>
</svg>
