<?xml version="1.0" encoding="utf-8"?>
<!-- Generator: Adobe Illustrator 19.0.0, SVG Export Plug-In . SVG Version: 6.00 Build 0)  -->
<svg version="1.1" id="Calque_1" xmlns="http://www.w3.org/2000/svg" xmlns:xlink="http://www.w3.org/1999/xlink" x="0px" y="0px"
	 viewBox="0 0 122 218" style="enable-background:new 0 0 122 218;" xml:space="preserve">
<style type="text/css">
	.st0{fill:#FFFFFF;}
	.st1{fill:none;stroke:#030303;}
	.st2{fill:none;stroke:#6B645B;stroke-miterlimit:10;}
</style>
<g id="XMLID_1_">
	<g>
		<rect x="0.3" y="0.3" width="121.5" height="217.5"/>
	</g>
	<g>
	</g>
</g>
<g id="XMLID_12_">
	<g>
		<g>
			<line class="st0" x1="0.3" y1="144.8" x2="121.8" y2="144.8"/>
		</g>
	</g>
	<g>
		<g>
			<line class="st1" x1="0.3" y1="144.8" x2="121.8" y2="144.8"/>
		</g>
	</g>
	<g>
		<g>
			<line class="st2" x1="0.3" y1="144.8" x2="121.8" y2="144.8"/>
		</g>
	</g>
</g>
<g id="XMLID_14_">
	<g>
		<g>
			<line class="st0" x1="0.3" y1="120.7" x2="121.8" y2="120.7"/>
		</g>
	</g>
	<g>
		<g>
			<line class="st1" x1="0.3" y1="120.7" x2="121.8" y2="120.7"/>
		</g>
	</g>
	<g>
		<g>
			<line class="st2" x1="0.3" y1="120.7" x2="121.8" y2="120.7"/>
		</g>
	</g>
</g>
<g id="XMLID_11_">
	<g>
		<g>
			<line class="st0" x1="0.3" y1="96.5" x2="121.8" y2="96.5"/>
		</g>
	</g>
	<g>
		<g>
			<line class="st1" x1="0.3" y1="96.5" x2="121.8" y2="96.5"/>
		</g>
	</g>
	<g>
		<g>
			<line class="st2" x1="0.3" y1="96.5" x2="121.8" y2="96.5"/>
		</g>
	</g>
</g>
<g id="XMLID_6_">
	<g>
		<g>
			<line class="st0" x1="0.3" y1="72.7" x2="121.8" y2="72.7"/>
		</g>
	</g>
	<g>
		<g>
			<line class="st1" x1="0.3" y1="72.7" x2="121.8" y2="72.7"/>
		</g>
	</g>
	<g>
		<g>
			<line class="st2" x1="0.3" y1="72.7" x2="121.8" y2="72.7"/>
		</g>
	</g>
</g>
<g id="XMLID_9_">
	<g>
		<g>
			<line class="st0" x1="0.3" y1="48.5" x2="121.8" y2="48.5"/>
		</g>
	</g>
	<g>
		<g>
			<line class="st1" x1="0.3" y1="48.5" x2="121.8" y2="48.5"/>
		</g>
	</g>
	<g>
		<g>
			<line class="st2" x1="0.3" y1="48.5" x2="121.8" y2="48.5"/>
		</g>
	</g>
</g>
<g id="XMLID_4_">
	<g>
		<g>
			<line class="st0" x1="0.3" y1="24.8" x2="121.8" y2="24.8"/>
		</g>
	</g>
	<g>
		<g>
			<line class="st1" x1="0.3" y1="24.8" x2="121.8" y2="24.8"/>
		</g>
	</g>
	<g>
		<g>
			<line class="st2" x1="0.3" y1="24.8" x2="121.8" y2="24.8"/>
		</g>
	</g>
</g>
<g id="XMLID_3_">
	<g>
		<g>
			<line class="st0" x1="0.3" y1="168.7" x2="121.8" y2="168.7"/>
		</g>
	</g>
	<g>
		<g>
			<line class="st1" x1="0.3" y1="168.7" x2="121.8" y2="168.7"/>
		</g>
	</g>
	<g>
		<g>
			<line class="st2" x1="0.3" y1="168.7" x2="121.8" y2="168.7"/>
		</g>
	</g>
</g>
<g id="XMLID_16_">
	<g>
		<g>
			<line class="st0" x1="0.3" y1="192.7" x2="121.8" y2="192.7"/>
		</g>
	</g>
	<g>
		<g>
			<line class="st1" x1="0.3" y1="192.7" x2="121.8" y2="192.7"/>
		</g>
	</g>
	<g>
		<g>
			<line class="st2" x1="0.3" y1="192.7" x2="121.8" y2="192.7"/>
		</g>
	</g>
</g>
<line class="st2" x1="24.8" y1="0.2" x2="24.8" y2="217.8"/>
<line class="st2" x1="48.8" y1="0.2" x2="48.8" y2="217.8"/>
<line class="st2" x1="72.8" y1="0.2" x2="72.8" y2="217.8"/>
<line class="st2" x1="96.8" y1="0.2" x2="96.8" y2="217.8"/>
</svg>
